<?xml version="1.0" encoding="utf-8"?>
<!-- Generator: Adobe Illustrator 16.0.0, SVG Export Plug-In . SVG Version: 6.00 Build 0)  -->
<!DOCTYPE svg PUBLIC "-//W3C//DTD SVG 1.1//EN" "http://www.w3.org/Graphics/SVG/1.1/DTD/svg11.dtd">
<svg version="1.1" id="Layer_1" xmlns="http://www.w3.org/2000/svg" xmlns:xlink="http://www.w3.org/1999/xlink" x="0px" y="0px"
	 width="1920px" height="1080px" viewBox="0 0 1920 1080" enable-background="new 0 0 1920 1080" xml:space="preserve">
<g>
	<polygon opacity="0.5" fill="#078E38" enable-background="new    " points="979.387,103.102 1105.883,72.209 1396.776,162.215 
		1369.667,378.75 1247.967,437.098 982.387,302.216 	"/>
	<polyline fill="none" stroke="#010202" stroke-miterlimit="10" points="565.03,446.582 519.665,215.379 1105.883,72.209 
		1396.776,162.215 1369.667,378.75 792.827,655.293 565.03,446.582 	"/>
	<line fill="none" stroke="#010202" stroke-miterlimit="10" x1="1101.874" y1="260.887" x2="565.03" y2="446.582"/>
	<line fill="none" stroke="#010202" stroke-miterlimit="10" x1="1369.667" y1="378.75" x2="1101.874" y2="260.887"/>
	<line fill="none" stroke="#010202" stroke-miterlimit="10" x1="1105.883" y1="72.209" x2="1101.874" y2="260.887"/>
	<line fill="none" stroke="#010202" stroke-miterlimit="10" x1="1264.991" y1="208.777" x2="979.387" y2="103.102"/>
	<line fill="none" stroke="#010202" stroke-miterlimit="10" x1="762.461" y1="386.333" x2="1396.776" y2="162.215"/>
	<polyline opacity="0.5" fill="#96C222" enable-background="new    " points="519.665,215.379 979.387,103.102 1264.991,208.777 
		1247.967,437.098 792.827,655.293 565.03,446.582 	"/>
	<line fill="none" stroke="#010202" stroke-miterlimit="10" x1="762.461" y1="386.333" x2="519.665" y2="215.379"/>
	<line fill="none" stroke="#010202" stroke-miterlimit="10" x1="982.387" y1="302.216" x2="979.387" y2="103.102"/>
	<line fill="none" stroke="#010202" stroke-miterlimit="10" x1="762.461" y1="386.333" x2="792.827" y2="655.293"/>
	<line fill="none" stroke="#010202" stroke-miterlimit="10" x1="1264.991" y1="208.777" x2="1247.967" y2="437.098"/>
	<line fill="none" stroke="#010202" stroke-miterlimit="10" x1="982.387" y1="302.216" x2="1247.967" y2="437.098"/>
</g>
<line fill="none" x1="1520.649" y1="446.582" x2="1542.35" y2="455.523"/>
<line fill="none" x1="1567.209" y1="215.379" x2="1588.702" y2="222.939"/>
<line fill="none" x1="1439.6" y1="270.773" x2="1462.108" y2="280.409"/>
<g opacity="0.5">
	<path fill="#FFFFFF" d="M1588.702,222.945l-10.131,51.332l-43.287,19.551l-20.328,100.639l30.641-15.717l11.463,3.426
		l-14.537,72.974L954.194,805.659l-17.191-17.906l-15.762-292.269l645.975-280.105L1588.702,222.945z M1381.02,467.861
		l15.756-108.045l-76.58,37.928l-12.84,109.551L1381.02,467.861z M1132.024,486.932l-114.896,55.006l2.273,121.918l109.193-59.354
		L1132.024,486.932z"/>
</g>
<g>
	<polyline fill="none" stroke="#010202" stroke-miterlimit="10" points="936.997,787.752 921.241,495.482 1567.379,214.995 	"/>
	<path fill="none" stroke="#010202" stroke-miterlimit="10" d="M1520.817,446.199"/>
	<polyline fill="none" stroke="#010202" stroke-miterlimit="10" points="1578.563,274.273 1588.872,222.557 942.733,511.959 
		954.192,805.659 1542.522,455.141 1557.059,382.176 	"/>
	<line fill="none" stroke="#010202" stroke-miterlimit="10" x1="942.733" y1="511.959" x2="921.241" y2="495.482"/>
	<line fill="none" stroke="#010202" stroke-miterlimit="10" x1="1567.209" y1="215.379" x2="1588.702" y2="222.939"/>
	<line fill="none" stroke="#010202" stroke-miterlimit="10" x1="936.997" y1="787.752" x2="954.192" y2="805.659"/>
	<polygon fill="none" stroke="#010202" stroke-miterlimit="10" points="1017.124,541.936 1132.018,486.932 1144.055,481.166 
		1139.02,611.694 1019.639,676.78 	"/>
	<path fill="none" stroke="#010202" stroke-miterlimit="10" d="M1128.594,604.502l-109.195,59.344L1128.594,604.502z"/>
	<path fill="none" stroke="#010202" stroke-miterlimit="10" d="M1139.02,611.694"/>
	<line fill="none" stroke="#010202" stroke-miterlimit="10" x1="1128.594" y1="604.502" x2="1139.02" y2="611.694"/>
	<line fill="none" stroke="#010202" stroke-miterlimit="10" x1="1128.594" y1="604.502" x2="1132.018" y2="486.932"/>
	<polygon fill="none" stroke="#010202" stroke-miterlimit="10" points="1320.196,397.74 1409.061,353.734 1391.807,471.814 
		1305.866,519.998 	"/>
	<polyline fill="none" stroke="#010202" stroke-miterlimit="10" points="1578.563,274.273 1535.282,293.822 1512.629,406.011 
		1557.059,382.176 	"/>
	<line fill="none" stroke="#010202" stroke-miterlimit="10" x1="1307.356" y1="507.295" x2="1381.02" y2="467.861"/>
	<line fill="none" stroke="#010202" stroke-miterlimit="10" x1="1381.02" y1="467.861" x2="1391.807" y2="471.814"/>
	<line fill="none" stroke="#010202" stroke-miterlimit="10" x1="1381.02" y1="467.861" x2="1396.776" y2="359.816"/>
	<line fill="none" stroke="#010202" stroke-miterlimit="10" x1="1514.956" y1="394.467" x2="1545.596" y2="378.75"/>
	<line fill="none" stroke="#010202" stroke-miterlimit="10" x1="1545.596" y1="378.75" x2="1557.059" y2="382.176"/>
	<path fill="none" stroke="#010202" stroke-miterlimit="10" d="M1567.379,280.409"/>
	<path fill="none" stroke="#010202" stroke-miterlimit="10" d="M1545.596,378.75"/>
</g>
<polygon fill="none" stroke="#010202" stroke-miterlimit="10" points="921.241,495.482 936.997,787.752 954.192,805.659 
	1542.522,455.141 1557.059,382.176 1512.629,406.011 1535.282,293.822 1578.563,274.273 1588.702,222.939 1567.209,215.379 "/>
<polyline fill="none" points="651.235,470.354 766.131,415.348 762.702,532.918 653.508,592.262 "/>
<polygon fill="none" points="1320.196,397.74 1396.776,359.816 1381.02,467.861 1307.356,507.295 "/>
<g>
	<g>
		<path fill="#010202" d="M568.102,234.492c1.193-3.567,1.939-5.189,3.619-8.473c0.881,0.612,1.324,0.922,2.221,1.547
			c-1.143,2.35-1.664,3.531-2.566,6.05c5.502,0.812,8.264,1.262,13.803,2.338c0.977,0.808,1.469,1.228,2.461,2.099
			C579.788,236.316,575.881,235.648,568.102,234.492z"/>
		<path fill="#010202" d="M598.776,239.563c5.152-1.437,7.768-2.15,13.041-3.575c0.877,0.864,1.316,1.312,2.203,2.237
			c-6.791,1.879-10.146,2.819-16.715,4.719c-3.316-10.297-4.404-13.331-6.025-19.941c-5.242,1.324-7.852,1.989-13.029,3.314
			c-0.768-0.541-1.15-0.807-1.906-1.338c6.752-1.725,10.162-2.588,17.008-4.312C594.795,227.172,595.78,230.055,598.776,239.563z"/>
		<path fill="#010202" d="M630.096,230.227c0.178,2.563-1.086,4.394-3.861,5.147c-2.773,0.755-6.172,0.196-10.188-1.382
			c-4.082-1.604-7.689-3.73-10.717-6.18c-2.992-2.422-4.447-4.5-4.492-6.416c-0.045-1.933,1.357-3.273,4.217-3.989
			c2.828-0.708,6.174-0.606,10.088,0.364c3.914,0.973,7.313,2.549,10.26,4.973C628.348,225.168,629.92,227.705,630.096,230.227z
			 M615.182,219.139c-3.197-0.818-5.947-0.923-8.262-0.344c-2.221,0.557-3.314,1.641-3.273,3.275
			c0.043,1.643,1.207,3.359,3.555,5.264c2.381,1.93,5.275,3.575,8.619,4.813c3.346,1.238,6.119,1.656,8.318,1.07
			c2.229-0.594,3.256-1.99,3.121-3.99c-0.137-2.037-1.393-4.064-3.752-6.006C621.112,221.252,618.342,219.949,615.182,219.139z"/>
		<path fill="#010202" d="M653.665,227.543c-4.947-5.1-7.4-7.131-12.148-10.932c-4.197-3.359-8.066-4.338-11.814-3.404
			c-1.842,0.459-2.697,1.219-2.604,2.252c0.096,1.039,1.055,2.294,2.953,3.807c4.846,3.858,7.355,5.928,12.467,11.25
			c-0.77,0.205-1.154,0.308-1.922,0.512c-8.438-8.797-12.539-11.403-20.141-17.144c0.781-0.194,1.174-0.292,1.955-0.487
			c0.92,0.695,1.385,1.045,2.32,1.754c-0.824-1.52,0.236-2.623,3.125-3.346c2.447-0.609,4.986-0.568,7.65,0.145
			c2.666,0.714,5.238,2.007,7.768,4.023c4.82,3.846,7.307,5.896,12.324,11.055C654.823,227.232,654.436,227.337,653.665,227.543z"/>
		<path fill="#010202" d="M651.651,215.711c2.705,2.208,5.6,3.969,8.617,5.07c3.107,1.136,5.971,1.412,8.545,0.729
			c1.318-0.35,2.287-0.889,2.889-1.604c0.76-0.905,0.775-2.354,0.053-4.188c1.025,0.108,1.537,0.163,2.564,0.275
			c1.188,2.445,0.943,4.548-0.742,6.081c-0.645,0.588-1.574,1.056-2.797,1.387c-2.914,0.79-6.326,0.365-10.215-1.044
			c-3.916-1.419-7.406-3.432-10.375-5.874c-3-2.469-4.465-4.543-4.445-6.442c0.021-1.931,1.52-3.242,4.436-3.976
			c2.883-0.726,6.133-0.655,9.791,0.216c3.684,0.879,7,2.401,9.934,4.76C662.651,212.949,658.989,213.871,651.651,215.711z
			 M658.708,207.469c-2.537-0.438-4.758-0.416-6.672,0.064c-4.02,1.01-4.742,3.072-1.979,6.592
			c6.354-1.588,9.521-2.383,15.807-3.975C663.725,208.793,661.34,207.924,658.708,207.469z"/>
		<path fill="#010202" d="M705.108,213.387c-5.611-3.347-8.479-4.852-14.156-7.695c-5.924,1.568-8.926,2.349-14.977,3.904
			c2.604,3.704,3.928,5.651,6.549,10.164c-0.748,0.205-1.121,0.305-1.869,0.51c-6.795-10.631-14.693-20.515-21.254-31.285
			c15.619,8.449,31.982,15.312,47.564,23.859C706.223,213.061,705.852,213.17,705.108,213.387z M663.852,192.766
			c3.998,6.039,6.293,8.709,10.881,15.078c5.428-1.391,8.121-2.087,13.443-3.481C678.149,199.469,673.124,197.467,663.852,192.766z"
			/>
		<path fill="#010202" d="M705.096,207.27c-0.879-0.715-1.32-1.07-2.203-1.765c1.059-2.54,1.568-3.758,2.545-6.153
			c-5.248-0.693-7.881-1.039-13.129-1.713c-0.873-0.625-1.307-0.938-2.174-1.559c7.4,0.938,11.131,1.414,18.543,2.38
			C707.333,201.842,706.616,203.576,705.096,207.27z"/>
	</g>
</g>
<g>
	<g>
		<path fill="#010202" d="M1238.977,192.605c-0.938-3.476-1.461-5.123-2.238-8.383c1.58,0.606,2.377,0.911,3.969,1.526
			c0.59,2.331,0.928,3.515,1.555,5.964c7.018,0.709,10.449,1.082,17.016,1.893c1.445,0.707,2.152,1.067,3.523,1.806
			C1253.805,194.172,1248.965,193.624,1238.977,192.605z"/>
		<path fill="#010202" d="M1274.786,196.223c4.9-1.483,7.346-2.225,12.23-3.711c1.084,0.688,1.607,1.037,2.609,1.754
			c-6.309,1.953-9.463,2.928-15.785,4.877c-4.338-8.344-9.008-11.551-16.592-17.967c-4.943,1.326-7.432,1.99-12.457,3.321
			c-1.367-0.53-2.051-0.794-3.41-1.317c6.566-1.719,9.807-2.576,16.229-4.285C1265.038,185.186,1269.739,188.284,1274.786,196.223z"
			/>
		<path fill="#010202" d="M1303.463,186.65c1,2.17,0.027,3.744-2.508,4.533c-2.537,0.789-5.811,0.553-10.27-0.593
			c-4.533-1.161-9.146-2.894-13.961-5.071c-4.762-2.155-8.166-4.15-9.85-5.981c-1.73-1.883-1.311-3.151,1.326-3.858
			c2.607-0.699,6.543-0.631,11.785,0.226s10.352,2.269,15.045,4.368C1299.727,182.373,1302.477,184.516,1303.463,186.65z
			 M1281.186,177.191c-4.266-0.719-7.496-0.786-9.625-0.209c-2.045,0.554-2.332,1.594-0.92,3.166
			c1.402,1.563,4.076,3.188,7.811,4.877c3.789,1.715,7.568,3.065,11.402,3.984c3.834,0.918,6.609,1.107,8.613,0.493
			c2.031-0.623,2.719-1.846,1.818-3.563c-0.918-1.752-3.203-3.486-6.965-5.172C1289.504,179.059,1285.395,177.898,1281.186,177.191z
			"/>
		<path fill="#010202" d="M1325.694,183.055c-6.004-3.889-9.783-5.582-17.592-8.838c-6.9-2.877-12.307-3.734-15.701-2.806
			c-1.668,0.457-1.979,1.162-0.992,2.13c0.977,0.957,3.09,2.105,6.232,3.428c8.02,3.377,11.922,5.139,18,9.217
			c-0.695,0.218-1.043,0.326-1.736,0.543c-9.861-6.241-20.523-10.28-31.324-14.543c0.713-0.191,1.068-0.285,1.779-0.479
			c1.656,0.633,2.486,0.951,4.141,1.593c-2.225-1.396-2.023-2.437,0.598-3.146c2.219-0.602,5.127-0.607,8.717-0.012
			c3.592,0.599,7.559,1.717,11.725,3.441c7.941,3.287,11.791,4.997,17.896,8.926
			C1326.739,182.727,1326.391,182.838,1325.694,183.055z"/>
		<path fill="#010202" d="M1318.333,173.055c4.322,1.842,8.143,3.211,11.65,3.981c3.609,0.794,6.486,0.842,8.818,0.123
			c1.193-0.368,1.986-0.871,2.334-1.499c0.438-0.793-0.074-1.998-1.719-3.514c1.117,0.039,1.674,0.059,2.783,0.098
			c2.346,1.994,2.725,3.729,1.486,5.089c-0.475,0.521-1.271,0.96-2.381,1.308c-2.65,0.83-6.006,0.715-10.391-0.246
			c-4.41-0.965-8.885-2.514-13.596-4.549c-4.762-2.059-8.08-3.899-9.635-5.61c-1.578-1.738-1.051-2.945,1.609-3.669
			c2.635-0.715,6.385-0.729,11.195-0.069c4.836,0.663,9.729,1.888,14.377,3.791C1328.241,170.196,1324.938,171.15,1318.333,173.055z
			 M1319.985,165.529c-3.184-0.311-5.664-0.232-7.408,0.246c-3.664,1.004-2.523,2.906,2.967,5.936
			c5.729-1.631,8.59-2.443,14.328-4.076C1326.606,166.537,1323.28,165.85,1319.985,165.529z"/>
		<path fill="#010202" d="M1367.163,167.057c0.715,1.795-0.381,3.188-3.092,4.032c-3.861,1.203-5.785,1.804-9.623,3.001
			c-17.361-9.512-36.83-14.933-55.268-21.923c2.898-0.747,4.348-1.12,7.248-1.864c2.307-0.591,5.273-0.627,8.975-0.139
			c3.949,0.521,8.223,1.561,12.771,3.102c5.213,1.765,7.834,4.539,8.117,4.764c0.719,0.566,6.607-0.141,10.781,0.494
			c4.148,0.633,8.266,1.674,12.164,3.17C1363.899,163.48,1366.461,165.297,1367.163,167.057z M1316.944,151.471
			c-3.115-0.391-5.482-0.396-7.137,0.029c-2.307,0.594-3.459,0.891-5.762,1.486c8.199,3.139,12.65,4.598,21.199,7.621
			c2.461-0.666,3.693-1.002,6.158-1.668c1.668-0.449,2.064-1.164,1.17-2.133c-0.893-0.97-2.951-1.99-6.164-3.084
			C1323.088,152.591,1319.92,151.844,1316.944,151.471z M1345.633,159.373c-3.826-0.418-6.887-0.344-9.102,0.26
			c-3.178,0.866-4.762,1.301-7.928,2.167c10.805,3.874,16.23,5.802,24.936,10.329c3.164-0.971,4.748-1.456,7.926-2.431
			c2.188-0.671,3.035-1.763,2.453-3.179c-0.58-1.414-2.664-2.881-6.416-4.33C1353.704,160.725,1349.68,159.814,1345.633,159.373z"/>
		<path fill="#010202" d="M1369.934,163.527c-1.277-0.541-1.928-0.812-3.25-1.34c-0.098-2.172-0.209-3.219-0.486-5.271
			c-6.477-0.32-9.764-0.486-16.371-0.843c-1.467-0.496-2.207-0.745-3.693-1.238c9.42,0.513,14.119,0.746,23.309,1.179
			C1369.815,158.9,1369.952,160.387,1369.934,163.527z"/>
	</g>
</g>
<g>
	<g>
		<path fill="#010202" d="M959.604,765.737c2.662-9.529,4.697-14.838,9.373-24.215c0.029,2.029,0.051,3.109,0.1,5.336
			c-3.863,8.248-5.58,12.656-8.098,20.697c0.004,0.07,0.004,0.107,0.008,0.178c3.113,5.844,4.857,8.695,8.691,12.912
			c-0.016,2.188-0.029,3.242-0.086,5.229c-4.379-4.471-6.336-8.016-9.75-15.375C959.75,768.596,959.702,767.637,959.604,765.737z"/>
		<path fill="#010202" d="M973.702,742.875c0.85,7.42,1.367,11.889,2.258,20.127c0.486,4.521,0.912,8.611,1.158,12.447
			c0.033-0.02,0.051-0.027,0.084-0.047c0.34-4.074,0.76-8.785,1.146-13.578c0.77-9.117,1.08-13.975,1.873-22.295
			c0.889-0.463,1.338-0.701,2.246-1.178c1.092,7.18,1.734,11.428,2.904,19.232c0.701,4.676,1.234,8.691,1.611,12.289
			c0.041-0.021,0.061-0.035,0.1-0.057c0.246-3.957,0.588-8.461,0.973-13.627c0.666-8.813,0.916-13.494,1.564-21.645
			c1.123-0.602,1.689-0.906,2.828-1.521c-1.197,14.105-2.105,28.262-4.176,42.275c-1.072,0.631-1.602,0.939-2.648,1.553
			c-0.824-5.879-1.373-9.623-2.475-17.09c-0.637-4.365-1.188-8.395-1.684-13.045c-0.025,0.014-0.037,0.02-0.061,0.031
			c-0.236,5.125-0.578,9.805-1.002,14.59c-0.791,8.494-1.203,12.809-2.324,19.867c-0.953,0.541-1.422,0.807-2.338,1.318
			c-1.281-12.832-2.861-25.635-4.488-38.426C972.211,743.624,972.702,743.379,973.702,742.875z"/>
		<path fill="#010202" d="M1006.098,764.639c-0.125-1.541-0.195-2.355-0.35-4.047c-0.043,0.025-0.064,0.039-0.107,0.064
			c-0.881,3.301-2.742,6.637-5.207,8.121c-3.498,2.105-5.199-1.525-5.336-7.072c-0.229-9.27,2.957-16.953,9.416-20.48
			c-0.02-0.33-0.029-0.49-0.049-0.82c-0.195-3.32-0.928-8.986-4.268-7.16c-1.52,0.83-3.041,2.822-4.098,5.27
			c-0.355-1.779-0.531-2.664-0.875-4.389c1.24-2.813,3.105-5.168,5.146-6.283c4.955-2.703,6.695,4.639,7.201,12.611
			c0.377,5.953,0.568,8.971,0.824,14.426c0.15,3.164,0.32,6.002,0.58,8.02C1007.825,763.594,1007.249,763.944,1006.098,764.639z
			 M1004.868,746.233c-3.348,1.727-6.98,5.479-6.748,12.914c0.143,4.51,1.488,5.607,3.084,4.658c2.236-1.326,3.588-5.049,3.943-8.51
			c0.076-0.754,0.109-1.578,0.074-2.291C1005.096,750.358,1005.022,748.989,1004.868,746.233z"/>
		<path fill="#010202" d="M1010.536,707.075c1.146-0.668,1.721-1.002,2.863-1.666c0.826,17.584,2.725,35.094,3.547,52.678
			c-1.25,0.754-1.879,1.135-3.139,1.896C1013.096,742.323,1011.26,724.733,1010.536,707.075z"/>
		<path fill="#010202" d="M1018.192,702.618c1.131-0.658,1.697-0.984,2.818-1.637c1.045,17.404,3.102,34.729,4.186,52.135
			c-1.203,0.721-1.811,1.09-3.035,1.826C1021.17,737.475,1019.167,720.086,1018.192,702.618z"/>
		<path fill="#010202" d="M1032.545,733.397c-0.266,6.877-0.426,10.234-1.002,15.932c-1.168,0.693-1.762,1.047-2.963,1.762
			c1.77-17.842,1.789-35.826,2.832-53.719c1.273-0.721,1.902-1.074,3.143-1.775c3.637,15.225,7.33,30.434,10.908,45.67
			c-0.955,0.531-1.447,0.809-2.463,1.385c-1.133-4.584-1.828-7.379-3.271-13.227
			C1036.993,730.915,1035.543,731.717,1032.545,733.397z M1038.696,724.567c-1.363-5.539-2.084-8.479-3.445-14.041
			c-0.775-3.158-1.35-6.008-1.885-8.654c-0.023,0.014-0.035,0.018-0.061,0.031c-0.059,3.045-0.105,6.313-0.193,9.678
			c-0.221,6.436-0.293,9.816-0.514,16.307C1035.124,726.499,1036.35,725.829,1038.696,724.567z"/>
		<path fill="#010202" d="M1055.948,719.333c-2.631,8.389-4.16,12.658-8.268,20.709c-0.1-1.631-0.16-2.492-0.295-4.283
			c3.436-7.143,4.822-10.803,7.277-17.998c-0.002-0.059-0.004-0.088-0.008-0.146c-3.135-4.811-5.289-7.094-9.896-11.15
			c-0.191-2.156-0.283-3.23-0.457-5.354c5.439,4.818,8.023,7.732,11.445,13.916C1055.831,716.772,1055.872,717.635,1055.948,719.333
			z"/>
	</g>
</g>
<line fill="none" stroke="#010202" stroke-miterlimit="10" stroke-dasharray="0.923,1.846" x1="380.307" y1="254.653" x2="597.706" y2="254.653"/>
<line fill="none" stroke="#010202" stroke-miterlimit="10" stroke-dasharray="0.923,1.846" x1="380.307" y1="112.924" x2="1081.795" y2="112.924"/>
<line fill="none" stroke="#010202" stroke-miterlimit="10" stroke-dasharray="0.923,1.846" x1="380.307" y1="642.655" x2="1006.528" y2="642.655"/>
<g>
	<g>
		<path fill="none" stroke="#010202" stroke-miterlimit="10" d="M1011.102,201.675c96.166-0.285-405.521,694.879-71.816,561.706"/>
		<g>
			<polygon fill="#010202" points="938.319,767.883 938.151,763.864 935.141,761.194 944.659,760.772 			"/>
		</g>
	</g>
</g>
<g>
	<g>
		<path fill="none" stroke="#010202" stroke-miterlimit="10" d="M720.387,194.922c29.354-6.281,23.244,6.753,53.338,6.753"/>
	</g>
</g>
<g>
	<g>
		<path fill="none" stroke="#010202" stroke-miterlimit="10" d="M1380.12,144.92c35.689-25.357-147.354-83.962-35.77-83.962"/>
	</g>
</g>
<g>
	<g>
		<path fill="none" stroke="#010202" stroke-miterlimit="10" d="M1594.057,208.745c51.381-29.036,63.629-147.787-12.502-147.787"/>
		<g>
			<polygon fill="#010202" points="1598.208,210.718 1595.131,208.125 1594.862,204.11 1588.702,211.378 			"/>
		</g>
	</g>
</g>
<g>
	
		<rect x="1344.35" y="39.887" fill="#EEEDED" stroke="#010202" stroke-width="0.3" stroke-miterlimit="10" width="237.205" height="42.144"/>
	<g>
		<path d="M1361.233,68.738c-1.24,1.24-2.76,1.86-4.56,1.86c-2.061,0-3.75-0.83-5.07-2.49v2.28h-1.229v-22.2h1.229v12.12
			c1.3-1.66,2.99-2.49,5.07-2.49c1.8,0,3.31,0.61,4.53,1.83c1.239,1.241,1.859,2.76,1.859,4.56
			C1363.063,66.008,1362.453,67.518,1361.233,68.738z M1360.333,60.548c-1.021-1.02-2.24-1.53-3.66-1.53c-1.44,0-2.66,0.5-3.66,1.5
			c-1.021,1.02-1.53,2.25-1.53,3.69c0,1.42,0.51,2.64,1.53,3.66c1.02,1.02,2.239,1.53,3.66,1.53c1.439,0,2.659-0.5,3.66-1.5
			c1.02-1.02,1.529-2.25,1.529-3.69C1361.863,62.788,1361.353,61.568,1360.333,60.548z"/>
		<path d="M1376.233,68.738c-1.24,1.24-2.76,1.86-4.56,1.86c-1.801,0-3.311-0.61-4.53-1.83c-1.24-1.24-1.86-2.76-1.86-4.56
			c0-1.78,0.62-3.29,1.86-4.53c1.22-1.26,2.729-1.89,4.53-1.89c1.779,0,3.289,0.62,4.529,1.86c1.24,1.241,1.86,2.76,1.86,4.56
			C1378.063,66.008,1377.453,67.518,1376.233,68.738z M1375.363,60.518c-1-1.02-2.23-1.53-3.689-1.53c-1.4,0-2.61,0.52-3.631,1.56
			c-1.04,1.04-1.56,2.26-1.56,3.66c0,1.42,0.51,2.64,1.53,3.66c1.02,1.02,2.239,1.53,3.66,1.53c1.439,0,2.659-0.5,3.659-1.5
			c1.021-1.02,1.53-2.25,1.53-3.69C1376.863,62.748,1376.363,61.518,1375.363,60.518z"/>
		<path d="M1383.012,59.228v11.16h-1.229v-11.16h-1.681v-1.23h1.681v-5.43h1.229v5.43h2.88v1.23H1383.012z"/>
		<path d="M1389.192,61.718c-0.22,0-0.449-0.09-0.689-0.27c-0.18-0.18-0.28-0.42-0.3-0.72c0-0.54,0.33-0.87,0.989-0.99
			c0.5,0,0.83,0.33,0.99,0.99C1390.182,61.388,1389.852,61.718,1389.192,61.718z M1389.192,70.568c-0.22,0-0.449-0.09-0.689-0.27
			c-0.18-0.18-0.28-0.42-0.3-0.72c0-0.54,0.33-0.87,0.989-0.99c0.5,0,0.83,0.33,0.99,0.99
			C1390.182,70.238,1389.852,70.568,1389.192,70.568z"/>
		<path d="M1403.952,70.388v-2.13c-1.3,1.56-2.95,2.34-4.949,2.34c-1.801,0-3.311-0.61-4.53-1.83c-1.24-1.24-1.86-2.76-1.86-4.56
			c0-1.8,0.61-3.31,1.83-4.53c1.24-1.24,2.76-1.86,4.561-1.86c1.979,0,3.63,0.78,4.949,2.34v-2.16h1.23v12.39H1403.952z
			 M1402.662,60.548c-1.02-1.02-2.24-1.53-3.659-1.53c-1.44,0-2.66,0.5-3.66,1.5c-1.021,1.02-1.53,2.25-1.53,3.69
			c0,1.42,0.51,2.64,1.53,3.66c1.02,1.02,2.239,1.53,3.66,1.53c1.439,0,2.659-0.5,3.659-1.5c1.021-1.02,1.53-2.25,1.53-3.69
			C1404.192,62.788,1403.682,61.568,1402.662,60.548z"/>
		<path d="M1419.582,70.388v-2.22c-1.319,1.62-3,2.43-5.04,2.43c-1.8,0-3.31-0.61-4.529-1.83c-1.24-1.24-1.86-2.76-1.86-4.56
			c0-1.8,0.609-3.31,1.83-4.53c1.239-1.24,2.76-1.86,4.56-1.86c1.98,0,3.66,0.81,5.04,2.43v-12.06h1.23v22.2H1419.582z
			 M1418.202,60.548c-1.02-1.02-2.24-1.53-3.66-1.53c-1.439,0-2.66,0.5-3.66,1.5c-1.02,1.02-1.529,2.25-1.529,3.69
			c0,1.42,0.51,2.64,1.529,3.66c1.021,1.02,2.24,1.53,3.66,1.53c1.44,0,2.66-0.5,3.66-1.5c1.021-1.02,1.53-2.25,1.53-3.69
			C1419.732,62.788,1419.222,61.568,1418.202,60.548z"/>
		<path d="M1425.312,55.778c-0.221,0-0.45-0.09-0.69-0.27c-0.18-0.18-0.28-0.42-0.3-0.72c0-0.54,0.33-0.87,0.99-0.99
			c0.499,0,0.829,0.33,0.989,0.99C1426.301,55.448,1425.972,55.778,1425.312,55.778z M1424.711,75.788v-17.79h1.23v17.79H1424.711z"
			/>
		<path d="M1440.431,70.388v-2.13c-1.3,1.56-2.95,2.34-4.949,2.34c-1.801,0-3.311-0.61-4.53-1.83c-1.24-1.24-1.86-2.76-1.86-4.56
			c0-1.8,0.61-3.31,1.83-4.53c1.24-1.24,2.76-1.86,4.561-1.86c1.979,0,3.63,0.78,4.949,2.34v-2.16h1.23v12.39H1440.431z
			 M1439.141,60.548c-1.02-1.02-2.24-1.53-3.659-1.53c-1.44,0-2.66,0.5-3.66,1.5c-1.021,1.02-1.53,2.25-1.53,3.69
			c0,1.42,0.51,2.64,1.53,3.66c1.02,1.02,2.239,1.53,3.66,1.53c1.439,0,2.659-0.5,3.659-1.5c1.021-1.02,1.53-2.25,1.53-3.69
			C1440.671,62.788,1440.162,61.568,1439.141,60.548z"/>
		<path d="M1451.171,70.628c-1.841,0-3.37-0.61-4.59-1.83c-1.221-1.22-1.83-2.75-1.83-4.59c0-1.84,0.609-3.37,1.83-4.59
			c1.22-1.22,2.749-1.83,4.59-1.83c1.58,0,2.84,0.36,3.78,1.08v1.47l-0.78-0.51l-0.84-0.45c-0.761-0.26-1.48-0.39-2.16-0.39
			c-1.54,0-2.79,0.48-3.75,1.44c-0.98,0.98-1.47,2.24-1.47,3.78c0,1.521,0.489,2.771,1.47,3.75c0.979,0.98,2.229,1.47,3.75,1.47
			c1.439,0,2.7-0.48,3.78-1.44v1.53C1453.831,70.258,1452.571,70.628,1451.171,70.628z"/>
		<path d="M1456.931,63.938c0,1.68,0.45,3.011,1.351,3.99c0.939,1,2.229,1.5,3.87,1.5c0.84,0,1.6-0.14,2.279-0.42
			c0.86-0.36,1.63-1.09,2.311-2.19l1.109,0.51c-0.779,1.48-1.979,2.48-3.6,3c-0.62,0.2-1.32,0.3-2.1,0.3
			c-1.86,0-3.391-0.61-4.591-1.83c-1.22-1.22-1.83-2.75-1.83-4.59c0-1.86,0.601-3.39,1.801-4.59c1.22-1.22,2.76-1.83,4.62-1.83
			c1.84,0,3.359,0.57,4.56,1.71c1.22,1.14,1.83,2.621,1.83,4.44H1456.931z M1465.391,60.008c-0.94-0.68-2.02-1.02-3.239-1.02
			c-2.561,0-4.241,1.26-5.04,3.78h10.05C1466.961,61.628,1466.372,60.708,1465.391,60.008z"/>
		<path d="M1479.731,70.388v-7.41c0-2.62-1.181-3.93-3.54-3.93c-1.16,0-2.04,0.34-2.641,1.02c-0.62,0.68-0.93,1.61-0.93,2.79v7.53
			h-1.229v-12.39h1.229v1.5c0.56-1.1,1.75-1.65,3.57-1.65c1.54,0,2.72,0.44,3.54,1.32c0.819,0.88,1.229,2.11,1.229,3.69v7.53
			H1479.731z"/>
		<path d="M1486.78,59.228v11.16h-1.229v-11.16h-1.681v-1.23h1.681v-5.43h1.229v5.43h2.88v1.23H1486.78z"/>
		<path d="M1492.57,70.388v-21.42h10.29v1.23h-9.06v7.8h9.06v1.32h-9.06v9.84h9.06v1.23H1492.57z"/>
		<path d="M1505.409,70.388v-22.2h1.2v22.2H1505.409z"/>
		<path d="M1511.079,63.938c0,1.68,0.45,3.011,1.351,3.99c0.939,1,2.229,1.5,3.87,1.5c0.84,0,1.6-0.14,2.279-0.42
			c0.86-0.36,1.63-1.09,2.311-2.19l1.109,0.51c-0.779,1.48-1.979,2.48-3.6,3c-0.62,0.2-1.32,0.3-2.1,0.3
			c-1.86,0-3.391-0.61-4.591-1.83c-1.22-1.22-1.83-2.75-1.83-4.59c0-1.86,0.601-3.39,1.801-4.59c1.22-1.22,2.76-1.83,4.62-1.83
			c1.84,0,3.359,0.57,4.56,1.71c1.22,1.14,1.83,2.621,1.83,4.44H1511.079z M1519.539,60.008c-0.94-0.68-2.02-1.02-3.239-1.02
			c-2.561,0-4.241,1.26-5.04,3.78h10.05C1521.109,61.628,1520.519,60.708,1519.539,60.008z"/>
		<path d="M1539.638,70.388v-8.55c0-0.76-0.25-1.42-0.75-1.98s-1.221-0.84-2.16-0.84c-1.94,0-2.91,0.94-2.91,2.82v8.55h-1.229v-8.55
			c0-0.84-0.28-1.51-0.84-2.01c-0.581-0.54-1.271-0.81-2.07-0.81c-0.82,0-1.511,0.26-2.07,0.78c-0.56,0.5-0.84,1.18-0.84,2.04v8.55
			h-1.229v-12.39h1.229v1.23c0.6-0.939,1.57-1.41,2.91-1.41c1.6,0,2.779,0.65,3.54,1.95c0.72-1.3,1.89-1.95,3.51-1.95
			c1.24,0,2.24,0.35,3,1.05c0.76,0.72,1.14,1.71,1.14,2.97v8.55H1539.638z"/>
		<path d="M1545.068,63.938c0,1.68,0.45,3.011,1.351,3.99c0.939,1,2.229,1.5,3.87,1.5c0.84,0,1.6-0.14,2.279-0.42
			c0.86-0.36,1.63-1.09,2.311-2.19l1.109,0.51c-0.779,1.48-1.979,2.48-3.6,3c-0.62,0.2-1.32,0.3-2.1,0.3
			c-1.86,0-3.391-0.61-4.591-1.83c-1.22-1.22-1.83-2.75-1.83-4.59c0-1.86,0.601-3.39,1.801-4.59c1.22-1.22,2.76-1.83,4.62-1.83
			c1.84,0,3.359,0.57,4.56,1.71c1.22,1.14,1.83,2.621,1.83,4.44H1545.068z M1553.528,60.008c-0.94-0.68-2.02-1.02-3.239-1.02
			c-2.561,0-4.241,1.26-5.04,3.78h10.05C1555.098,61.628,1554.508,60.708,1553.528,60.008z"/>
		<path d="M1567.869,70.388v-7.41c0-2.62-1.181-3.93-3.54-3.93c-1.16,0-2.04,0.34-2.641,1.02c-0.62,0.68-0.93,1.61-0.93,2.79v7.53
			h-1.229v-12.39h1.229v1.5c0.56-1.1,1.75-1.65,3.57-1.65c1.54,0,2.72,0.44,3.54,1.32c0.819,0.88,1.229,2.11,1.229,3.69v7.53
			H1567.869z"/>
		<path d="M1574.917,59.228v11.16h-1.229v-11.16h-1.681v-1.23h1.681v-5.43h1.229v5.43h2.88v1.23H1574.917z"/>
	</g>
</g>
<g>
	
		<rect x="773.725" y="179.874" fill="#EEEDED" stroke="#010202" stroke-width="0.3" stroke-miterlimit="10" width="237.205" height="42.144"/>
	<g>
		<path d="M790.608,208.725c-1.24,1.24-2.76,1.86-4.56,1.86c-2.061,0-3.75-0.83-5.07-2.49v2.28h-1.229v-22.2h1.229v12.12
			c1.3-1.66,2.99-2.49,5.07-2.49c1.8,0,3.31,0.61,4.53,1.83c1.239,1.241,1.859,2.76,1.859,4.56
			C792.438,205.995,791.828,207.505,790.608,208.725z M789.708,200.535c-1.021-1.02-2.24-1.53-3.66-1.53c-1.44,0-2.66,0.5-3.66,1.5
			c-1.021,1.02-1.53,2.25-1.53,3.69c0,1.42,0.51,2.64,1.53,3.66c1.02,1.02,2.239,1.53,3.66,1.53c1.439,0,2.659-0.5,3.66-1.5
			c1.02-1.02,1.529-2.25,1.529-3.69C791.238,202.775,790.728,201.555,789.708,200.535z"/>
		<path d="M805.608,208.725c-1.24,1.24-2.76,1.86-4.56,1.86c-1.801,0-3.311-0.61-4.53-1.83c-1.24-1.24-1.86-2.76-1.86-4.56
			c0-1.78,0.62-3.29,1.86-4.53c1.22-1.26,2.729-1.89,4.53-1.89c1.779,0,3.289,0.62,4.529,1.86c1.24,1.241,1.86,2.76,1.86,4.56
			C807.438,205.995,806.828,207.505,805.608,208.725z M804.738,200.504c-1-1.02-2.23-1.53-3.689-1.53c-1.4,0-2.61,0.52-3.631,1.56
			c-1.04,1.04-1.56,2.26-1.56,3.66c0,1.42,0.51,2.64,1.53,3.66c1.02,1.02,2.239,1.53,3.66,1.53c1.439,0,2.659-0.5,3.659-1.5
			c1.021-1.02,1.53-2.25,1.53-3.69C806.238,202.735,805.738,201.505,804.738,200.504z"/>
		<path d="M812.387,199.214v11.16h-1.229v-11.16h-1.681v-1.23h1.681v-5.43h1.229v5.43h2.88v1.23H812.387z"/>
		<path d="M818.567,201.705c-0.22,0-0.449-0.09-0.689-0.27c-0.18-0.18-0.28-0.42-0.3-0.72c0-0.54,0.33-0.87,0.989-0.99
			c0.5,0,0.83,0.33,0.99,0.99C819.557,201.375,819.227,201.705,818.567,201.705z M818.567,210.555c-0.22,0-0.449-0.09-0.689-0.27
			c-0.18-0.18-0.28-0.42-0.3-0.72c0-0.54,0.33-0.87,0.989-0.99c0.5,0,0.83,0.33,0.99,0.99
			C819.557,210.225,819.227,210.555,818.567,210.555z"/>
		<path d="M833.327,210.375v-2.13c-1.3,1.56-2.95,2.34-4.949,2.34c-1.801,0-3.311-0.61-4.53-1.83c-1.24-1.24-1.86-2.76-1.86-4.56
			c0-1.8,0.61-3.31,1.83-4.53c1.24-1.24,2.76-1.86,4.561-1.86c1.979,0,3.63,0.78,4.949,2.34v-2.16h1.23v12.39H833.327z
			 M832.037,200.535c-1.02-1.02-2.24-1.53-3.659-1.53c-1.44,0-2.66,0.5-3.66,1.5c-1.021,1.02-1.53,2.25-1.53,3.69
			c0,1.42,0.51,2.64,1.53,3.66c1.02,1.02,2.239,1.53,3.66,1.53c1.439,0,2.659-0.5,3.659-1.5c1.021-1.02,1.53-2.25,1.53-3.69
			C833.567,202.775,833.057,201.555,832.037,200.535z"/>
		<path d="M848.957,210.375v-2.22c-1.319,1.62-3,2.43-5.04,2.43c-1.8,0-3.31-0.61-4.529-1.83c-1.24-1.24-1.86-2.76-1.86-4.56
			c0-1.8,0.609-3.31,1.83-4.53c1.239-1.24,2.76-1.86,4.56-1.86c1.98,0,3.66,0.81,5.04,2.43v-12.06h1.23v22.2H848.957z
			 M847.577,200.535c-1.02-1.02-2.24-1.53-3.66-1.53c-1.439,0-2.66,0.5-3.66,1.5c-1.02,1.02-1.529,2.25-1.529,3.69
			c0,1.42,0.51,2.64,1.529,3.66c1.021,1.02,2.24,1.53,3.66,1.53c1.44,0,2.66-0.5,3.66-1.5c1.021-1.02,1.53-2.25,1.53-3.69
			C849.107,202.775,848.597,201.555,847.577,200.535z"/>
		<path d="M854.687,195.765c-0.221,0-0.45-0.09-0.69-0.27c-0.18-0.18-0.28-0.42-0.3-0.72c0-0.54,0.33-0.87,0.99-0.99
			c0.499,0,0.829,0.33,0.989,0.99C855.676,195.435,855.347,195.765,854.687,195.765z M854.086,215.774v-17.79h1.23v17.79H854.086z"
			/>
		<path d="M869.806,210.375v-2.13c-1.3,1.56-2.95,2.34-4.949,2.34c-1.801,0-3.311-0.61-4.53-1.83c-1.24-1.24-1.86-2.76-1.86-4.56
			c0-1.8,0.61-3.31,1.83-4.53c1.24-1.24,2.76-1.86,4.561-1.86c1.979,0,3.63,0.78,4.949,2.34v-2.16h1.23v12.39H869.806z
			 M868.516,200.535c-1.02-1.02-2.24-1.53-3.659-1.53c-1.44,0-2.66,0.5-3.66,1.5c-1.021,1.02-1.53,2.25-1.53,3.69
			c0,1.42,0.51,2.64,1.53,3.66c1.02,1.02,2.239,1.53,3.66,1.53c1.439,0,2.659-0.5,3.659-1.5c1.021-1.02,1.53-2.25,1.53-3.69
			C870.046,202.775,869.537,201.555,868.516,200.535z"/>
		<path d="M880.546,210.615c-1.841,0-3.37-0.61-4.59-1.83c-1.221-1.22-1.83-2.75-1.83-4.59c0-1.84,0.609-3.37,1.83-4.59
			c1.22-1.22,2.749-1.83,4.59-1.83c1.58,0,2.84,0.36,3.78,1.08v1.47l-0.78-0.51l-0.84-0.45c-0.761-0.26-1.48-0.39-2.16-0.39
			c-1.54,0-2.79,0.48-3.75,1.44c-0.98,0.98-1.47,2.24-1.47,3.78c0,1.521,0.489,2.771,1.47,3.75c0.979,0.98,2.229,1.47,3.75,1.47
			c1.439,0,2.7-0.48,3.78-1.44v1.53C883.206,210.245,881.946,210.615,880.546,210.615z"/>
		<path d="M886.306,203.924c0,1.68,0.45,3.011,1.351,3.99c0.939,1,2.229,1.5,3.87,1.5c0.84,0,1.6-0.14,2.279-0.42
			c0.86-0.36,1.63-1.09,2.311-2.19l1.109,0.51c-0.779,1.48-1.979,2.48-3.6,3c-0.62,0.2-1.32,0.3-2.1,0.3
			c-1.86,0-3.391-0.61-4.591-1.83c-1.22-1.22-1.83-2.75-1.83-4.59c0-1.86,0.601-3.39,1.801-4.59c1.22-1.22,2.76-1.83,4.62-1.83
			c1.84,0,3.359,0.57,4.56,1.71c1.22,1.14,1.83,2.621,1.83,4.44H886.306z M894.766,199.995c-0.94-0.68-2.02-1.02-3.239-1.02
			c-2.561,0-4.241,1.26-5.04,3.78h10.05C896.336,201.615,895.747,200.695,894.766,199.995z"/>
		<path d="M909.106,210.375v-7.41c0-2.62-1.181-3.93-3.54-3.93c-1.16,0-2.04,0.34-2.641,1.02c-0.62,0.68-0.93,1.61-0.93,2.79v7.53
			h-1.229v-12.39h1.229v1.5c0.56-1.1,1.75-1.65,3.57-1.65c1.54,0,2.72,0.44,3.54,1.32c0.819,0.88,1.229,2.11,1.229,3.69v7.53
			H909.106z"/>
		<path d="M916.155,199.214v11.16h-1.229v-11.16h-1.681v-1.23h1.681v-5.43h1.229v5.43h2.88v1.23H916.155z"/>
		<path d="M921.945,210.375v-21.42h10.29v1.23h-9.06v7.8h9.06v1.32h-9.06v9.84h9.06v1.23H921.945z"/>
		<path d="M934.784,210.375v-22.2h1.2v22.2H934.784z"/>
		<path d="M940.454,203.924c0,1.68,0.45,3.011,1.351,3.99c0.939,1,2.229,1.5,3.87,1.5c0.84,0,1.6-0.14,2.279-0.42
			c0.86-0.36,1.63-1.09,2.311-2.19l1.109,0.51c-0.779,1.48-1.979,2.48-3.6,3c-0.62,0.2-1.32,0.3-2.1,0.3
			c-1.86,0-3.391-0.61-4.591-1.83c-1.22-1.22-1.83-2.75-1.83-4.59c0-1.86,0.601-3.39,1.801-4.59c1.22-1.22,2.76-1.83,4.62-1.83
			c1.84,0,3.359,0.57,4.56,1.71c1.22,1.14,1.83,2.621,1.83,4.44H940.454z M948.914,199.995c-0.94-0.68-2.02-1.02-3.239-1.02
			c-2.561,0-4.241,1.26-5.04,3.78h10.05C950.484,201.615,949.894,200.695,948.914,199.995z"/>
		<path d="M969.013,210.375v-8.55c0-0.76-0.25-1.42-0.75-1.98s-1.221-0.84-2.16-0.84c-1.94,0-2.91,0.94-2.91,2.82v8.55h-1.229v-8.55
			c0-0.84-0.28-1.51-0.84-2.01c-0.581-0.54-1.271-0.81-2.07-0.81c-0.82,0-1.511,0.26-2.07,0.78c-0.56,0.5-0.84,1.18-0.84,2.04v8.55
			h-1.229v-12.39h1.229v1.23c0.6-0.939,1.57-1.41,2.91-1.41c1.6,0,2.779,0.65,3.54,1.95c0.72-1.3,1.89-1.95,3.51-1.95
			c1.24,0,2.24,0.35,3,1.05c0.76,0.72,1.14,1.71,1.14,2.97v8.55H969.013z"/>
		<path d="M974.443,203.924c0,1.68,0.45,3.011,1.351,3.99c0.939,1,2.229,1.5,3.87,1.5c0.84,0,1.6-0.14,2.279-0.42
			c0.86-0.36,1.63-1.09,2.311-2.19l1.109,0.51c-0.779,1.48-1.979,2.48-3.6,3c-0.62,0.2-1.32,0.3-2.1,0.3
			c-1.86,0-3.391-0.61-4.591-1.83c-1.22-1.22-1.83-2.75-1.83-4.59c0-1.86,0.601-3.39,1.801-4.59c1.22-1.22,2.76-1.83,4.62-1.83
			c1.84,0,3.359,0.57,4.56,1.71c1.22,1.14,1.83,2.621,1.83,4.44H974.443z M982.903,199.995c-0.94-0.68-2.02-1.02-3.239-1.02
			c-2.561,0-4.241,1.26-5.04,3.78h10.05C984.473,201.615,983.883,200.695,982.903,199.995z"/>
		<path d="M997.244,210.375v-7.41c0-2.62-1.181-3.93-3.54-3.93c-1.16,0-2.04,0.34-2.641,1.02c-0.62,0.68-0.93,1.61-0.93,2.79v7.53
			h-1.229v-12.39h1.229v1.5c0.56-1.1,1.75-1.65,3.57-1.65c1.54,0,2.72,0.44,3.54,1.32c0.819,0.88,1.229,2.11,1.229,3.69v7.53
			H997.244z"/>
		<path d="M1004.292,199.214v11.16h-1.229v-11.16h-1.681v-1.23h1.681v-5.43h1.229v5.43h2.88v1.23H1004.292z"/>
	</g>
</g>
<g opacity="0.7">
	<rect x="24.68" y="59.251" fill="none" width="344.98" height="48.684"/>
	<path fill="#010202" d="M281.073,79.8c-1.24,1.24-2.762,1.86-4.561,1.86c-2.061,0-3.75-0.83-5.07-2.49v2.28h-1.23v-22.2h1.23v12.12
		c1.301-1.66,2.99-2.49,5.07-2.49c1.799,0,3.311,0.61,4.529,1.83c1.24,1.24,1.861,2.76,1.861,4.561
		C282.903,77.071,282.292,78.581,281.073,79.8z M280.172,71.611c-1.02-1.021-2.24-1.53-3.66-1.53c-1.439,0-2.66,0.5-3.66,1.5
		c-1.02,1.021-1.529,2.25-1.529,3.69c0,1.42,0.51,2.64,1.529,3.66c1.02,1.02,2.24,1.528,3.66,1.528c1.439,0,2.66-0.499,3.66-1.5
		c1.02-1.021,1.529-2.25,1.529-3.688C281.702,73.851,281.192,72.63,280.172,71.611z"/>
	<path fill="#010202" d="M296.073,79.8c-1.24,1.24-2.762,1.86-4.561,1.86c-1.801,0-3.311-0.608-4.529-1.83
		c-1.24-1.239-1.861-2.76-1.861-4.56c0-1.78,0.621-3.291,1.861-4.53c1.219-1.261,2.729-1.89,4.529-1.89
		c1.779,0,3.289,0.619,4.529,1.858c1.24,1.24,1.861,2.761,1.861,4.562C297.903,77.071,297.292,78.581,296.073,79.8z M295.202,71.581
		c-1-1.021-2.23-1.53-3.689-1.53c-1.4,0-2.609,0.521-3.631,1.562c-1.039,1.04-1.559,2.26-1.559,3.659c0,1.421,0.51,2.641,1.529,3.66
		c1.02,1.021,2.24,1.529,3.66,1.529c1.439,0,2.66-0.499,3.66-1.5c1.02-1.02,1.529-2.25,1.529-3.689
		C296.702,73.81,296.202,72.581,295.202,71.581z"/>
	<path fill="#010202" d="M302.85,70.291v11.16h-1.229v-11.16h-1.68v-1.229h1.68V63.63h1.229v5.432h2.881v1.229H302.85z"/>
	<path fill="#010202" d="M309.032,72.781c-0.221,0-0.449-0.09-0.689-0.271c-0.18-0.18-0.281-0.42-0.301-0.72
		c0-0.54,0.33-0.87,0.99-0.989c0.5,0,0.83,0.329,0.99,0.989C310.02,72.451,309.692,72.781,309.032,72.781z M309.032,81.63
		c-0.221,0-0.449-0.09-0.689-0.27c-0.18-0.18-0.281-0.42-0.301-0.721c0-0.539,0.33-0.869,0.99-0.989c0.5,0,0.83,0.329,0.99,0.989
		C310.02,81.3,309.692,81.63,309.032,81.63z"/>
	<path fill="#010202" d="M314.76,80.22H327v1.23h-14.43l12.27-20.16h-11.549v-1.26h13.77L314.76,80.22z"/>
	<path fill="#010202" d="M338.491,79.8c-1.24,1.24-2.76,1.86-4.561,1.86c-1.799,0-3.309-0.608-4.529-1.83
		c-1.24-1.239-1.859-2.76-1.859-4.56c0-1.78,0.619-3.291,1.859-4.53c1.221-1.261,2.73-1.89,4.529-1.89
		c1.781,0,3.291,0.619,4.531,1.858c1.24,1.24,1.859,2.761,1.859,4.562C340.321,77.071,339.711,78.581,338.491,79.8z M337.622,71.581
		c-1-1.021-2.23-1.53-3.691-1.53c-1.398,0-2.609,0.521-3.629,1.562c-1.041,1.04-1.561,2.26-1.561,3.659
		c0,1.421,0.51,2.641,1.529,3.66c1.021,1.021,2.24,1.529,3.66,1.529c1.441,0,2.66-0.499,3.66-1.5c1.021-1.02,1.531-2.25,1.531-3.689
		C339.122,73.81,338.622,72.581,337.622,71.581z"/>
	<path fill="#010202" d="M351.75,81.451v-7.41c0-2.62-1.18-3.93-3.541-3.93c-1.16,0-2.039,0.34-2.639,1.02
		c-0.621,0.682-0.932,1.61-0.932,2.79v7.53h-1.229V69.06h1.229v1.5c0.561-1.1,1.75-1.649,3.57-1.649c1.541,0,2.721,0.44,3.541,1.319
		c0.82,0.881,1.229,2.111,1.229,3.689v7.53L351.75,81.451L351.75,81.451z"/>
	<path fill="#010202" d="M357.18,75c0,1.681,0.449,3.011,1.35,3.99c0.939,1,2.23,1.5,3.871,1.5c0.84,0,1.6-0.14,2.279-0.42
		c0.859-0.36,1.629-1.091,2.311-2.19l1.109,0.512c-0.779,1.479-1.98,2.479-3.6,3c-0.621,0.199-1.32,0.3-2.1,0.3
		c-1.861,0-3.391-0.61-4.592-1.83c-1.219-1.22-1.83-2.75-1.83-4.591c0-1.859,0.602-3.391,1.801-4.59
		c1.221-1.22,2.76-1.83,4.621-1.83c1.84,0,3.359,0.569,4.559,1.711c1.221,1.14,1.83,2.619,1.83,4.438H357.18z M365.639,71.071
		c-0.939-0.681-2.02-1.021-3.238-1.021c-2.561,0-4.24,1.26-5.041,3.779h10.051C367.209,72.691,366.62,71.771,365.639,71.071z"/>
</g>
<g>
	<path d="M201.743,119.972c-2.067,2.067-4.6,3.1-7.6,3.1c-3.434,0-6.25-1.383-8.45-4.15v3.8h-2.05v-37h2.05v20.2
		c2.167-2.767,4.983-4.15,8.45-4.15c3,0,5.517,1.018,7.55,3.05c2.066,2.067,3.1,4.6,3.1,7.6S203.776,117.939,201.743,119.972z
		 M200.243,106.322c-1.7-1.7-3.734-2.55-6.1-2.55c-2.4,0-4.434,0.834-6.1,2.5c-1.7,1.7-2.55,3.75-2.55,6.15
		c0,2.367,0.85,4.4,2.55,6.1c1.7,1.7,3.733,2.55,6.1,2.55c2.4,0,4.433-0.833,6.1-2.5c1.7-1.7,2.55-3.75,2.55-6.15
		C202.793,110.055,201.943,108.021,200.243,106.322z"/>
	<path d="M226.743,119.972c-2.067,2.067-4.6,3.1-7.6,3.1s-5.517-1.017-7.55-3.05c-2.067-2.066-3.1-4.6-3.1-7.6
		c0-2.967,1.033-5.483,3.1-7.55c2.033-2.1,4.55-3.15,7.55-3.15c2.966,0,5.483,1.034,7.55,3.1c2.066,2.067,3.1,4.6,3.1,7.6
		S228.776,117.939,226.743,119.972z M225.293,106.271c-1.667-1.7-3.717-2.55-6.15-2.55c-2.333,0-4.35,0.867-6.05,2.6
		c-1.734,1.733-2.6,3.767-2.6,6.1c0,2.367,0.85,4.4,2.55,6.1c1.7,1.7,3.733,2.55,6.1,2.55c2.4,0,4.433-0.833,6.1-2.5
		c1.7-1.7,2.55-3.75,2.55-6.15C227.793,109.989,226.959,107.939,225.293,106.271z"/>
	<path d="M238.042,104.122v18.6h-2.05v-18.6h-2.8v-2.05h2.8v-9.05h2.05v9.05h4.8v2.05H238.042z"/>
	<path d="M248.343,108.271c-0.367,0-0.75-0.15-1.15-0.45c-0.3-0.3-0.467-0.7-0.5-1.2c0-0.9,0.55-1.45,1.65-1.65
		c0.833,0,1.383,0.55,1.65,1.65C249.993,107.722,249.442,108.271,248.343,108.271z M248.343,123.021c-0.367,0-0.75-0.15-1.15-0.45
		c-0.3-0.3-0.467-0.7-0.5-1.2c0-0.9,0.55-1.45,1.65-1.65c0.833,0,1.383,0.55,1.65,1.65
		C249.993,122.472,249.442,123.021,248.343,123.021z"/>
	<path d="M269.442,122.422c-1.3,0.466-2.833,0.7-4.6,0.7c-5.467,0-8.983-2.583-10.55-7.75l2.05-0.7c1.167,4.267,4,6.4,8.5,6.4
		c2.566,0,4.583-0.633,6.05-1.9c1.5-1.3,2.25-3.2,2.25-5.7c0-2.366-0.884-4.333-2.65-5.9c-0.467-0.433-1.184-0.917-2.15-1.45
		c-0.967-0.533-2.2-1.133-3.7-1.8c-2.833-1.267-4.767-2.367-5.8-3.3c-1.733-1.5-2.6-3.482-2.6-5.95c0-2.466,0.883-4.45,2.65-5.95
		c1.733-1.533,3.866-2.3,6.4-2.3c4.2,0,7.167,1.567,8.9,4.7l-1.95,0.85c-0.667-1.1-1.467-1.917-2.4-2.45
		c-1.167-0.733-2.684-1.1-4.55-1.1c-1.967,0-3.6,0.55-4.9,1.65c-1.4,1.167-2.1,2.7-2.1,4.6c0,1.7,0.733,3.184,2.2,4.45
		c0.833,0.667,2.5,1.567,5,2.7c1.566,0.7,2.916,1.392,4.05,2.075c1.133,0.684,2.05,1.375,2.75,2.075c1.933,1.9,2.9,4.267,2.9,7.1
		C275.192,118.005,273.275,120.989,269.442,122.422z"/>
	<path d="M298.542,119.972c-2.067,2.067-4.6,3.1-7.6,3.1c-3.434,0-6.267-1.4-8.5-4.2v13.55h-2.05v-30.35h2.05v3.9
		c2.133-2.8,4.966-4.2,8.5-4.2c3,0,5.517,1.018,7.55,3.05c2.066,2.067,3.1,4.6,3.1,7.6S300.575,117.939,298.542,119.972z
		 M297.042,106.322c-1.7-1.7-3.734-2.55-6.1-2.55c-2.4,0-4.434,0.834-6.1,2.5c-1.7,1.7-2.55,3.75-2.55,6.15
		c0,2.367,0.85,4.4,2.55,6.1c1.7,1.7,3.733,2.55,6.1,2.55c2.4,0,4.433-0.833,6.1-2.5c1.7-1.7,2.55-3.75,2.55-6.15
		C299.592,110.055,298.742,108.021,297.042,106.322z"/>
	<path d="M323.491,122.722v-3.55c-2.167,2.6-4.917,3.9-8.25,3.9c-3,0-5.517-1.017-7.55-3.05c-2.067-2.066-3.1-4.6-3.1-7.6
		s1.017-5.517,3.05-7.55c2.066-2.066,4.6-3.1,7.6-3.1c3.3,0,6.05,1.3,8.25,3.9v-3.6h2.05v20.65H323.491z M321.341,106.322
		c-1.7-1.7-3.733-2.55-6.1-2.55c-2.4,0-4.434,0.834-6.1,2.5c-1.7,1.7-2.55,3.75-2.55,6.15c0,2.367,0.85,4.4,2.55,6.1
		c1.7,1.7,3.733,2.55,6.1,2.55c2.4,0,4.433-0.833,6.1-2.5c1.7-1.7,2.55-3.75,2.55-6.15
		C323.891,110.055,323.042,108.021,321.341,106.322z"/>
	<path d="M341.391,123.122c-3.067,0-5.617-1.016-7.65-3.05c-2.034-2.033-3.05-4.583-3.05-7.65c0-3.066,1.016-5.617,3.05-7.65
		c2.033-2.033,4.583-3.05,7.65-3.05c2.633,0,4.733,0.6,6.3,1.8v2.45l-1.3-0.85l-1.4-0.75c-1.267-0.433-2.467-0.65-3.6-0.65
		c-2.567,0-4.65,0.8-6.25,2.4c-1.633,1.634-2.45,3.734-2.45,6.3c0,2.533,0.816,4.617,2.45,6.25c1.633,1.633,3.717,2.45,6.25,2.45
		c2.4,0,4.5-0.8,6.3-2.4v2.55C345.824,122.505,343.724,123.122,341.391,123.122z"/>
	<path d="M350.991,111.972c0,2.8,0.75,5.017,2.25,6.65c1.566,1.667,3.716,2.5,6.45,2.5c1.4,0,2.667-0.233,3.8-0.7
		c1.433-0.6,2.716-1.816,3.85-3.65l1.85,0.85c-1.3,2.467-3.3,4.134-6,5c-1.034,0.333-2.2,0.5-3.5,0.5c-3.1,0-5.65-1.016-7.65-3.05
		c-2.034-2.033-3.05-4.583-3.05-7.65c0-3.1,1-5.65,3-7.65c2.033-2.033,4.6-3.05,7.7-3.05c3.066,0,5.6,0.95,7.6,2.85
		c2.033,1.9,3.05,4.367,3.05,7.4H350.991z M365.09,105.422c-1.567-1.133-3.367-1.7-5.4-1.7c-4.267,0-7.067,2.1-8.4,6.3h16.75
		C367.707,108.122,366.723,106.589,365.09,105.422z"/>
</g>
<g opacity="0.7">
	<rect x="24.68" y="204.318" fill="none" width="344.98" height="48.684"/>
	<path fill="#010202" d="M281.073,224.867c-1.24,1.24-2.762,1.86-4.561,1.86c-2.061,0-3.75-0.83-5.07-2.49v2.28h-1.23v-22.2h1.23
		v12.12c1.301-1.66,2.99-2.49,5.07-2.49c1.799,0,3.311,0.61,4.529,1.83c1.24,1.24,1.861,2.76,1.861,4.561
		C282.903,222.137,282.292,223.647,281.073,224.867z M280.172,216.677c-1.02-1.021-2.24-1.53-3.66-1.53c-1.439,0-2.66,0.5-3.66,1.5
		c-1.02,1.021-1.529,2.25-1.529,3.69c0,1.42,0.51,2.64,1.529,3.66c1.02,1.02,2.24,1.528,3.66,1.528c1.439,0,2.66-0.499,3.66-1.5
		c1.02-1.021,1.529-2.25,1.529-3.688C281.702,218.917,281.192,217.697,280.172,216.677z"/>
	<path fill="#010202" d="M296.073,224.867c-1.24,1.24-2.762,1.86-4.561,1.86c-1.801,0-3.311-0.608-4.529-1.83
		c-1.24-1.239-1.861-2.76-1.861-4.56c0-1.78,0.621-3.291,1.861-4.53c1.219-1.261,2.729-1.89,4.529-1.89
		c1.779,0,3.289,0.619,4.529,1.858c1.24,1.24,1.861,2.761,1.861,4.562C297.903,222.137,297.292,223.647,296.073,224.867z
		 M295.202,216.647c-1-1.021-2.23-1.53-3.689-1.53c-1.4,0-2.609,0.521-3.631,1.562c-1.039,1.04-1.559,2.26-1.559,3.659
		c0,1.421,0.51,2.641,1.529,3.66c1.02,1.021,2.24,1.529,3.66,1.529c1.439,0,2.66-0.499,3.66-1.5c1.02-1.02,1.529-2.25,1.529-3.689
		C296.702,218.876,296.202,217.647,295.202,216.647z"/>
	<path fill="#010202" d="M302.85,215.357v11.16h-1.229v-11.16h-1.68v-1.229h1.68v-5.432h1.229v5.432h2.881v1.229H302.85z"/>
	<path fill="#010202" d="M309.032,217.847c-0.221,0-0.449-0.09-0.689-0.271c-0.18-0.18-0.281-0.42-0.301-0.72
		c0-0.54,0.33-0.87,0.99-0.989c0.5,0,0.83,0.329,0.99,0.989C310.02,217.517,309.692,217.847,309.032,217.847z M309.032,226.697
		c-0.221,0-0.449-0.09-0.689-0.27c-0.18-0.18-0.281-0.42-0.301-0.721c0-0.539,0.33-0.869,0.99-0.989c0.5,0,0.83,0.329,0.99,0.989
		C310.02,226.367,309.692,226.697,309.032,226.697z"/>
	<path fill="#010202" d="M314.76,225.287H327v1.23h-14.43l12.27-20.16h-11.549v-1.26h13.77L314.76,225.287z"/>
	<path fill="#010202" d="M338.491,224.867c-1.24,1.24-2.76,1.86-4.561,1.86c-1.799,0-3.309-0.608-4.529-1.83
		c-1.24-1.239-1.859-2.76-1.859-4.56c0-1.78,0.619-3.291,1.859-4.53c1.221-1.261,2.73-1.89,4.529-1.89
		c1.781,0,3.291,0.619,4.531,1.858c1.24,1.24,1.859,2.761,1.859,4.562C340.321,222.137,339.711,223.647,338.491,224.867z
		 M337.622,216.647c-1-1.021-2.23-1.53-3.691-1.53c-1.398,0-2.609,0.521-3.629,1.562c-1.041,1.04-1.561,2.26-1.561,3.659
		c0,1.421,0.51,2.641,1.529,3.66c1.021,1.021,2.24,1.529,3.66,1.529c1.441,0,2.66-0.499,3.66-1.5c1.021-1.02,1.531-2.25,1.531-3.689
		C339.122,218.876,338.622,217.647,337.622,216.647z"/>
	<path fill="#010202" d="M351.75,226.517v-7.41c0-2.62-1.18-3.93-3.541-3.93c-1.16,0-2.039,0.34-2.639,1.02
		c-0.621,0.682-0.932,1.61-0.932,2.79v7.53h-1.229v-12.391h1.229v1.5c0.561-1.1,1.75-1.649,3.57-1.649
		c1.541,0,2.721,0.44,3.541,1.319c0.82,0.881,1.229,2.111,1.229,3.689v7.53L351.75,226.517L351.75,226.517z"/>
	<path fill="#010202" d="M357.18,220.067c0,1.681,0.449,3.011,1.35,3.99c0.939,1,2.23,1.5,3.871,1.5c0.84,0,1.6-0.14,2.279-0.42
		c0.859-0.36,1.629-1.091,2.311-2.19l1.109,0.512c-0.779,1.479-1.98,2.479-3.6,3c-0.621,0.199-1.32,0.3-2.1,0.3
		c-1.861,0-3.391-0.61-4.592-1.83c-1.219-1.22-1.83-2.75-1.83-4.591c0-1.859,0.602-3.391,1.801-4.59
		c1.221-1.22,2.76-1.83,4.621-1.83c1.84,0,3.359,0.569,4.559,1.711c1.221,1.14,1.83,2.619,1.83,4.438H357.18z M365.639,216.137
		c-0.939-0.681-2.02-1.021-3.238-1.021c-2.561,0-4.24,1.26-5.041,3.779h10.051C367.209,217.757,366.62,216.837,365.639,216.137z"/>
</g>
<g>
	<path d="M201.743,265.038c-2.067,2.067-4.6,3.1-7.6,3.1c-3.434,0-6.25-1.383-8.45-4.15v3.8h-2.05v-37h2.05v20.2
		c2.167-2.767,4.983-4.15,8.45-4.15c3,0,5.517,1.018,7.55,3.05c2.066,2.067,3.1,4.6,3.1,7.6S203.776,263.005,201.743,265.038z
		 M200.243,251.388c-1.7-1.7-3.734-2.55-6.1-2.55c-2.4,0-4.434,0.834-6.1,2.5c-1.7,1.7-2.55,3.75-2.55,6.15
		c0,2.367,0.85,4.4,2.55,6.1c1.7,1.7,3.733,2.55,6.1,2.55c2.4,0,4.433-0.833,6.1-2.5c1.7-1.7,2.55-3.75,2.55-6.15
		C202.793,255.122,201.943,253.088,200.243,251.388z"/>
	<path d="M226.743,265.038c-2.067,2.067-4.6,3.1-7.6,3.1s-5.517-1.017-7.55-3.05c-2.067-2.066-3.1-4.6-3.1-7.6
		c0-2.967,1.033-5.483,3.1-7.55c2.033-2.1,4.55-3.15,7.55-3.15c2.966,0,5.483,1.034,7.55,3.1c2.066,2.067,3.1,4.6,3.1,7.6
		S228.776,263.005,226.743,265.038z M225.293,251.338c-1.667-1.7-3.717-2.55-6.15-2.55c-2.333,0-4.35,0.867-6.05,2.6
		c-1.734,1.733-2.6,3.767-2.6,6.1c0,2.367,0.85,4.4,2.55,6.1c1.7,1.7,3.733,2.55,6.1,2.55c2.4,0,4.433-0.833,6.1-2.5
		c1.7-1.7,2.55-3.75,2.55-6.15C227.793,255.055,226.959,253.005,225.293,251.338z"/>
	<path d="M238.042,249.188v18.6h-2.05v-18.6h-2.8v-2.05h2.8v-9.05h2.05v9.05h4.8v2.05H238.042z"/>
	<path d="M248.343,253.338c-0.367,0-0.75-0.15-1.15-0.45c-0.3-0.3-0.467-0.7-0.5-1.2c0-0.9,0.55-1.45,1.65-1.65
		c0.833,0,1.383,0.55,1.65,1.65C249.993,252.788,249.442,253.338,248.343,253.338z M248.343,268.088c-0.367,0-0.75-0.15-1.15-0.45
		c-0.3-0.3-0.467-0.7-0.5-1.2c0-0.9,0.55-1.45,1.65-1.65c0.833,0,1.383,0.55,1.65,1.65
		C249.993,267.538,249.442,268.088,248.343,268.088z"/>
	<path d="M269.442,267.488c-1.3,0.466-2.833,0.7-4.6,0.7c-5.467,0-8.983-2.583-10.55-7.75l2.05-0.7c1.167,4.267,4,6.4,8.5,6.4
		c2.566,0,4.583-0.633,6.05-1.9c1.5-1.3,2.25-3.2,2.25-5.7c0-2.366-0.884-4.333-2.65-5.9c-0.467-0.433-1.184-0.917-2.15-1.45
		c-0.967-0.533-2.2-1.133-3.7-1.8c-2.833-1.267-4.767-2.367-5.8-3.3c-1.733-1.5-2.6-3.482-2.6-5.95c0-2.466,0.883-4.45,2.65-5.95
		c1.733-1.533,3.866-2.3,6.4-2.3c4.2,0,7.167,1.567,8.9,4.7l-1.95,0.85c-0.667-1.1-1.467-1.917-2.4-2.45
		c-1.167-0.733-2.684-1.1-4.55-1.1c-1.967,0-3.6,0.55-4.9,1.65c-1.4,1.167-2.1,2.7-2.1,4.6c0,1.7,0.733,3.184,2.2,4.45
		c0.833,0.667,2.5,1.567,5,2.7c1.566,0.7,2.916,1.392,4.05,2.075c1.133,0.684,2.05,1.375,2.75,2.075c1.933,1.9,2.9,4.267,2.9,7.1
		C275.192,263.072,273.275,266.055,269.442,267.488z"/>
	<path d="M298.542,265.038c-2.067,2.067-4.6,3.1-7.6,3.1c-3.434,0-6.267-1.4-8.5-4.2v13.55h-2.05v-30.35h2.05v3.9
		c2.133-2.8,4.966-4.2,8.5-4.2c3,0,5.517,1.018,7.55,3.05c2.066,2.067,3.1,4.6,3.1,7.6S300.575,263.005,298.542,265.038z
		 M297.042,251.388c-1.7-1.7-3.734-2.55-6.1-2.55c-2.4,0-4.434,0.834-6.1,2.5c-1.7,1.7-2.55,3.75-2.55,6.15
		c0,2.367,0.85,4.4,2.55,6.1c1.7,1.7,3.733,2.55,6.1,2.55c2.4,0,4.433-0.833,6.1-2.5c1.7-1.7,2.55-3.75,2.55-6.15
		C299.592,255.122,298.742,253.088,297.042,251.388z"/>
	<path d="M323.491,267.788v-3.55c-2.167,2.6-4.917,3.9-8.25,3.9c-3,0-5.517-1.017-7.55-3.05c-2.067-2.066-3.1-4.6-3.1-7.6
		s1.017-5.517,3.05-7.55c2.066-2.066,4.6-3.1,7.6-3.1c3.3,0,6.05,1.3,8.25,3.9v-3.6h2.05v20.65H323.491z M321.341,251.388
		c-1.7-1.7-3.733-2.55-6.1-2.55c-2.4,0-4.434,0.834-6.1,2.5c-1.7,1.7-2.55,3.75-2.55,6.15c0,2.367,0.85,4.4,2.55,6.1
		c1.7,1.7,3.733,2.55,6.1,2.55c2.4,0,4.433-0.833,6.1-2.5c1.7-1.7,2.55-3.75,2.55-6.15
		C323.891,255.122,323.042,253.088,321.341,251.388z"/>
	<path d="M341.391,268.188c-3.067,0-5.617-1.016-7.65-3.05c-2.034-2.033-3.05-4.583-3.05-7.65c0-3.066,1.016-5.617,3.05-7.65
		c2.033-2.033,4.583-3.05,7.65-3.05c2.633,0,4.733,0.6,6.3,1.8v2.45l-1.3-0.85l-1.4-0.75c-1.267-0.433-2.467-0.65-3.6-0.65
		c-2.567,0-4.65,0.8-6.25,2.4c-1.633,1.634-2.45,3.734-2.45,6.3c0,2.533,0.816,4.617,2.45,6.25c1.633,1.633,3.717,2.45,6.25,2.45
		c2.4,0,4.5-0.8,6.3-2.4v2.55C345.824,267.572,343.724,268.188,341.391,268.188z"/>
	<path d="M350.991,257.038c0,2.8,0.75,5.017,2.25,6.65c1.566,1.667,3.716,2.5,6.45,2.5c1.4,0,2.667-0.233,3.8-0.7
		c1.433-0.6,2.716-1.816,3.85-3.65l1.85,0.85c-1.3,2.467-3.3,4.134-6,5c-1.034,0.333-2.2,0.5-3.5,0.5c-3.1,0-5.65-1.016-7.65-3.05
		c-2.034-2.033-3.05-4.583-3.05-7.65c0-3.1,1-5.65,3-7.65c2.033-2.033,4.6-3.05,7.7-3.05c3.066,0,5.6,0.95,7.6,2.85
		c2.033,1.9,3.05,4.367,3.05,7.4H350.991z M365.09,250.488c-1.567-1.133-3.367-1.7-5.4-1.7c-4.267,0-7.067,2.1-8.4,6.3h16.75
		C367.707,253.188,366.723,251.655,365.09,250.488z"/>
</g>
<g opacity="0.7">
	<rect x="24.68" y="592.264" fill="none" width="344.98" height="48.684"/>
	<path fill="#010202" d="M281.073,612.813c-1.24,1.24-2.762,1.859-4.561,1.859c-2.061,0-3.75-0.83-5.07-2.49v2.281h-1.23v-22.201
		h1.23v12.121c1.301-1.66,2.99-2.49,5.07-2.49c1.799,0,3.311,0.609,4.529,1.83c1.24,1.24,1.861,2.76,1.861,4.561
		C282.903,610.083,282.292,611.592,281.073,612.813z M280.172,604.624c-1.02-1.021-2.24-1.531-3.66-1.531
		c-1.439,0-2.66,0.5-3.66,1.5c-1.02,1.021-1.529,2.25-1.529,3.691c0,1.42,0.51,2.639,1.529,3.66c1.02,1.02,2.24,1.527,3.66,1.527
		c1.439,0,2.66-0.498,3.66-1.5c1.02-1.02,1.529-2.25,1.529-3.688C281.702,606.864,281.192,605.643,280.172,604.624z"/>
	<path fill="#010202" d="M296.073,612.813c-1.24,1.24-2.762,1.859-4.561,1.859c-1.801,0-3.311-0.607-4.529-1.83
		c-1.24-1.238-1.861-2.76-1.861-4.559c0-1.781,0.621-3.291,1.861-4.531c1.219-1.26,2.729-1.889,4.529-1.889
		c1.779,0,3.289,0.619,4.529,1.857c1.24,1.24,1.861,2.762,1.861,4.563C297.903,610.083,297.292,611.592,296.073,612.813z
		 M295.202,604.592c-1-1.02-2.23-1.529-3.689-1.529c-1.4,0-2.609,0.521-3.631,1.561c-1.039,1.041-1.559,2.26-1.559,3.66
		c0,1.42,0.51,2.641,1.529,3.66s2.24,1.529,3.66,1.529c1.439,0,2.66-0.5,3.66-1.5c1.02-1.02,1.529-2.25,1.529-3.689
		C296.702,606.823,296.202,605.592,295.202,604.592z"/>
	<path fill="#010202" d="M302.85,603.303v11.16h-1.229v-11.16h-1.68v-1.229h1.68v-5.432h1.229v5.432h2.881v1.229H302.85z"/>
	<path fill="#010202" d="M309.032,605.793c-0.221,0-0.449-0.09-0.689-0.271c-0.18-0.18-0.281-0.42-0.301-0.721
		c0-0.539,0.33-0.869,0.99-0.988c0.5,0,0.83,0.328,0.99,0.988C310.02,605.463,309.692,605.793,309.032,605.793z M309.032,614.643
		c-0.221,0-0.449-0.09-0.689-0.27c-0.18-0.18-0.281-0.42-0.301-0.721c0-0.539,0.33-0.869,0.99-0.99c0.5,0,0.83,0.33,0.99,0.99
		C310.02,614.313,309.692,614.643,309.032,614.643z"/>
	<path fill="#010202" d="M314.76,613.233H327v1.23h-14.43l12.27-20.16h-11.549v-1.26h13.77L314.76,613.233z"/>
	<path fill="#010202" d="M338.491,612.813c-1.24,1.24-2.76,1.859-4.561,1.859c-1.799,0-3.309-0.607-4.529-1.83
		c-1.24-1.238-1.859-2.76-1.859-4.559c0-1.781,0.619-3.291,1.859-4.531c1.221-1.26,2.73-1.889,4.529-1.889
		c1.781,0,3.291,0.619,4.531,1.857c1.24,1.24,1.859,2.762,1.859,4.563C340.321,610.083,339.711,611.592,338.491,612.813z
		 M337.622,604.592c-1-1.02-2.23-1.529-3.691-1.529c-1.398,0-2.609,0.521-3.629,1.561c-1.041,1.041-1.561,2.26-1.561,3.66
		c0,1.42,0.51,2.641,1.529,3.66c1.021,1.02,2.24,1.529,3.66,1.529c1.441,0,2.66-0.5,3.66-1.5c1.021-1.02,1.531-2.25,1.531-3.689
		C339.122,606.823,338.622,605.592,337.622,604.592z"/>
	<path fill="#010202" d="M351.75,614.463v-7.41c0-2.621-1.18-3.93-3.541-3.93c-1.16,0-2.039,0.34-2.639,1.02
		c-0.621,0.682-0.932,1.609-0.932,2.789v7.531h-1.229v-12.391h1.229v1.5c0.561-1.1,1.75-1.65,3.57-1.65
		c1.541,0,2.721,0.441,3.541,1.32c0.82,0.881,1.229,2.111,1.229,3.689v7.529h-1.229V614.463z"/>
	<path fill="#010202" d="M357.18,608.012c0,1.682,0.449,3.012,1.35,3.99c0.939,1,2.23,1.5,3.871,1.5c0.84,0,1.6-0.139,2.279-0.42
		c0.859-0.359,1.629-1.09,2.311-2.189l1.109,0.512c-0.779,1.479-1.98,2.479-3.6,3c-0.621,0.199-1.32,0.299-2.1,0.299
		c-1.861,0-3.391-0.609-4.592-1.83c-1.219-1.219-1.83-2.75-1.83-4.59c0-1.859,0.602-3.391,1.801-4.59
		c1.221-1.221,2.76-1.83,4.621-1.83c1.84,0,3.359,0.568,4.559,1.711c1.221,1.139,1.83,2.619,1.83,4.438H357.18z M365.639,604.083
		c-0.939-0.68-2.02-1.02-3.238-1.02c-2.561,0-4.24,1.26-5.041,3.779h10.051C367.209,605.704,366.62,604.784,365.639,604.083z"/>
</g>
<g>
	<path d="M174.344,652.984c-2.067,2.067-4.6,3.101-7.6,3.101c-3.434,0-6.25-1.383-8.45-4.15v3.8h-2.05v-37h2.05v20.2
		c2.167-2.767,4.983-4.15,8.45-4.15c3,0,5.517,1.018,7.55,3.051c2.066,2.066,3.1,4.6,3.1,7.6S176.376,650.952,174.344,652.984z
		 M172.844,639.334c-1.7-1.701-3.734-2.551-6.1-2.551c-2.4,0-4.434,0.834-6.1,2.5c-1.7,1.7-2.55,3.75-2.55,6.15
		c0,2.367,0.85,4.4,2.55,6.1c1.7,1.7,3.733,2.551,6.1,2.551c2.4,0,4.433-0.834,6.1-2.5c1.7-1.701,2.55-3.75,2.55-6.15
		C175.394,643.067,174.543,641.034,172.844,639.334z"/>
	<path d="M199.344,652.984c-2.067,2.067-4.6,3.101-7.6,3.101s-5.517-1.018-7.55-3.051c-2.067-2.066-3.1-4.6-3.1-7.6
		c0-2.967,1.033-5.482,3.1-7.551c2.033-2.1,4.55-3.149,7.55-3.149c2.966,0,5.483,1.034,7.55,3.101c2.066,2.066,3.1,4.6,3.1,7.6
		S201.376,650.952,199.344,652.984z M197.894,639.284c-1.667-1.699-3.717-2.55-6.15-2.55c-2.333,0-4.35,0.867-6.05,2.601
		c-1.734,1.732-2.6,3.767-2.6,6.1c0,2.367,0.85,4.4,2.55,6.1c1.7,1.7,3.733,2.551,6.1,2.551c2.4,0,4.433-0.834,6.1-2.5
		c1.7-1.701,2.55-3.75,2.55-6.15C200.394,643,199.56,640.952,197.894,639.284z"/>
	<path d="M210.643,637.133v18.601h-2.05v-18.601h-2.8v-2.049h2.8v-9.051h2.05v9.051h4.8v2.049H210.643z"/>
	<path d="M220.943,641.284c-0.367,0-0.75-0.15-1.15-0.449c-0.3-0.301-0.467-0.701-0.5-1.201c0-0.899,0.55-1.449,1.65-1.649
		c0.833,0,1.383,0.55,1.65,1.649C222.593,640.734,222.043,641.284,220.943,641.284z M220.943,656.034c-0.367,0-0.75-0.15-1.15-0.449
		c-0.3-0.301-0.467-0.701-0.5-1.201c0-0.899,0.55-1.449,1.65-1.649c0.833,0,1.383,0.55,1.65,1.649
		C222.593,655.484,222.043,656.034,220.943,656.034z"/>
	<path d="M228.443,655.734v-35.7h17.15v2.051h-15.1v13h15.1v2.199h-15.1v16.4h15.1v2.05H228.443z"/>
	<path d="M249.843,655.734v-37h2v37H249.843z"/>
	<path d="M259.292,644.984c0,2.8,0.75,5.017,2.25,6.649c1.566,1.668,3.716,2.5,6.45,2.5c1.4,0,2.667-0.232,3.8-0.699
		c1.433-0.6,2.716-1.816,3.85-3.65l1.85,0.85c-1.3,2.468-3.3,4.135-6,5c-1.034,0.334-2.2,0.5-3.5,0.5c-3.1,0-5.65-1.016-7.65-3.049
		c-2.034-2.033-3.05-4.584-3.05-7.65c0-3.1,1-5.65,3-7.65c2.033-2.033,4.6-3.05,7.7-3.05c3.066,0,5.6,0.95,7.6,2.851
		c2.033,1.899,3.05,4.367,3.05,7.399H259.292z M273.392,638.434c-1.567-1.133-3.367-1.7-5.4-1.7c-4.267,0-7.067,2.101-8.4,6.3h16.75
		C276.008,641.133,275.024,639.601,273.392,638.434z"/>
	<path d="M306.891,655.734v-14.25c0-1.267-0.417-2.366-1.25-3.3c-0.833-0.934-2.033-1.4-3.6-1.4c-3.234,0-4.85,1.567-4.85,4.7v14.25
		h-2.05v-14.25c0-1.399-0.467-2.517-1.4-3.351c-0.967-0.899-2.117-1.35-3.45-1.35c-1.367,0-2.518,0.434-3.45,1.301
		c-0.934,0.833-1.4,1.967-1.4,3.399v14.25h-2.05v-20.649h2.05v2.049c1-1.566,2.616-2.35,4.85-2.35c2.666,0,4.633,1.084,5.9,3.25
		c1.2-2.166,3.15-3.25,5.85-3.25c2.066,0,3.732,0.584,5,1.75c1.266,1.2,1.9,2.85,1.9,4.95v14.25H306.891z"/>
	<path d="M315.941,644.984c0,2.8,0.75,5.017,2.25,6.649c1.566,1.668,3.716,2.5,6.45,2.5c1.4,0,2.667-0.232,3.8-0.699
		c1.433-0.6,2.716-1.816,3.85-3.65l1.85,0.85c-1.3,2.468-3.3,4.135-6,5c-1.034,0.334-2.2,0.5-3.5,0.5c-3.1,0-5.65-1.016-7.65-3.049
		c-2.034-2.033-3.05-4.584-3.05-7.65c0-3.1,1-5.65,3-7.65c2.033-2.033,4.6-3.05,7.7-3.05c3.066,0,5.6,0.95,7.6,2.851
		c2.033,1.899,3.05,4.367,3.05,7.399H315.941z M330.041,638.434c-1.567-1.133-3.367-1.7-5.4-1.7c-4.267,0-7.067,2.101-8.4,6.3h16.75
		C332.657,641.133,331.673,639.601,330.041,638.434z"/>
	<path d="M353.94,655.734v-12.351c0-4.365-1.967-6.549-5.9-6.549c-1.934,0-3.4,0.566-4.4,1.699c-1.034,1.134-1.55,2.684-1.55,4.65
		v12.55h-2.05v-20.649h2.05v2.5c0.933-1.834,2.917-2.75,5.95-2.75c2.566,0,4.533,0.732,5.9,2.199c1.366,1.467,2.05,3.518,2.05,6.15
		v12.55H353.94z"/>
	<path d="M365.689,637.133v18.601h-2.05v-18.601h-2.8v-2.049h2.8v-9.051h2.05v9.051h4.8v2.049H365.689z"/>
</g>
</svg>
