<?xml version="1.0" encoding="utf-8"?>
<!-- Generator: Adobe Illustrator 16.0.0, SVG Export Plug-In . SVG Version: 6.00 Build 0)  -->
<!DOCTYPE svg PUBLIC "-//W3C//DTD SVG 1.1//EN" "http://www.w3.org/Graphics/SVG/1.1/DTD/svg11.dtd">
<svg version="1.1" id="Layer_1" xmlns="http://www.w3.org/2000/svg" xmlns:xlink="http://www.w3.org/1999/xlink" x="0px" y="0px"
	 width="844.096px" height="503.271px" viewBox="0 0 844.096 503.271" enable-background="new 0 0 844.096 503.271"
	 xml:space="preserve">
<rect x="369.162" y="141.025" fill="#EEEDED" stroke="#010202" stroke-width="0.2492" stroke-miterlimit="10" width="314.635" height="58.9"/>
<g>
	<g>
		<path fill="#010202" d="M384.604,160.664c-0.32,0-0.654-0.133-1.004-0.395c-0.262-0.264-0.408-0.611-0.439-1.049
			c0-0.785,0.482-1.268,1.443-1.441c0.727,0,1.207,0.479,1.441,1.441C386.047,160.184,385.566,160.664,384.604,160.664z
			 M383.688,181.941v-18.045h1.791v18.045H383.688z"/>
		<path fill="#010202" d="M401.471,181.941V171.15c0-3.816-1.721-5.727-5.156-5.727c-1.689,0-2.971,0.496-3.846,1.486
			c-0.902,0.99-1.354,2.346-1.354,4.064v10.967h-1.791v-18.045h1.791v2.186c0.814-1.602,2.549-2.404,5.199-2.404
			c2.242,0,3.961,0.643,5.156,1.924c1.191,1.281,1.791,3.072,1.791,5.373v10.967H401.471L401.471,181.941z"/>
		<path fill="#010202" d="M417.898,180.805c-1.166,0.992-2.564,1.486-4.195,1.486c-2.795,0-4.893-1.268-6.291-3.801l1.529-0.918
			c0.494,0.902,1.092,1.602,1.791,2.098c0.729,0.553,1.719,0.83,2.971,0.83c2.738,0,4.107-1.164,4.107-3.496
			c0-1.02-0.48-1.906-1.441-2.664c-0.291-0.176-0.707-0.373-1.246-0.59c-0.539-0.219-1.201-0.475-1.986-0.766
			c-1.457-0.523-2.506-1.049-3.146-1.572c-0.934-0.758-1.396-1.85-1.396-3.277c0-1.223,0.465-2.271,1.396-3.146
			c0.902-0.902,2.082-1.354,3.539-1.354c2.01,0,3.713,0.699,5.111,2.098l-1.311,1.135c-0.99-0.988-2.258-1.484-3.801-1.484
			c-2.098,0-3.146,0.918-3.146,2.752c0,0.816,0.32,1.486,0.961,2.012c0.525,0.406,1.355,0.801,2.49,1.18
			c0.99,0.35,1.807,0.678,2.447,0.982s1.121,0.574,1.441,0.809c1.254,0.961,1.879,2.258,1.879,3.889
			C419.602,178.578,419.033,179.844,417.898,180.805z"/>
		<path fill="#010202" d="M426.197,165.688v16.254h-1.791v-16.254h-2.447v-1.791h2.447v-7.908h1.791v7.908h4.195v1.791H426.197
			L426.197,165.688z"/>
		<path fill="#010202" d="M435.197,169.314c-0.318,0-0.652-0.131-1.004-0.395c-0.262-0.262-0.408-0.611-0.438-1.049
			c0-0.787,0.48-1.268,1.441-1.441c0.729,0,1.209,0.48,1.443,1.441C436.643,168.834,436.16,169.314,435.197,169.314z
			 M435.197,182.203c-0.318,0-0.652-0.131-1.004-0.393c-0.262-0.264-0.408-0.611-0.438-1.051c0-0.785,0.48-1.266,1.441-1.439
			c0.729,0,1.209,0.479,1.443,1.439C436.643,181.725,436.16,182.203,435.197,182.203z"/>
		<path fill="#010202" d="M465.74,180.107c-1.633,1.193-3.846,1.922-6.643,2.184c-0.32,0.029-0.67,0.051-1.049,0.066
			c-0.379,0.014-0.771,0.02-1.18,0.02c-4.719,0-8.563-1.484-11.535-4.457c-3-3-4.5-6.857-4.5-11.578
			c0-4.719,1.486-8.563,4.457-11.533c3-3,6.859-4.5,11.578-4.5c2.68,0,5.098,0.393,7.254,1.18c1.281,0.496,2.52,1.209,3.713,2.141
			v2.229c-1.223-1.02-2.563-1.834-4.02-2.447c-2.213-0.902-4.529-1.354-6.947-1.354c-4.137,0-7.543,1.34-10.223,4.02
			c-2.682,2.68-4.021,6.102-4.021,10.268s1.326,7.574,3.977,10.227c2.68,2.68,6.102,4.02,10.268,4.02
			c2.596,0,4.852-0.467,6.773-1.398c1.105-0.553,2.504-1.441,4.193-2.666v2.055L465.74,180.107z"/>
		<path fill="#010202" d="M485.883,181.941v-3.104c-1.895,2.271-4.297,3.408-7.209,3.408c-2.621,0-4.82-0.889-6.6-2.666
			c-1.807-1.805-2.709-4.02-2.709-6.641s0.891-4.82,2.666-6.598c1.807-1.807,4.021-2.709,6.643-2.709
			c2.885,0,5.287,1.137,7.209,3.408v-3.145h1.793v18.045H485.883z M484.004,167.611c-1.484-1.486-3.264-2.23-5.33-2.23
			c-2.1,0-3.873,0.73-5.33,2.186c-1.486,1.484-2.23,3.275-2.23,5.375c0,2.066,0.742,3.844,2.23,5.33
			c1.484,1.484,3.262,2.229,5.33,2.229c2.098,0,3.873-0.729,5.33-2.186c1.484-1.484,2.229-3.275,2.229-5.373
			C486.232,170.873,485.488,169.096,484.004,167.611z"/>
		<path fill="#010202" d="M493.484,181.941v-32.332h1.748v32.332H493.484L493.484,181.941z"/>
		<path fill="#010202" d="M509.912,182.291c-2.68,0-4.906-0.889-6.686-2.666c-1.777-1.775-2.664-4.004-2.664-6.684
			c0-2.682,0.887-4.908,2.664-6.688c1.777-1.773,4.006-2.664,6.686-2.664c2.303,0,4.139,0.523,5.506,1.572v2.141l-1.137-0.74
			l-1.223-0.656c-1.107-0.379-2.156-0.568-3.146-0.568c-2.244,0-4.063,0.699-5.461,2.098c-1.428,1.428-2.141,3.264-2.141,5.506
			c0,2.215,0.713,4.035,2.141,5.461c1.426,1.428,3.246,2.143,5.461,2.143c2.1,0,3.934-0.699,5.506-2.098v2.229
			C513.785,181.752,511.951,182.291,509.912,182.291z"/>
		<path fill="#010202" d="M529.529,180.369c-1.191,1.281-2.869,1.922-5.021,1.922c-2.127,0-3.773-0.625-4.939-1.879
			c-1.166-1.252-1.748-3-1.748-5.242v-11.273h1.791v11.271c0,1.719,0.379,3.045,1.137,3.977c0.785,0.934,2.037,1.398,3.76,1.398
			c3.348,0,5.021-1.793,5.021-5.375v-11.271h1.748v11.271C531.277,177.383,530.695,179.117,529.529,180.369z"/>
		<path fill="#010202" d="M535.078,181.941v-32.332h1.748v32.332H535.078L535.078,181.941z"/>
		<path fill="#010202" d="M558.148,181.941v-3.104c-1.895,2.271-4.297,3.408-7.209,3.408c-2.623,0-4.822-0.889-6.598-2.666
			c-1.807-1.805-2.709-4.02-2.709-6.641s0.887-4.82,2.664-6.598c1.807-1.807,4.02-2.709,6.643-2.709
			c2.883,0,5.287,1.137,7.209,3.408v-3.145h1.791v18.045H558.148z M556.271,167.611c-1.486-1.486-3.264-2.23-5.33-2.23
			c-2.098,0-3.875,0.73-5.332,2.186c-1.484,1.484-2.227,3.275-2.227,5.375c0,2.066,0.74,3.844,2.227,5.33
			c1.486,1.484,3.264,2.229,5.332,2.229c2.096,0,3.873-0.729,5.33-2.186c1.486-1.484,2.229-3.275,2.229-5.373
			C558.498,170.873,557.758,169.096,556.271,167.611z"/>
		<path fill="#010202" d="M567.98,165.688v16.254h-1.791v-16.254h-2.447v-1.791h2.447v-7.908h1.791v7.908h4.193v1.791H567.98
			L567.98,165.688z"/>
		<path fill="#010202" d="M577.416,160.664c-0.318,0-0.652-0.133-1.004-0.395c-0.264-0.264-0.406-0.611-0.438-1.049
			c0-0.785,0.48-1.268,1.441-1.441c0.729,0,1.209,0.479,1.441,1.441C578.857,160.184,578.379,160.664,577.416,160.664z
			 M576.498,181.941v-18.045h1.793v18.045H576.498z"/>
		<path fill="#010202" d="M598.826,179.539c-1.807,1.807-4.02,2.709-6.643,2.709c-2.621,0-4.82-0.889-6.598-2.666
			c-1.807-1.805-2.709-4.02-2.709-6.641c0-2.592,0.902-4.791,2.709-6.6c1.777-1.836,3.977-2.752,6.598-2.752
			c2.592,0,4.791,0.902,6.598,2.709c1.809,1.807,2.709,4.021,2.709,6.643S600.604,177.762,598.826,179.539z M597.561,167.566
			c-1.457-1.484-3.248-2.229-5.375-2.229c-2.039,0-3.801,0.758-5.287,2.271c-1.514,1.514-2.271,3.291-2.271,5.33
			c0,2.068,0.742,3.846,2.229,5.33c1.486,1.486,3.262,2.229,5.33,2.229c2.098,0,3.873-0.727,5.33-2.184
			c1.486-1.486,2.229-3.277,2.229-5.375C599.742,170.814,599.016,169.023,597.561,167.566z"/>
		<path fill="#010202" d="M618.139,181.941V171.15c0-3.816-1.719-5.727-5.156-5.727c-1.689,0-2.971,0.496-3.846,1.486
			c-0.902,0.99-1.355,2.346-1.355,4.064v10.967h-1.791v-18.045h1.791v2.186c0.814-1.602,2.549-2.404,5.199-2.404
			c2.242,0,3.961,0.643,5.156,1.924c1.193,1.281,1.791,3.072,1.791,5.373v10.967H618.139L618.139,181.941z"/>
		<path fill="#010202" d="M643.961,176.873c-2.1,3.67-5.068,5.506-8.914,5.506c-3.816,0-6.771-1.85-8.869-5.549
			c-1.719-3.029-2.578-6.613-2.578-10.748c0-4.166,0.859-7.764,2.578-10.793c2.098-3.699,5.053-5.549,8.869-5.549
			c3.814,0,6.771,1.85,8.869,5.549c1.719,3.088,2.576,6.686,2.576,10.793C646.492,170.275,645.648,173.873,643.961,176.873z
			 M642.563,156.6c-1.719-3.379-4.225-5.068-7.516-5.068c-2.941,0-5.316,1.516-7.121,4.545c-1.605,2.738-2.404,6.072-2.404,10.006
			c0,3.582,0.684,6.715,2.055,9.395c1.746,3.379,4.238,5.068,7.471,5.068c3,0,5.389-1.5,7.166-4.502
			c1.602-2.648,2.402-5.971,2.402-9.961C644.613,162.439,643.932,159.279,642.563,156.6z"/>
		<path fill="#010202" d="M663.885,179.758c-1.689,1.602-3.83,2.402-6.424,2.402c-2.154,0-4.006-0.598-5.551-1.791
			c-1.482-1.195-2.475-2.869-2.971-5.025h1.922c0.379,1.428,1.209,2.621,2.492,3.584c1.252,0.961,2.621,1.441,4.105,1.441
			c1.924,0,3.568-0.656,4.938-1.967c1.369-1.369,2.055-3,2.055-4.895c0-2.357-0.846-4.209-2.533-5.549
			c-1.281-1.02-2.594-1.529-3.934-1.529h-1.836v-2.576h1.836c1.834,0,3.307-0.512,4.412-1.529c1.078-0.99,1.617-2.434,1.617-4.326
			c0-1.807-0.582-3.277-1.748-4.412c-1.164-1.166-2.664-1.748-4.5-1.748c-3.496,0-5.607,1.834-6.336,5.504h-2.053
			c0.262-2.271,1.15-4.047,2.666-5.33c1.514-1.311,3.422-1.965,5.723-1.965c2.389,0,4.383,0.729,5.986,2.184
			c1.602,1.428,2.402,3.352,2.402,5.768c0,3.875-1.951,6.248-5.854,7.123c4.074,1.223,6.113,4.021,6.113,8.389
			C666.416,176.102,665.572,178.184,663.885,179.758z"/>
	</g>
</g>
<g>
	<g>
		<path fill="#010202" d="M541.822,98.889c-1.447,1.447-3.219,2.17-5.318,2.17c-2.102,0-3.861-0.711-5.285-2.135
			c-1.445-1.445-2.17-3.221-2.17-5.32c0-2.076,0.725-3.838,2.17-5.285c1.424-1.47,3.186-2.206,5.285-2.206
			c2.076,0,3.838,0.725,5.283,2.173c1.447,1.445,2.17,3.219,2.17,5.318S543.246,97.465,541.822,98.889z M540.811,89.299
			c-1.168-1.19-2.605-1.786-4.307-1.786c-1.635,0-3.047,0.607-4.234,1.821c-1.213,1.213-1.82,2.637-1.82,4.27
			c0,1.658,0.596,3.08,1.785,4.271s2.613,1.785,4.27,1.785c1.682,0,3.104-0.584,4.271-1.75c1.189-1.191,1.785-2.625,1.785-4.307
			C542.561,91.9,541.977,90.465,540.811,89.299z"/>
		<path fill="#010202" d="M560.197,98.889c-1.447,1.447-3.221,2.17-5.318,2.17c-2.402,0-4.389-0.979-5.949-2.939v9.484h-1.438
			V86.358h1.438v2.729c1.492-1.96,3.477-2.94,5.949-2.94c2.1,0,3.859,0.713,5.283,2.138c1.447,1.445,2.17,3.219,2.17,5.318
			S561.621,97.465,560.197,98.889z M559.148,89.334c-1.189-1.19-2.613-1.786-4.27-1.786c-1.682,0-3.105,0.584-4.271,1.751
			c-1.189,1.189-1.785,2.625-1.785,4.305c0,1.658,0.598,3.08,1.785,4.271c1.189,1.191,2.613,1.785,4.271,1.785
			c1.68,0,3.104-0.584,4.27-1.75c1.191-1.191,1.785-2.625,1.785-4.307C560.934,91.947,560.34,90.523,559.148,89.334z"/>
		<path fill="#010202" d="M581.969,100.814v-9.977c0-0.887-0.293-1.656-0.875-2.311c-0.584-0.653-1.424-0.981-2.521-0.981
			c-2.264,0-3.395,1.101-3.395,3.292v9.977h-1.436v-9.977c0-0.979-0.328-1.762-0.979-2.346c-0.678-0.632-1.482-0.946-2.416-0.946
			c-0.957,0-1.764,0.305-2.414,0.911c-0.654,0.584-0.98,1.377-0.98,2.381v9.977h-1.436V86.358h1.436v1.434
			c0.701-1.096,1.832-1.645,3.395-1.645c1.867,0,3.244,0.76,4.131,2.274c0.84-1.517,2.205-2.274,4.096-2.274
			c1.445,0,2.611,0.408,3.5,1.225c0.889,0.84,1.33,1.997,1.33,3.466v9.977H581.969L581.969,100.814z"/>
		<path fill="#010202" d="M588.652,90.699c-0.258,0-0.523-0.105-0.807-0.316c-0.209-0.209-0.326-0.488-0.35-0.84
			c0-0.629,0.385-1.014,1.156-1.154c0.582,0,0.967,0.385,1.154,1.154C589.809,90.314,589.424,90.699,588.652,90.699z
			 M588.652,101.023c-0.258,0-0.523-0.105-0.807-0.314c-0.209-0.211-0.326-0.49-0.35-0.84c0-0.631,0.385-1.016,1.156-1.156
			c0.582,0,0.967,0.387,1.154,1.156C589.809,100.639,589.424,101.023,588.652,101.023z"/>
		<path fill="#010202" d="M594.008,93.289c0,1.959,0.523,3.512,1.576,4.654c1.096,1.168,2.602,1.75,4.514,1.75
			c0.979,0,1.867-0.162,2.66-0.49c1.004-0.42,1.9-1.271,2.693-2.555l1.297,0.596c-0.91,1.727-2.313,2.893-4.199,3.5
			c-0.727,0.232-1.541,0.35-2.451,0.35c-2.17,0-3.955-0.711-5.355-2.135c-1.424-1.424-2.135-3.209-2.135-5.355
			c0-2.17,0.699-3.955,2.102-5.354c1.422-1.425,3.219-2.138,5.389-2.138c2.145,0,3.92,0.666,5.32,1.996
			c1.424,1.331,2.135,3.058,2.135,5.181H594.008L594.008,93.289z M603.879,88.703c-1.1-0.794-2.357-1.19-3.781-1.19
			c-2.986,0-4.945,1.472-5.879,4.411h11.725C605.707,90.594,605.021,89.521,603.879,88.703z"/>
		<path fill="#010202" d="M617.143,100.814l-4.094-6.057l-4.098,6.057h-1.715l4.938-7.281l-4.83-7.175h1.68l4.025,5.983l3.99-5.983
			h1.68l-4.795,7.14l4.896,7.316H617.143L617.143,100.814z"/>
		<path fill="#010202" d="M634.258,98.889c-1.447,1.447-3.223,2.17-5.32,2.17c-2.402,0-4.387-0.979-5.949-2.939v9.484h-1.436V86.358
			h1.436v2.729c1.492-1.96,3.477-2.94,5.949-2.94c2.1,0,3.861,0.713,5.285,2.138c1.447,1.445,2.17,3.219,2.17,5.318
			S635.682,97.465,634.258,98.889z M633.205,89.334c-1.188-1.19-2.611-1.786-4.27-1.786c-1.68,0-3.104,0.584-4.27,1.751
			c-1.189,1.189-1.785,2.625-1.785,4.305c0,1.658,0.596,3.08,1.785,4.271s2.613,1.785,4.27,1.785c1.68,0,3.104-0.584,4.27-1.75
			c1.191-1.191,1.785-2.625,1.785-4.307C634.99,91.947,634.398,90.523,633.205,89.334z"/>
		<path fill="#010202" d="M646.4,88.494c-0.373-0.282-0.77-0.503-1.188-0.667c-0.42-0.162-0.865-0.244-1.33-0.244
			c-0.398,0-0.771,0.123-1.121,0.367c-0.352,0.244-0.652,0.55-0.91,0.911c-0.256,0.361-0.461,0.764-0.611,1.207
			c-0.152,0.443-0.229,0.852-0.229,1.225v9.521h-1.438V86.358h1.438v1.96c0.303-0.536,0.701-1.026,1.188-1.47
			c0.49-0.443,1.027-0.666,1.611-0.666c0.723,0,1.318,0.082,1.785,0.246c0.467,0.162,0.99,0.453,1.574,0.875L646.4,88.494z"/>
		<path fill="#010202" d="M648.643,93.289c0,1.959,0.525,3.512,1.576,4.654c1.096,1.168,2.602,1.75,4.514,1.75
			c0.98,0,1.867-0.162,2.66-0.49c1.004-0.42,1.902-1.271,2.695-2.555l1.295,0.596c-0.91,1.727-2.313,2.893-4.199,3.5
			c-0.725,0.232-1.541,0.35-2.451,0.35c-2.17,0-3.955-0.711-5.354-2.135c-1.424-1.424-2.137-3.209-2.137-5.355
			c0-2.17,0.699-3.955,2.102-5.354c1.422-1.425,3.219-2.138,5.389-2.138c2.146,0,3.92,0.666,5.32,1.996
			c1.424,1.331,2.135,3.058,2.135,5.181H648.643L648.643,93.289z M658.514,88.703c-1.1-0.794-2.357-1.19-3.781-1.19
			c-2.986,0-4.945,1.472-5.879,4.411h11.725C660.344,90.594,659.654,89.521,658.514,88.703z"/>
		<path fill="#010202" d="M672.615,99.904c-0.934,0.793-2.053,1.188-3.357,1.188c-2.24,0-3.92-1.014-5.041-3.045l1.227-0.732
			c0.396,0.723,0.875,1.281,1.434,1.68c0.584,0.443,1.377,0.664,2.381,0.664c2.193,0,3.289-0.934,3.289-2.799
			c0-0.816-0.385-1.529-1.154-2.137c-0.234-0.141-0.566-0.299-0.998-0.473c-0.432-0.176-0.961-0.379-1.592-0.613
			c-1.168-0.42-2.008-0.84-2.52-1.26c-0.748-0.605-1.121-1.48-1.121-2.625c0-0.979,0.373-1.821,1.121-2.521
			c0.723-0.723,1.668-1.086,2.834-1.086c1.611,0,2.975,0.561,4.096,1.682l-1.051,0.909c-0.793-0.794-1.809-1.19-3.045-1.19
			c-1.68,0-2.521,0.737-2.521,2.206c0,0.654,0.258,1.189,0.771,1.609c0.42,0.328,1.086,0.643,1.996,0.945
			c0.793,0.279,1.443,0.543,1.959,0.787c0.514,0.246,0.896,0.461,1.156,0.648c1.002,0.77,1.504,1.809,1.504,3.115
			C673.982,98.119,673.525,99.133,672.615,99.904z"/>
		<path fill="#010202" d="M684.201,99.904c-0.934,0.793-2.055,1.188-3.359,1.188c-2.238,0-3.92-1.014-5.039-3.045l1.225-0.732
			c0.396,0.723,0.875,1.281,1.436,1.68c0.582,0.443,1.377,0.664,2.379,0.664c2.193,0,3.291-0.934,3.291-2.799
			c0-0.816-0.385-1.529-1.154-2.137c-0.234-0.141-0.566-0.299-0.998-0.473c-0.432-0.176-0.963-0.379-1.594-0.613
			c-1.166-0.42-2.006-0.84-2.52-1.26c-0.746-0.605-1.119-1.48-1.119-2.625c0-0.979,0.373-1.821,1.119-2.521
			c0.723-0.723,1.668-1.086,2.836-1.086c1.609,0,2.975,0.561,4.094,1.682l-1.049,0.909c-0.795-0.794-1.809-1.19-3.045-1.19
			c-1.68,0-2.521,0.737-2.521,2.206c0,0.654,0.258,1.189,0.771,1.609c0.42,0.328,1.084,0.643,1.994,0.945
			c0.793,0.279,1.447,0.543,1.961,0.787c0.512,0.246,0.896,0.461,1.154,0.648c1.004,0.77,1.506,1.809,1.506,3.115
			C685.566,98.119,685.111,99.133,684.201,99.904z"/>
		<path fill="#010202" d="M689.66,83.769c-0.258,0-0.523-0.105-0.805-0.316c-0.211-0.209-0.328-0.49-0.352-0.84
			c0-0.629,0.385-1.016,1.156-1.154c0.582,0,0.967,0.385,1.154,1.154C690.816,83.382,690.432,83.769,689.66,83.769z
			 M688.926,100.814V86.358h1.436v14.456H688.926z"/>
		<path fill="#010202" d="M706.813,98.889c-1.447,1.447-3.221,2.17-5.32,2.17s-3.861-0.711-5.285-2.135
			c-1.447-1.445-2.17-3.221-2.17-5.32c0-2.076,0.723-3.838,2.17-5.285c1.424-1.47,3.186-2.206,5.285-2.206
			c2.076,0,3.838,0.725,5.285,2.173c1.445,1.445,2.17,3.219,2.17,5.318C708.945,95.703,708.232,97.465,706.813,98.889z
			 M705.797,89.299c-1.166-1.19-2.604-1.786-4.307-1.786c-1.633,0-3.045,0.607-4.232,1.821c-1.217,1.213-1.82,2.637-1.82,4.27
			c0,1.658,0.594,3.08,1.785,4.271c1.188,1.189,2.613,1.785,4.27,1.785c1.68,0,3.104-0.584,4.27-1.75
			c1.189-1.191,1.785-2.625,1.785-4.307C707.547,91.9,706.963,90.465,705.797,89.299z"/>
		<path fill="#010202" d="M722.279,100.814v-8.646c0-3.057-1.377-4.587-4.131-4.587c-1.354,0-2.379,0.396-3.08,1.19
			c-0.723,0.795-1.084,1.879-1.084,3.256v8.785h-1.436V86.356h1.436v1.75c0.652-1.283,2.041-1.926,4.164-1.926
			c1.797,0,3.174,0.514,4.131,1.541c0.955,1.026,1.436,2.462,1.436,4.306v8.785h-1.436V100.814z"/>
	</g>
</g>
<g>
	<g>
		<path fill="#010202" d="M12.773,180.016c-1.447,1.447-3.219,2.17-5.318,2.17c-2.102,0-3.861-0.711-5.285-2.135
			C0.723,178.605,0,176.83,0,174.73c0-2.076,0.723-3.838,2.17-5.285c1.424-1.469,3.186-2.205,5.285-2.205
			c2.076,0,3.838,0.725,5.283,2.172c1.447,1.445,2.17,3.219,2.17,5.318S14.197,178.592,12.773,180.016z M11.76,170.426
			c-1.166-1.189-2.604-1.785-4.305-1.785c-1.635,0-3.047,0.607-4.234,1.82c-1.213,1.213-1.82,2.637-1.82,4.27
			c0,1.658,0.596,3.08,1.785,4.271c1.189,1.189,2.613,1.785,4.27,1.785c1.682,0,3.104-0.584,4.271-1.75
			c1.189-1.191,1.785-2.625,1.785-4.307C13.51,173.027,12.928,171.592,11.76,170.426z"/>
		<path fill="#010202" d="M31.148,180.016c-1.447,1.447-3.221,2.17-5.32,2.17c-2.4,0-4.387-0.979-5.947-2.939v9.484h-1.438v-21.244
			h1.438v2.729c1.49-1.961,3.477-2.939,5.947-2.939c2.102,0,3.861,0.713,5.285,2.135c1.447,1.447,2.17,3.221,2.17,5.32
			S32.572,178.592,31.148,180.016z M30.1,170.461c-1.189-1.189-2.613-1.785-4.271-1.785c-1.68,0-3.104,0.584-4.27,1.75
			c-1.189,1.189-1.785,2.625-1.785,4.305c0,1.658,0.596,3.08,1.785,4.271s2.613,1.785,4.27,1.785c1.682,0,3.105-0.584,4.271-1.75
			c1.189-1.191,1.785-2.625,1.785-4.307C31.885,173.074,31.289,171.65,30.1,170.461z"/>
		<path fill="#010202" d="M52.918,181.941v-9.977c0-0.887-0.293-1.656-0.875-2.311c-0.584-0.652-1.424-0.98-2.52-0.98
			c-2.264,0-3.395,1.1-3.395,3.291v9.977h-1.436v-9.977c0-0.979-0.328-1.762-0.979-2.346c-0.68-0.631-1.482-0.945-2.416-0.945
			c-0.957,0-1.764,0.305-2.414,0.91c-0.654,0.584-0.98,1.377-0.98,2.381v9.977h-1.436v-14.455h1.436v1.434
			c0.701-1.096,1.832-1.645,3.395-1.645c1.867,0,3.244,0.76,4.131,2.273c0.84-1.516,2.205-2.273,4.096-2.273
			c1.445,0,2.611,0.408,3.5,1.225c0.887,0.84,1.33,1.996,1.33,3.465v9.977H52.918L52.918,181.941z"/>
		<path fill="#010202" d="M59.605,171.826c-0.258,0-0.525-0.105-0.807-0.316c-0.209-0.209-0.326-0.488-0.352-0.84
			c0-0.629,0.385-1.014,1.156-1.154c0.582,0,0.967,0.385,1.154,1.154C60.76,171.441,60.373,171.826,59.605,171.826z M59.605,182.15
			c-0.258,0-0.525-0.105-0.807-0.314c-0.209-0.211-0.326-0.49-0.352-0.84c0-0.631,0.385-1.016,1.156-1.156
			c0.582,0,0.967,0.387,1.154,1.156C60.76,181.766,60.373,182.15,59.605,182.15z"/>
		<path fill="#010202" d="M65.658,164.896c-0.258,0-0.523-0.105-0.805-0.316c-0.211-0.209-0.328-0.49-0.352-0.84
			c0-0.629,0.385-1.014,1.156-1.154c0.582,0,0.967,0.385,1.154,1.154C66.814,164.51,66.43,164.896,65.658,164.896z M64.924,181.941
			v-14.455h1.436v14.455H64.924z"/>
		<path fill="#010202" d="M79.17,181.941v-8.646c0-3.057-1.379-4.584-4.133-4.584c-1.354,0-2.379,0.396-3.08,1.189
			c-0.723,0.793-1.084,1.879-1.084,3.256v8.785h-1.436v-14.455h1.436v1.75c0.652-1.283,2.041-1.926,4.164-1.926
			c1.799,0,3.176,0.514,4.133,1.541c0.953,1.025,1.434,2.461,1.434,4.305v8.785H79.17L79.17,181.941z"/>
		<path fill="#010202" d="M88.791,157.477l-0.941-0.105c-1.311,0-1.961,0.77-1.961,2.311v7.805h3.43v1.436h-3.43v13.021h-1.438
			v-13.021h-1.959v-1.436h1.959v-8.227c0-2.215,1.121-3.324,3.361-3.324c0.512,0,0.84,0.023,0.98,0.07
			c0.279,0,0.596,0.082,0.943,0.244v1.436L88.791,157.477z"/>
		<path fill="#010202" d="M91.277,174.416c0,1.959,0.525,3.512,1.574,4.654c1.098,1.168,2.602,1.75,4.516,1.75
			c0.98,0,1.867-0.162,2.66-0.49c1.002-0.42,1.9-1.27,2.695-2.555l1.295,0.596c-0.91,1.727-2.311,2.893-4.201,3.5
			c-0.723,0.232-1.539,0.35-2.449,0.35c-2.17,0-3.955-0.711-5.354-2.135c-1.424-1.424-2.135-3.209-2.135-5.355
			c0-2.17,0.697-3.955,2.1-5.354c1.424-1.424,3.221-2.137,5.391-2.137c2.146,0,3.92,0.666,5.32,1.996
			c1.422,1.33,2.135,3.057,2.135,5.18H91.277L91.277,174.416z M101.148,169.83c-1.096-0.793-2.357-1.189-3.779-1.189
			c-2.986,0-4.947,1.471-5.881,4.41h11.727C102.98,171.721,102.289,170.648,101.148,169.83z"/>
		<path fill="#010202" d="M114.975,169.621c-0.373-0.281-0.771-0.502-1.189-0.666c-0.42-0.162-0.865-0.244-1.33-0.244
			c-0.398,0-0.771,0.123-1.121,0.367s-0.652,0.549-0.91,0.91c-0.256,0.361-0.461,0.764-0.611,1.207
			c-0.152,0.443-0.229,0.852-0.229,1.225v9.521h-1.436v-14.455h1.436v1.959c0.303-0.535,0.701-1.025,1.189-1.469
			c0.49-0.443,1.027-0.666,1.611-0.666c0.723,0,1.316,0.08,1.785,0.244c0.467,0.162,0.988,0.455,1.572,0.875L114.975,169.621z"/>
		<path fill="#010202" d="M125.822,169.621c-0.373-0.281-0.77-0.502-1.188-0.666c-0.42-0.162-0.865-0.244-1.33-0.244
			c-0.398,0-0.771,0.123-1.121,0.367c-0.352,0.244-0.652,0.549-0.91,0.91c-0.256,0.361-0.461,0.764-0.611,1.207
			c-0.152,0.443-0.229,0.852-0.229,1.225v9.521h-1.438v-14.455h1.438v1.959c0.303-0.535,0.701-1.025,1.188-1.469
			c0.49-0.443,1.027-0.666,1.611-0.666c0.723,0,1.318,0.08,1.785,0.244c0.467,0.162,0.99,0.455,1.574,0.875L125.822,169.621z"/>
		<path fill="#010202" d="M128.064,174.416c0,1.959,0.525,3.512,1.574,4.654c1.098,1.168,2.602,1.75,4.516,1.75
			c0.98,0,1.867-0.162,2.66-0.49c1.002-0.42,1.9-1.27,2.695-2.555l1.295,0.596c-0.91,1.727-2.313,2.893-4.201,3.5
			c-0.725,0.232-1.539,0.35-2.449,0.35c-2.17,0-3.955-0.711-5.355-2.135c-1.424-1.424-2.135-3.209-2.135-5.355
			c0-2.17,0.699-3.955,2.1-5.354c1.424-1.424,3.221-2.137,5.391-2.137c2.146,0,3.92,0.666,5.32,1.996
			c1.422,1.33,2.135,3.057,2.135,5.18H128.064L128.064,174.416z M137.934,169.83c-1.096-0.793-2.357-1.189-3.779-1.189
			c-2.986,0-4.947,1.471-5.881,4.41H140C139.766,171.721,139.074,170.648,137.934,169.83z"/>
		<path fill="#010202" d="M157.463,181.941v-2.59c-1.539,1.889-3.5,2.834-5.881,2.834c-2.1,0-3.861-0.713-5.283-2.137
			c-1.447-1.445-2.17-3.219-2.17-5.318c0-2.102,0.711-3.861,2.135-5.285c1.447-1.445,3.221-2.17,5.318-2.17
			c2.311,0,4.271,0.943,5.881,2.836v-14.07h1.436v25.9H157.463z M155.854,170.461c-1.189-1.189-2.613-1.785-4.271-1.785
			c-1.68,0-3.104,0.584-4.27,1.75c-1.191,1.189-1.785,2.625-1.785,4.305c0,1.658,0.594,3.08,1.785,4.271
			c1.189,1.189,2.611,1.785,4.27,1.785c1.682,0,3.104-0.584,4.271-1.75c1.188-1.191,1.785-2.625,1.785-4.307
			C157.639,173.074,157.041,171.65,155.854,170.461z"/>
		<path fill="#010202" d="M174.439,167.695c-1.307,1.168-2.918,1.75-4.83,1.75h-4.691v12.496h-1.398v-24.99h6.09
			c1.912,0,3.523,0.559,4.83,1.68c1.307,1.119,1.959,2.625,1.959,4.516C176.398,165.059,175.744,166.576,174.439,167.695z
			 M173.354,159.576c-0.957-0.793-2.217-1.191-3.779-1.191h-4.656v9.625h4.656c1.539,0,2.822-0.42,3.85-1.26
			c1.027-0.887,1.541-2.088,1.541-3.604C174.965,161.629,174.428,160.439,173.354,159.576z"/>
		<path fill="#010202" d="M184.729,169.621c-0.373-0.281-0.771-0.502-1.189-0.666c-0.42-0.162-0.863-0.244-1.33-0.244
			c-0.396,0-0.77,0.123-1.119,0.367c-0.352,0.244-0.654,0.549-0.91,0.91c-0.258,0.361-0.461,0.764-0.613,1.207
			s-0.227,0.852-0.227,1.225v9.521h-1.436v-14.455h1.436v1.959c0.303-0.535,0.699-1.025,1.189-1.469
			c0.49-0.445,1.027-0.666,1.609-0.666c0.723,0,1.316,0.08,1.785,0.244c0.467,0.162,0.99,0.455,1.574,0.875L184.729,169.621z"/>
		<path fill="#010202" d="M198.236,180.016c-1.447,1.447-3.219,2.17-5.32,2.17c-2.1,0-3.859-0.711-5.283-2.135
			c-1.445-1.445-2.17-3.221-2.17-5.32c0-2.076,0.725-3.838,2.17-5.285c1.424-1.469,3.186-2.205,5.283-2.205
			c2.078,0,3.84,0.725,5.285,2.172c1.447,1.445,2.17,3.219,2.17,5.318S199.66,178.592,198.236,180.016z M197.225,170.426
			c-1.168-1.189-2.605-1.785-4.309-1.785c-1.633,0-3.045,0.607-4.232,1.82c-1.213,1.213-1.82,2.637-1.82,4.27
			c0,1.658,0.596,3.08,1.785,4.271c1.188,1.191,2.613,1.785,4.27,1.785c1.682,0,3.104-0.584,4.271-1.75
			c1.189-1.191,1.785-2.625,1.785-4.307C198.975,173.027,198.391,171.592,197.225,170.426z"/>
		<path fill="#010202" d="M216.611,180.016c-1.447,1.447-3.221,2.17-5.32,2.17c-2.4,0-4.387-0.979-5.947-2.939v9.484h-1.438v-21.244
			h1.438v2.729c1.492-1.961,3.477-2.939,5.947-2.939c2.102,0,3.861,0.713,5.285,2.135c1.447,1.447,2.17,3.221,2.17,5.32
			S218.035,178.592,216.611,180.016z M215.563,170.461c-1.189-1.189-2.613-1.785-4.271-1.785c-1.68,0-3.104,0.584-4.27,1.75
			c-1.189,1.189-1.785,2.625-1.785,4.305c0,1.658,0.596,3.08,1.785,4.271s2.613,1.785,4.27,1.785c1.682,0,3.105-0.584,4.271-1.75
			c1.191-1.191,1.785-2.625,1.785-4.307C217.348,173.074,216.754,171.65,215.563,170.461z"/>
		<path fill="#010202" d="M222.213,174.416c0,1.959,0.523,3.512,1.574,4.654c1.098,1.168,2.604,1.75,4.516,1.75
			c0.979,0,1.865-0.162,2.658-0.49c1.006-0.42,1.902-1.27,2.695-2.555l1.295,0.596c-0.91,1.727-2.311,2.893-4.199,3.5
			c-0.725,0.232-1.541,0.35-2.449,0.35c-2.17,0-3.955-0.711-5.355-2.135c-1.424-1.424-2.135-3.209-2.135-5.355
			c0-2.17,0.699-3.955,2.1-5.354c1.422-1.424,3.221-2.137,5.391-2.137c2.145,0,3.92,0.666,5.318,1.996
			c1.424,1.33,2.137,3.057,2.137,5.18H222.213L222.213,174.416z M232.082,169.83c-1.098-0.793-2.355-1.189-3.779-1.189
			c-2.986,0-4.945,1.471-5.879,4.41h11.725C233.912,171.721,233.227,170.648,232.082,169.83z"/>
		<path fill="#010202" d="M245.906,169.621c-0.373-0.281-0.77-0.502-1.188-0.666c-0.42-0.162-0.865-0.244-1.33-0.244
			c-0.398,0-0.771,0.123-1.121,0.367c-0.352,0.244-0.652,0.549-0.91,0.91c-0.256,0.361-0.461,0.764-0.611,1.207
			c-0.152,0.443-0.229,0.852-0.229,1.225v9.521h-1.438v-14.455h1.438v1.959c0.303-0.535,0.701-1.025,1.188-1.469
			c0.49-0.443,1.027-0.666,1.611-0.666c0.723,0,1.318,0.08,1.785,0.244c0.467,0.162,0.99,0.455,1.574,0.875L245.906,169.621z"/>
		<path fill="#010202" d="M252.104,168.92v13.021h-1.438V168.92h-1.961v-1.434h1.961v-6.336h1.438v6.336h3.359v1.434H252.104z"/>
		<path fill="#010202" d="M261.307,188.73h-1.609l3.746-8.119l-6.09-13.125h1.539l5.391,11.41l5.32-11.41h1.574L261.307,188.73z"/>
	</g>
</g>
<g>
	<g>
		<path fill="#010202" d="M41.959,87.769c-1.807,1.808-4.02,2.71-6.641,2.71c-3,0-5.477-1.225-7.428-3.671v11.841H26.1V72.126h1.791
			v3.408c1.863-2.447,4.34-3.67,7.428-3.67c2.621,0,4.82,0.889,6.598,2.666c1.807,1.807,2.709,4.02,2.709,6.641
			S43.736,85.991,41.959,87.769z M40.648,75.841c-1.486-1.486-3.262-2.229-5.33-2.229c-2.098,0-3.875,0.729-5.33,2.184
			c-1.484,1.486-2.229,3.277-2.229,5.375c0,2.068,0.742,3.846,2.229,5.33c1.484,1.486,3.262,2.229,5.33,2.229
			c2.098,0,3.873-0.728,5.33-2.185c1.486-1.486,2.23-3.277,2.23-5.375C42.879,79.103,42.135,77.325,40.648,75.841z"/>
		<path fill="#010202" d="M57.119,74.792c-0.465-0.35-0.961-0.627-1.482-0.83c-0.525-0.203-1.078-0.307-1.662-0.307
			c-0.494,0-0.961,0.154-1.396,0.459c-0.438,0.307-0.816,0.686-1.137,1.137c-0.322,0.451-0.576,0.953-0.766,1.508
			c-0.189,0.553-0.283,1.063-0.283,1.529v11.884h-1.791V72.126h1.791v2.447c0.379-0.67,0.873-1.281,1.484-1.836
			c0.611-0.553,1.281-0.83,2.012-0.83c0.9,0,1.645,0.104,2.229,0.307c0.582,0.205,1.236,0.568,1.965,1.094L57.119,74.792z"/>
		<path fill="#010202" d="M73.986,87.769c-1.807,1.808-4.02,2.71-6.643,2.71c-2.621,0-4.82-0.891-6.598-2.667
			c-1.807-1.807-2.709-4.02-2.709-6.643c0-2.592,0.902-4.791,2.709-6.598c1.777-1.834,3.977-2.752,6.598-2.752
			c2.594,0,4.791,0.902,6.598,2.709s2.709,4.02,2.709,6.641C76.65,83.792,75.764,85.991,73.986,87.769z M72.721,75.796
			c-1.457-1.484-3.248-2.227-5.375-2.227c-2.039,0-3.801,0.758-5.287,2.27c-1.514,1.516-2.271,3.293-2.271,5.33
			c0,2.068,0.742,3.848,2.229,5.33c1.484,1.486,3.262,2.231,5.33,2.231c2.098,0,3.875-0.729,5.332-2.187
			c1.484-1.484,2.227-3.275,2.227-5.375C74.902,79.046,74.176,77.253,72.721,75.796z"/>
		<path fill="#010202" d="M96.926,87.769c-1.809,1.808-4.021,2.71-6.643,2.71c-3,0-5.477-1.225-7.428-3.671v11.841h-1.791V72.126
			h1.791v3.408c1.863-2.447,4.34-3.67,7.428-3.67c2.621,0,4.82,0.889,6.6,2.666c1.805,1.807,2.709,4.02,2.709,6.641
			S98.701,85.991,96.926,87.769z M95.613,75.841c-1.484-1.486-3.262-2.229-5.33-2.229c-2.098,0-3.875,0.729-5.33,2.184
			c-1.484,1.486-2.229,3.277-2.229,5.375c0,2.068,0.742,3.846,2.229,5.33c1.484,1.486,3.262,2.229,5.33,2.229
			c2.098,0,3.873-0.728,5.33-2.185c1.486-1.486,2.23-3.277,2.23-5.375C97.844,79.103,97.1,77.325,95.613,75.841z"/>
		<path fill="#010202" d="M112.436,89.037c-1.166,0.99-2.564,1.484-4.193,1.484c-2.797,0-4.895-1.268-6.293-3.804l1.529-0.916
			c0.496,0.902,1.092,1.604,1.791,2.098c0.729,0.556,1.719,0.831,2.973,0.831c2.736,0,4.105-1.165,4.105-3.497
			c0-1.02-0.48-1.906-1.441-2.664c-0.291-0.176-0.707-0.371-1.244-0.59c-0.541-0.221-1.203-0.475-1.988-0.766
			c-1.457-0.523-2.506-1.049-3.146-1.574c-0.932-0.756-1.396-1.85-1.396-3.275c0-1.225,0.467-2.271,1.396-3.146
			c0.902-0.902,2.082-1.354,3.539-1.354c2.01,0,3.715,0.699,5.113,2.098l-1.313,1.135c-0.99-0.988-2.258-1.484-3.801-1.484
			c-2.098,0-3.146,0.918-3.146,2.752c0,0.816,0.32,1.486,0.961,2.012c0.523,0.408,1.354,0.801,2.49,1.18
			c0.99,0.35,1.807,0.678,2.447,0.982c0.639,0.305,1.121,0.576,1.441,0.809c1.252,0.961,1.879,2.258,1.879,3.889
			C114.141,86.808,113.57,88.075,112.436,89.037z"/>
		<path fill="#010202" d="M118.814,77.544c-0.32,0-0.656-0.131-1.006-0.393c-0.262-0.264-0.408-0.611-0.438-1.049
			c0-0.787,0.48-1.268,1.441-1.441c0.729,0,1.209,0.48,1.441,1.441C120.256,77.063,119.773,77.544,118.814,77.544z M118.814,90.436
			c-0.32,0-0.656-0.133-1.006-0.395c-0.262-0.264-0.408-0.613-0.438-1.049c0-0.788,0.48-1.269,1.441-1.444
			c0.729,0,1.209,0.48,1.441,1.444C120.256,89.955,119.773,90.436,118.814,90.436z"/>
		<path fill="#010202" d="M127.857,73.917v16.255h-1.791V73.917h-2.447v-1.791h2.447v-7.908h1.791v7.908h4.193v1.791H127.857z"/>
		<path fill="#010202" d="M148.568,87.769c-1.807,1.808-4.02,2.71-6.643,2.71c-2.621,0-4.82-0.891-6.598-2.667
			c-1.807-1.807-2.709-4.02-2.709-6.643c0-2.592,0.902-4.791,2.709-6.598c1.777-1.834,3.977-2.752,6.598-2.752
			c2.592,0,4.791,0.902,6.598,2.709s2.709,4.02,2.709,6.641C151.232,83.792,150.346,85.991,148.568,87.769z M147.303,75.796
			c-1.457-1.484-3.248-2.227-5.375-2.227c-2.039,0-3.803,0.758-5.287,2.27c-1.514,1.516-2.271,3.293-2.271,5.33
			c0,2.068,0.742,3.848,2.229,5.33c1.486,1.486,3.262,2.231,5.33,2.231c2.098,0,3.873-0.729,5.33-2.187
			c1.486-1.484,2.229-3.275,2.229-5.375C149.484,79.046,148.758,77.253,147.303,75.796z"/>
		<path fill="#010202" d="M158.441,73.917v16.255h-1.791V73.917h-2.447v-1.791h2.447v-7.908h1.791v7.908h4.195v1.791H158.441z"/>
		<path fill="#010202" d="M179.766,90.172v-3.103c-1.895,2.272-4.297,3.409-7.209,3.409c-2.621,0-4.82-0.891-6.6-2.667
			c-1.807-1.807-2.709-4.02-2.709-6.643c0-2.621,0.891-4.818,2.666-6.598c1.807-1.805,4.021-2.709,6.643-2.709
			c2.885,0,5.287,1.137,7.209,3.408v-3.146h1.793V90.17h-1.793V90.172z M177.887,75.841c-1.484-1.486-3.264-2.229-5.33-2.229
			c-2.1,0-3.873,0.729-5.33,2.184c-1.486,1.486-2.23,3.277-2.23,5.375c0,2.068,0.742,3.846,2.23,5.33
			c1.486,1.486,3.262,2.229,5.33,2.229c2.098,0,3.873-0.728,5.33-2.185c1.484-1.486,2.229-3.277,2.229-5.375
			C180.113,79.103,179.371,77.325,177.887,75.841z"/>
		<path fill="#010202" d="M187.367,90.172V57.839h1.748v32.333H187.367z"/>
		<path fill="#010202" d="M211.879,90.172V73.917h-17.172v16.255h-1.746V58.976h1.746v13.15h17.172v-13.15h1.793v31.196H211.879
			L211.879,90.172z"/>
		<path fill="#010202" d="M219.742,80.778c0,2.445,0.656,4.383,1.967,5.811c1.369,1.457,3.248,2.187,5.639,2.187
			c1.223,0,2.33-0.203,3.318-0.612c1.254-0.525,2.373-1.588,3.363-3.189l1.617,0.742c-1.137,2.156-2.883,3.612-5.242,4.37
			c-0.904,0.291-1.924,0.438-3.059,0.438c-2.709,0-4.938-0.889-6.686-2.665c-1.777-1.777-2.666-4.006-2.666-6.688
			c0-2.709,0.875-4.938,2.623-6.684c1.775-1.777,4.02-2.666,6.729-2.666c2.68,0,4.893,0.83,6.641,2.49
			c1.777,1.66,2.666,3.816,2.666,6.467H219.742L219.742,80.778z M232.066,75.054c-1.369-0.988-2.943-1.484-4.719-1.484
			c-3.73,0-6.176,1.834-7.342,5.504h14.639C234.352,77.413,233.49,76.073,232.066,75.054z"/>
		<path fill="#010202" d="M255.965,90.172v-3.103c-1.896,2.272-4.299,3.409-7.209,3.409c-2.623,0-4.822-0.891-6.6-2.667
			c-1.807-1.807-2.709-4.02-2.709-6.643c0-2.621,0.889-4.818,2.664-6.598c1.809-1.805,4.021-2.709,6.645-2.709
			c2.883,0,5.285,1.137,7.209,3.408v-3.146h1.791V90.17h-1.791V90.172z M254.084,75.841c-1.484-1.486-3.264-2.229-5.328-2.229
			c-2.1,0-3.875,0.729-5.332,2.184c-1.484,1.486-2.229,3.277-2.229,5.375c0,2.068,0.742,3.846,2.229,5.33
			c1.484,1.486,3.264,2.229,5.332,2.229c2.096,0,3.871-0.728,5.328-2.185c1.486-1.486,2.23-3.277,2.23-5.375
			C256.314,79.103,255.57,77.325,254.084,75.841z"/>
		<path fill="#010202" d="M265.795,73.917v16.255h-1.791V73.917h-2.447v-1.791h2.447v-7.908h1.791v7.908h4.193v1.791H265.795z"/>
		<path fill="#010202" d="M276.807,60.767v29.405h-1.791V60.767h-6.904v-1.791h15.598v1.791H276.807z"/>
		<path fill="#010202" d="M291.094,74.792c-0.467-0.35-0.961-0.627-1.486-0.83c-0.523-0.203-1.078-0.307-1.66-0.307
			c-0.494,0-0.961,0.154-1.398,0.459c-0.436,0.307-0.814,0.686-1.135,1.137s-0.576,0.953-0.766,1.508
			c-0.189,0.553-0.283,1.063-0.283,1.529v11.884h-1.791V72.126h1.791v2.447c0.379-0.67,0.873-1.281,1.486-1.836
			c0.611-0.553,1.281-0.83,2.01-0.83c0.902,0,1.645,0.104,2.227,0.307c0.584,0.205,1.238,0.568,1.967,1.094L291.094,74.792z"/>
		<path fill="#010202" d="M310.404,90.172v-3.103c-1.895,2.272-4.297,3.409-7.209,3.409c-2.623,0-4.822-0.891-6.598-2.667
			c-1.807-1.807-2.709-4.02-2.709-6.643c0-2.621,0.887-4.818,2.664-6.598c1.807-1.805,4.02-2.709,6.643-2.709
			c2.883,0,5.287,1.137,7.209,3.408v-3.146h1.791V90.17h-1.791V90.172z M308.525,75.841c-1.486-1.486-3.264-2.229-5.33-2.229
			c-2.098,0-3.875,0.729-5.332,2.184c-1.482,1.486-2.227,3.277-2.227,5.375c0,2.068,0.742,3.846,2.227,5.33
			c1.486,1.486,3.266,2.229,5.332,2.229c2.096,0,3.873-0.728,5.33-2.185c1.486-1.486,2.23-3.277,2.23-5.375
			C310.756,79.103,310.014,77.325,308.525,75.841z"/>
		<path fill="#010202" d="M329.674,90.172V79.38c0-3.816-1.721-5.725-5.154-5.725c-1.691,0-2.973,0.496-3.846,1.486
			c-0.904,0.988-1.355,2.346-1.355,4.063v10.968h-1.791V72.126h1.791v2.186c0.816-1.604,2.549-2.404,5.201-2.404
			c2.242,0,3.961,0.643,5.154,1.924s1.791,3.072,1.791,5.373v10.968H329.674L329.674,90.172z"/>
		<path fill="#010202" d="M346.102,89.037c-1.164,0.99-2.564,1.484-4.193,1.484c-2.797,0-4.895-1.268-6.291-3.804l1.527-0.916
			c0.496,0.902,1.094,1.604,1.793,2.098c0.727,0.556,1.717,0.831,2.971,0.831c2.738,0,4.107-1.165,4.107-3.497
			c0-1.02-0.48-1.906-1.443-2.664c-0.291-0.176-0.705-0.371-1.244-0.59c-0.539-0.221-1.201-0.475-1.988-0.766
			c-1.457-0.523-2.506-1.049-3.146-1.574c-0.932-0.756-1.395-1.85-1.395-3.275c0-1.225,0.465-2.271,1.395-3.146
			c0.902-0.902,2.082-1.354,3.539-1.354c2.01,0,3.715,0.699,5.113,2.098l-1.311,1.135c-0.992-0.988-2.258-1.484-3.803-1.484
			c-2.096,0-3.145,0.918-3.145,2.752c0,0.816,0.318,1.486,0.961,2.012c0.521,0.408,1.354,0.801,2.488,1.18
			c0.99,0.35,1.809,0.678,2.447,0.982c0.643,0.305,1.121,0.576,1.441,0.809c1.252,0.961,1.879,2.258,1.879,3.889
			C347.807,86.808,347.236,88.075,346.102,89.037z"/>
		<path fill="#010202" d="M358.555,59.63l-1.182-0.131c-1.631,0-2.445,0.961-2.445,2.885v9.742h4.279v1.791h-4.279v16.255h-1.791
			V73.917h-2.447v-1.791h2.447V61.858c0-2.768,1.396-4.15,4.193-4.15c0.641,0,1.049,0.029,1.225,0.088
			c0.35,0,0.742,0.102,1.18,0.307v1.791L358.555,59.63z"/>
		<path fill="#010202" d="M361.654,80.778c0,2.445,0.656,4.383,1.967,5.811c1.369,1.457,3.248,2.187,5.639,2.187
			c1.223,0,2.33-0.203,3.318-0.612c1.252-0.525,2.373-1.588,3.363-3.189l1.617,0.742c-1.137,2.156-2.883,3.612-5.242,4.37
			c-0.904,0.291-1.924,0.438-3.059,0.438c-2.709,0-4.938-0.889-6.686-2.665c-1.777-1.777-2.666-4.006-2.666-6.688
			c0-2.709,0.875-4.938,2.623-6.684c1.775-1.777,4.02-2.666,6.729-2.666c2.68,0,4.893,0.83,6.641,2.49
			c1.777,1.66,2.666,3.816,2.666,6.467H361.654L361.654,80.778z M373.979,75.054c-1.369-0.988-2.943-1.484-4.719-1.484
			c-3.73,0-6.178,1.834-7.344,5.504h14.641C376.264,77.413,375.402,76.073,373.979,75.054z"/>
		<path fill="#010202" d="M391.234,74.792c-0.467-0.35-0.961-0.627-1.486-0.83c-0.521-0.203-1.076-0.307-1.658-0.307
			c-0.494,0-0.961,0.154-1.398,0.459c-0.436,0.307-0.814,0.686-1.135,1.137c-0.322,0.451-0.576,0.953-0.768,1.508
			c-0.188,0.553-0.281,1.063-0.281,1.529v11.884h-1.791V72.126h1.791v2.447c0.379-0.67,0.873-1.281,1.484-1.836
			c0.611-0.553,1.281-0.83,2.012-0.83c0.9,0,1.645,0.104,2.227,0.307c0.584,0.205,1.238,0.568,1.967,1.094L391.234,74.792z"/>
		<path fill="#010202" d="M411.729,90.172l-9.918-15.599h-3.365v15.599h-1.748V58.976h7.211c1.164,0,2.271,0.168,3.32,0.502
			c1.049,0.336,1.951,0.83,2.709,1.484c0.756,0.654,1.361,1.463,1.813,2.424c0.451,0.963,0.678,2.07,0.678,3.322
			c0,1.369-0.211,2.549-0.635,3.539c-0.422,0.99-1.02,1.805-1.791,2.445c-0.771,0.643-1.682,1.115-2.73,1.42
			c-1.049,0.307-2.199,0.459-3.451,0.459l10.006,15.601H411.729L411.729,90.172z M410.066,64.065
			c-0.35-0.742-0.83-1.355-1.439-1.836c-0.613-0.48-1.326-0.846-2.145-1.094c-0.813-0.244-1.688-0.369-2.621-0.369h-5.418v12.016
			h5.898c1.865,0,3.371-0.525,4.523-1.574c1.15-1.047,1.725-2.563,1.725-4.543C410.592,65.675,410.416,64.808,410.066,64.065z"/>
		<path fill="#010202" d="M430.908,90.172v-3.103c-1.895,2.272-4.297,3.409-7.209,3.409c-2.623,0-4.82-0.891-6.598-2.667
			c-1.807-1.807-2.709-4.02-2.709-6.643c0-2.621,0.887-4.818,2.664-6.598c1.807-1.805,4.02-2.709,6.643-2.709
			c2.883,0,5.287,1.137,7.209,3.408v-3.146h1.791V90.17h-1.791V90.172z M429.029,75.841c-1.486-1.486-3.264-2.229-5.33-2.229
			c-2.098,0-3.875,0.729-5.332,2.184c-1.482,1.486-2.227,3.277-2.227,5.375c0,2.068,0.742,3.846,2.227,5.33
			c1.486,1.486,3.266,2.229,5.332,2.229c2.098,0,3.873-0.728,5.33-2.185c1.486-1.486,2.23-3.277,2.23-5.375
			C431.26,79.103,430.518,77.325,429.029,75.841z"/>
		<path fill="#010202" d="M440.738,73.917v16.255h-1.791V73.917H436.5v-1.791h2.447v-7.908h1.791v7.908h4.193v1.791H440.738z"/>
		<path fill="#010202" d="M449.305,80.778c0,2.445,0.652,4.383,1.965,5.811c1.369,1.457,3.248,2.187,5.637,2.187
			c1.225,0,2.33-0.203,3.32-0.612c1.252-0.525,2.375-1.588,3.365-3.189l1.617,0.742c-1.139,2.156-2.887,3.612-5.244,4.37
			c-0.902,0.291-1.922,0.438-3.061,0.438c-2.709,0-4.938-0.889-6.686-2.665c-1.775-1.777-2.664-4.006-2.664-6.688
			c0-2.709,0.873-4.938,2.621-6.684c1.777-1.777,4.02-2.666,6.729-2.666c2.682,0,4.896,0.83,6.645,2.49
			c1.773,1.66,2.664,3.816,2.664,6.467H449.305L449.305,80.778z M461.623,75.054c-1.367-0.988-2.939-1.484-4.719-1.484
			c-3.729,0-6.176,1.834-7.34,5.504h14.637C463.91,77.413,463.053,76.073,461.623,75.054z"/>
	</g>
</g>
<g>
	<g>
		<path fill="#010202" d="M544.115,251.754c-1.447,1.445-3.219,2.17-5.318,2.17s-3.861-0.713-5.285-2.137
			c-1.447-1.445-2.17-3.219-2.17-5.318c0-2.076,0.723-3.838,2.17-5.285c1.424-1.471,3.186-2.205,5.285-2.205
			c2.076,0,3.838,0.723,5.283,2.17c1.447,1.447,2.17,3.221,2.17,5.32S545.539,250.33,544.115,251.754z M543.104,242.162
			c-1.168-1.189-2.605-1.783-4.307-1.783c-1.635,0-3.047,0.605-4.234,1.818c-1.213,1.215-1.82,2.639-1.82,4.271
			c0,1.656,0.596,3.08,1.785,4.27s2.613,1.785,4.271,1.785c1.68,0,3.102-0.582,4.27-1.75c1.189-1.189,1.785-2.625,1.785-4.305
			C544.854,244.766,544.27,243.33,543.104,242.162z"/>
		<path fill="#010202" d="M562.49,251.754c-1.447,1.445-3.221,2.17-5.318,2.17c-2.402,0-4.389-0.98-5.949-2.939v9.484h-1.438
			v-21.246h1.438v2.73c1.492-1.961,3.477-2.939,5.949-2.939c2.1,0,3.859,0.711,5.283,2.135c1.447,1.447,2.17,3.221,2.17,5.32
			S563.914,250.33,562.49,251.754z M561.441,242.197c-1.189-1.189-2.613-1.785-4.27-1.785c-1.682,0-3.105,0.584-4.271,1.75
			c-1.189,1.191-1.785,2.625-1.785,4.307c0,1.656,0.598,3.08,1.785,4.27c1.189,1.191,2.613,1.785,4.271,1.785
			c1.68,0,3.104-0.582,4.27-1.75c1.191-1.189,1.785-2.625,1.785-4.305C563.227,244.811,562.633,243.389,561.441,242.197z"/>
		<path fill="#010202" d="M584.262,253.678v-9.975c0-0.887-0.293-1.656-0.875-2.311c-0.584-0.652-1.424-0.98-2.521-0.98
			c-2.264,0-3.395,1.098-3.395,3.291v9.975h-1.436v-9.975c0-0.98-0.328-1.762-0.979-2.346c-0.678-0.629-1.482-0.945-2.416-0.945
			c-0.957,0-1.764,0.305-2.414,0.91c-0.654,0.584-0.98,1.377-0.98,2.381v9.975h-1.436v-14.455h1.436v1.436
			c0.701-1.096,1.832-1.645,3.395-1.645c1.867,0,3.244,0.758,4.131,2.273c0.84-1.516,2.205-2.273,4.096-2.273
			c1.445,0,2.611,0.408,3.5,1.225c0.889,0.84,1.33,1.996,1.33,3.465v9.975H584.262L584.262,253.678z"/>
		<path fill="#010202" d="M590.945,243.563c-0.258,0-0.523-0.105-0.807-0.314c-0.209-0.211-0.326-0.49-0.35-0.84
			c0-0.631,0.385-1.018,1.156-1.154c0.582,0,0.967,0.385,1.154,1.154C592.102,243.178,591.717,243.563,590.945,243.563z
			 M590.945,253.889c-0.258,0-0.523-0.105-0.807-0.314c-0.209-0.211-0.326-0.49-0.35-0.84c0-0.631,0.385-1.016,1.156-1.156
			c0.582,0,0.967,0.385,1.154,1.156C592.102,253.504,591.717,253.889,590.945,253.889z"/>
		<path fill="#010202" d="M608.164,253.678v-2.484c-1.518,1.82-3.439,2.73-5.773,2.73c-2.102,0-3.861-0.713-5.285-2.137
			c-1.445-1.445-2.17-3.219-2.17-5.318c0-2.102,0.713-3.861,2.137-5.285c1.445-1.447,3.219-2.17,5.318-2.17
			c2.311,0,4.234,0.91,5.773,2.729v-2.52h1.438v14.453h-1.438V253.678z M606.66,242.197c-1.189-1.189-2.611-1.785-4.27-1.785
			c-1.682,0-3.105,0.584-4.271,1.75c-1.188,1.191-1.785,2.625-1.785,4.307c0,1.656,0.598,3.08,1.785,4.27
			c1.189,1.191,2.613,1.785,4.271,1.785c1.682,0,3.104-0.582,4.27-1.75c1.189-1.189,1.785-2.625,1.785-4.305
			C608.445,244.811,607.852,243.389,606.66,242.197z"/>
		<path fill="#010202" d="M620.693,241.357c-0.373-0.279-0.77-0.5-1.188-0.664c-0.42-0.164-0.863-0.246-1.33-0.246
			c-0.396,0-0.771,0.123-1.119,0.369c-0.354,0.244-0.654,0.547-0.91,0.908c-0.258,0.361-0.461,0.766-0.613,1.209
			c-0.152,0.441-0.227,0.852-0.227,1.225v9.52h-1.438v-14.455h1.438v1.961c0.303-0.537,0.699-1.027,1.188-1.471
			c0.49-0.443,1.027-0.664,1.609-0.664c0.723,0,1.318,0.082,1.785,0.244c0.467,0.164,0.992,0.455,1.576,0.875L620.693,241.357z"/>
		<path fill="#010202" d="M635.641,258.508c-1.309,1.307-3.021,1.961-5.146,1.961c-3.941,0-6.299-1.553-7.068-4.656h1.436
			c0.256,1.145,0.992,1.996,2.205,2.557c0.957,0.441,2.1,0.664,3.43,0.664c1.797,0,3.186-0.502,4.166-1.506
			c1.002-1.002,1.504-2.402,1.504-4.199v-2.135c-1.518,1.82-3.441,2.73-5.775,2.73c-2.1,0-3.861-0.713-5.285-2.137
			c-1.445-1.445-2.17-3.219-2.17-5.318c0-2.102,0.713-3.861,2.137-5.285c1.445-1.447,3.219-2.17,5.318-2.17
			c2.311,0,4.236,0.91,5.775,2.729v-2.52h1.436v14.141C637.602,255.486,636.945,257.201,635.641,258.508z M634.66,242.197
			c-1.189-1.189-2.611-1.785-4.27-1.785c-1.682,0-3.105,0.584-4.271,1.75c-1.188,1.191-1.785,2.625-1.785,4.307
			c0,1.656,0.598,3.08,1.785,4.27c1.189,1.191,2.613,1.785,4.271,1.785c1.682,0,3.104-0.582,4.27-1.75
			c1.189-1.189,1.785-2.625,1.785-4.305C636.445,244.811,635.852,243.389,634.66,242.197z"/>
		<path fill="#010202" d="M651.074,252.418c-0.957,1.027-2.299,1.539-4.023,1.539c-1.703,0-3.021-0.5-3.955-1.504
			c-0.936-1.004-1.4-2.402-1.4-4.199v-9.031h1.436v9.031c0,1.377,0.303,2.438,0.91,3.184c0.631,0.748,1.633,1.121,3.01,1.121
			c2.684,0,4.025-1.436,4.025-4.305v-9.031h1.4v9.031C652.477,250.027,652.01,251.414,651.074,252.418z"/>
		<path fill="#010202" d="M673.336,253.678v-9.975c0-0.887-0.293-1.656-0.875-2.311c-0.584-0.652-1.426-0.98-2.521-0.98
			c-2.264,0-3.395,1.098-3.395,3.291v9.975h-1.436v-9.975c0-0.98-0.328-1.762-0.979-2.346c-0.68-0.629-1.482-0.945-2.416-0.945
			c-0.957,0-1.764,0.305-2.414,0.91c-0.654,0.584-0.98,1.377-0.98,2.381v9.975h-1.436v-14.455h1.436v1.436
			c0.701-1.096,1.832-1.645,3.395-1.645c1.867,0,3.244,0.758,4.131,2.273c0.84-1.516,2.205-2.273,4.096-2.273
			c1.445,0,2.611,0.408,3.5,1.225c0.887,0.84,1.33,1.996,1.33,3.465v9.975H673.336L673.336,253.678z"/>
		<path fill="#010202" d="M679.67,246.152c0,1.961,0.523,3.512,1.574,4.656c1.098,1.166,2.604,1.75,4.516,1.75
			c0.979,0,1.867-0.164,2.66-0.49c1.004-0.42,1.9-1.271,2.693-2.557l1.295,0.596c-0.908,1.729-2.311,2.895-4.197,3.5
			c-0.727,0.232-1.541,0.35-2.451,0.35c-2.17,0-3.955-0.711-5.355-2.135c-1.424-1.422-2.135-3.207-2.135-5.354
			c0-2.17,0.699-3.955,2.1-5.355c1.424-1.422,3.221-2.135,5.391-2.135c2.145,0,3.92,0.664,5.318,1.994
			c1.426,1.33,2.137,3.059,2.137,5.182H679.67V246.152z M689.539,241.568c-1.098-0.793-2.355-1.189-3.779-1.189
			c-2.986,0-4.945,1.469-5.879,4.408h11.725C691.369,243.457,690.684,242.385,689.539,241.568z"/>
		<path fill="#010202" d="M706.27,253.678v-8.645c0-3.057-1.377-4.586-4.129-4.586c-1.355,0-2.381,0.396-3.08,1.189
			c-0.725,0.793-1.086,1.879-1.086,3.256v8.783h-1.438v-14.455h1.438v1.75c0.654-1.281,2.041-1.924,4.166-1.924
			c1.795,0,3.172,0.514,4.129,1.539c0.957,1.027,1.436,2.463,1.436,4.305v8.785h-1.436V253.678z"/>
		<path fill="#010202" d="M714.492,240.658v13.02h-1.436v-13.02h-1.959v-1.438h1.959v-6.334h1.436v6.334h3.359v1.438H714.492z"/>
		<path fill="#010202" d="M732.344,239.434c-1.309,1.166-2.916,1.75-4.83,1.75h-4.689v12.494h-1.4v-24.99h6.09
			c1.914,0,3.523,0.561,4.83,1.682c1.307,1.119,1.961,2.625,1.961,4.514C734.305,236.797,733.648,238.313,732.344,239.434z
			 M731.26,231.313c-0.957-0.793-2.219-1.189-3.781-1.189h-4.654v9.625h4.654c1.541,0,2.824-0.42,3.852-1.26
			c1.025-0.889,1.539-2.088,1.539-3.605C732.867,233.367,732.33,232.176,731.26,231.313z"/>
		<path fill="#010202" d="M745.504,253.678v-2.484c-1.52,1.82-3.441,2.73-5.775,2.73c-2.1,0-3.861-0.713-5.285-2.137
			c-1.445-1.445-2.17-3.219-2.17-5.318c0-2.102,0.713-3.861,2.137-5.285c1.445-1.447,3.219-2.17,5.318-2.17
			c2.311,0,4.234,0.91,5.773,2.729v-2.52h1.438v14.453h-1.436V253.678z M743.998,242.197c-1.189-1.189-2.611-1.785-4.27-1.785
			c-1.68,0-3.105,0.584-4.271,1.75c-1.188,1.191-1.783,2.625-1.783,4.307c0,1.656,0.596,3.08,1.783,4.27
			c1.189,1.191,2.613,1.785,4.271,1.785c1.682,0,3.104-0.582,4.27-1.75c1.189-1.189,1.785-2.625,1.785-4.305
			C745.783,244.811,745.189,243.389,743.998,242.197z"/>
		<path fill="#010202" d="M753.379,240.658v13.02h-1.438v-13.02h-1.959v-1.438h1.959v-6.334h1.438v6.334h3.357v1.438H753.379z"/>
		<path fill="#010202" d="M770.246,253.713v-8.715c0-3.057-1.422-4.586-4.27-4.586c-1.166,0-2.17,0.352-3.01,1.051
			c-0.863,0.699-1.295,1.633-1.295,2.801v9.414h-1.436v-25.898h1.436v13.369c0.863-1.424,2.299-2.135,4.305-2.135
			c3.803,0,5.705,1.947,5.705,5.846v8.854H770.246L770.246,253.713z"/>
		<path fill="#010202" d="M783.023,252.768c-0.934,0.793-2.053,1.189-3.359,1.189c-2.24,0-3.92-1.016-5.041-3.045l1.227-0.736
			c0.396,0.727,0.875,1.285,1.434,1.682c0.584,0.443,1.377,0.666,2.381,0.666c2.193,0,3.289-0.936,3.289-2.803
			c0-0.814-0.385-1.525-1.152-2.135c-0.234-0.139-0.566-0.297-0.998-0.473c-0.434-0.174-0.963-0.379-1.594-0.611
			c-1.168-0.42-2.008-0.84-2.52-1.26c-0.748-0.607-1.121-1.482-1.121-2.625c0-0.98,0.373-1.82,1.121-2.521
			c0.723-0.723,1.668-1.084,2.834-1.084c1.611,0,2.975,0.561,4.096,1.68l-1.051,0.91c-0.793-0.793-1.809-1.189-3.045-1.189
			c-1.68,0-2.52,0.734-2.52,2.205c0,0.652,0.256,1.189,0.77,1.609c0.42,0.326,1.086,0.643,1.996,0.945
			c0.793,0.279,1.445,0.541,1.959,0.787c0.514,0.244,0.898,0.461,1.156,0.646c1.002,0.771,1.504,1.809,1.504,3.113
			C784.389,250.982,783.934,251.998,783.023,252.768z"/>
	</g>
</g>
<g>
	<g>
		<path fill="none" stroke="#010202" stroke-miterlimit="10" d="M521.254,141.025c0-69.698-4.422-119.422,60.129-123.5"/>
		<g>
			<polygon fill="#010202" points="577.398,23.32 579.539,17.676 576.965,12.219 590.34,17.254 			"/>
		</g>
	</g>
</g>
<g>
	<g>
		<path fill="none" stroke="#010202" stroke-miterlimit="10" d="M369.162,170.412c-69.695,0-119.422,4.42-123.5-60.129"/>
		<g>
			<polygon fill="#010202" points="251.457,114.266 245.814,112.125 240.357,114.701 245.393,101.326 			"/>
		</g>
	</g>
</g>
<g>
	<rect x="598.684" fill="none" width="245.412" height="36.508"/>
	<path fill="#010202" d="M605.279,19.311c-0.934-0.719-1.4-1.572-1.4-2.563c0-0.672,0.166-1.307,0.496-1.906
		c0.33-0.598,1.07-1.541,2.221-2.828c0.912-1.014,1.584-1.891,2.018-2.631s0.648-1.477,0.648-2.205c0-1.129-0.416-2.064-1.246-2.811
		c-0.832-0.746-1.848-1.121-3.043-1.121c-0.672,0-1.4,0.154-2.188,0.463c-0.318,0.307-0.604,0.734-0.854,1.281l-0.65,1.299
		l-0.205,0.137l-0.752-0.086l-0.102-0.238l1.314-3.965c1.334-0.865,2.785-1.299,4.357-1.299c1.207,0,2.314,0.219,3.324,0.658
		c1.008,0.438,1.801,1.09,2.375,1.955c0.574,0.867,0.863,1.842,0.863,2.924c0,0.717-0.117,1.389-0.352,2.016
		c-0.232,0.627-0.574,1.24-1.025,1.838c-0.449,0.598-1.313,1.467-2.588,2.605c-0.811,0.719-1.428,1.305-1.854,1.76
		c-0.428,0.457-0.75,0.898-0.965,1.326c-0.219,0.426-0.326,0.816-0.326,1.17c0,0.594,0.229,1.141,0.684,1.641l-0.033,0.238
		l-0.443,0.344h-0.275V19.311z M605.605,21.533c0.57,0,1.053,0.199,1.453,0.598c0.396,0.398,0.598,0.883,0.598,1.453
		c0,0.559-0.199,1.037-0.598,1.436c-0.4,0.398-0.883,0.598-1.453,0.598c-0.559,0-1.039-0.199-1.443-0.598s-0.605-0.877-0.605-1.436
		c0-0.582,0.205-1.068,0.615-1.461S605.059,21.533,605.605,21.533z"/>
	<path fill="#010202" d="M620.131,9.023l0.324,0.223c-0.125,1.492-0.188,3.389-0.188,5.689v3.98c0,1.459,0.111,2.473,0.334,3.043
		s0.607,1.006,1.154,1.309s1.193,0.451,1.945,0.451c0.832,0,1.592-0.16,2.273-0.484c0.684-0.326,1.256-0.783,1.719-1.377
		c0.461-0.594,0.727-0.99,0.793-1.195c0.068-0.205,0.115-0.781,0.137-1.727l0.053-1.914v-1.848c0-0.455-0.023-1.076-0.068-1.861
		s-0.082-1.271-0.111-1.453c-0.027-0.182-0.115-0.314-0.264-0.4s-0.445-0.129-0.889-0.129l-1.438-0.018l-0.154-0.137v-0.734
		l0.139-0.139c2.176-0.262,4.01-0.688,5.504-1.279l0.324,0.223c-0.127,1.492-0.189,3.389-0.189,5.689v3.008
		c0,0.172,0.027,1.566,0.086,4.188c0.021,0.969,0.082,1.559,0.18,1.77s0.23,0.359,0.4,0.443c0.172,0.086,0.678,0.129,1.521,0.129
		h0.479l0.154,0.137v0.684l-0.139,0.154c-1.605-0.092-2.682-0.137-3.229-0.137c-0.695,0-1.498,0.039-2.41,0.119l-0.154-0.137
		c0.068-1.162,0.121-2.146,0.154-2.957c-0.717,0.559-1.537,1.305-2.461,2.238c-0.354,0.354-0.859,0.648-1.521,0.889
		c-0.658,0.24-1.41,0.359-2.256,0.359c-1.273,0-2.27-0.203-2.98-0.605c-0.713-0.404-1.217-0.963-1.512-1.676
		c-0.299-0.711-0.445-1.939-0.445-3.684l0.018-1.352v-3.332c0-0.455-0.021-1.076-0.068-1.861c-0.045-0.785-0.082-1.271-0.109-1.453
		c-0.029-0.184-0.117-0.314-0.266-0.4s-0.445-0.129-0.889-0.129l-1.436-0.018l-0.154-0.137v-0.734l0.137-0.139
		C616.805,10.043,618.639,9.615,620.131,9.023z"/>
	<path fill="#010202" d="M638.945,13.723l-0.666-0.17l-0.137-0.172v-2.119c2.027-1.504,3.998-2.256,5.912-2.256
		c1.311,0,2.398,0.246,3.266,0.734c0.865,0.49,1.492,1.104,1.879,1.838c0.389,0.734,0.582,1.592,0.582,2.572l-0.086,3.436v5.092
		c0,0.695,0.049,1.117,0.146,1.266c0.096,0.148,0.207,0.248,0.334,0.299c0.125,0.051,0.357,0.094,0.699,0.129l0.975,0.084
		l0.137,0.154v0.684l-0.137,0.137c-0.832-0.066-1.605-0.102-2.324-0.102c-0.684,0-1.504,0.033-2.461,0.102l-0.256-0.238l0.068-2.75
		l-3.727,2.902c-0.627,0.264-1.311,0.395-2.051,0.395c-0.912,0-1.695-0.164-2.35-0.494c-0.656-0.33-1.158-0.793-1.506-1.385
		c-0.348-0.594-0.52-1.313-0.52-2.154c0-1.674,0.521-2.98,1.572-3.922c1.047-0.939,3.906-1.74,8.578-2.4
		c0-1.686-0.375-2.873-1.129-3.563c-0.752-0.691-1.76-1.035-3.023-1.035c-0.66,0-1.262,0.098-1.803,0.291
		c-0.541,0.191-0.854,0.35-0.932,0.471c-0.08,0.119-0.389,0.816-0.924,2.092L638.945,13.723z M646.877,16.424
		c-3.191,0.535-5.18,1.109-5.967,1.727c-0.783,0.613-1.178,1.566-1.178,2.854c0,1.777,0.883,2.666,2.648,2.666
		c1.516,0,3.014-0.877,4.494-2.633v-4.613H646.877z"/>
	<path fill="#010202" d="M654.736,21.107c-0.398-1.047-0.707-1.748-0.922-2.104l0.17-0.479c0.229-0.057,0.826-0.281,1.795-0.674
		c0.969-0.395,1.848-0.771,2.631-1.137l-4.441-2.137c-0.023,0-0.068-0.012-0.137-0.035l-0.068-0.375
		c0.24-0.387,0.643-1.094,1.213-2.119h0.41l3.539,3.691l1.008-4.871l0.273-0.189c0.752,0.252,1.49,0.457,2.221,0.615l0.086,0.342
		c-0.262,0.445-0.645,1.088-1.146,1.924c-0.502,0.838-0.969,1.699-1.4,2.59c0.934-0.125,1.727-0.25,2.377-0.377
		c1.457-0.283,2.26-0.428,2.408-0.428l0.324,0.238c0.033,0.582,0.178,1.328,0.428,2.24l-0.342,0.271
		c-1.516-0.375-3.246-0.678-5.195-0.904c0.535,1.014,0.934,1.748,1.197,2.205c0.604,1.047,0.957,1.703,1.059,1.965l-0.051,0.443
		c-0.297,0.137-0.725,0.377-1.281,0.719c-0.365,0.217-0.633,0.371-0.803,0.461l-0.428-0.154l-0.734-5.16l-3.729,3.486
		L654.736,21.107z"/>
	<path fill="#010202" d="M673.041,19.311c-0.936-0.719-1.4-1.572-1.4-2.563c0-0.672,0.164-1.307,0.496-1.906
		c0.33-0.598,1.068-1.541,2.221-2.828c0.912-1.014,1.584-1.891,2.018-2.631s0.648-1.477,0.648-2.205
		c0-1.129-0.416-2.064-1.248-2.811s-1.846-1.121-3.041-1.121c-0.674,0-1.402,0.154-2.189,0.463
		c-0.318,0.307-0.604,0.734-0.854,1.281l-0.648,1.299l-0.205,0.137l-0.752-0.086l-0.104-0.238l1.314-3.965
		c1.334-0.865,2.787-1.299,4.359-1.299c1.207,0,2.314,0.219,3.324,0.658c1.008,0.438,1.799,1.09,2.375,1.955
		c0.574,0.867,0.863,1.842,0.863,2.924c0,0.717-0.117,1.389-0.352,2.016c-0.232,0.627-0.576,1.24-1.025,1.838
		s-1.313,1.467-2.59,2.605c-0.809,0.719-1.426,1.305-1.854,1.76c-0.426,0.457-0.748,0.898-0.965,1.326
		c-0.217,0.426-0.324,0.816-0.324,1.17c0,0.594,0.229,1.141,0.684,1.641l-0.033,0.238l-0.445,0.344h-0.273V19.311z M673.365,21.533
		c0.57,0,1.055,0.199,1.453,0.598s0.6,0.883,0.6,1.453c0,0.559-0.201,1.037-0.6,1.436s-0.883,0.598-1.453,0.598
		c-0.559,0-1.039-0.199-1.443-0.598s-0.605-0.877-0.605-1.436c0-0.582,0.205-1.068,0.615-1.461S672.818,21.533,673.365,21.533z"/>
	<path fill="#010202" d="M693.482,2.137V1.418l0.137-0.154c2.176-0.25,4.01-0.672,5.502-1.264l0.324,0.205
		c-0.125,1.311-0.188,3.936-0.188,7.879v11.193c0,1.148,0.021,2.154,0.061,3.016s0.111,1.371,0.213,1.529
		c0.105,0.16,0.271,0.291,0.506,0.395c0.232,0.102,0.896,0.199,1.99,0.289l0.154,0.139v0.648l-0.154,0.154
		c-1.229-0.08-2.188-0.121-2.871-0.121c-0.615,0-1.492,0.041-2.633,0.121l-0.188-0.189c0.033-1.115,0.051-1.896,0.051-2.34
		c0-0.057,0.006-0.273,0.018-0.65c-0.627,0.457-1.254,0.963-1.879,1.521c-0.924,0.82-1.527,1.332-1.813,1.537
		c-0.523,0.262-1.271,0.395-2.238,0.395c-1.572,0-2.908-0.389-4.008-1.162c-1.1-0.775-1.883-1.764-2.35-2.965
		c-0.469-1.203-0.701-2.436-0.701-3.701c0-1.287,0.242-2.525,0.727-3.717c0.482-1.189,1.174-2.059,2.066-2.605
		c0.895-0.545,1.869-1.113,2.924-1.701c1.055-0.586,2.1-0.879,3.137-0.879c1.445,0,2.824,0.357,4.135,1.076l-0.068-3.813
		c-0.021-1.32-0.057-2.24-0.102-2.76c-0.047-0.52-0.104-0.826-0.172-0.922c-0.068-0.098-0.186-0.168-0.352-0.215
		c-0.164-0.045-0.855-0.068-2.076-0.068L693.482,2.137z M696.402,12.988c-0.707-0.797-1.49-1.406-2.35-1.828
		s-1.725-0.633-2.59-0.633c-0.957,0-1.85,0.26-2.674,0.775c-0.826,0.521-1.422,1.289-1.785,2.309
		c-0.365,1.02-0.547,2.129-0.547,3.324c0,1.992,0.504,3.596,1.512,4.803s2.275,1.811,3.803,1.811c0.832,0,1.568-0.189,2.213-0.572
		c0.645-0.381,1.174-0.896,1.59-1.545c0.416-0.65,0.658-1.301,0.727-1.949c0.07-0.648,0.104-1.84,0.104-3.572v-2.922H696.402z"/>
	<path fill="#010202" d="M704.145,11.895v-0.445l0.121-0.17c1.068-0.398,1.936-0.771,2.598-1.111c0-2.973-0.035-4.705-0.104-5.195
		c1.174-0.41,2.137-0.848,2.889-1.314L710.059,4c-0.115,0.717-0.252,2.803-0.41,6.254c0.568,0.014,1.186,0.02,1.846,0.02
		c1.344,0,2.307-0.035,2.889-0.105l0.119,0.121l-0.324,1.436l-0.137,0.152c-0.582-0.01-1.227-0.016-1.932-0.016
		c-0.639,0-1.459,0.006-2.461,0.016l-0.104,6.957c0,1.605,0.037,2.656,0.111,3.152c0.072,0.496,0.277,0.883,0.615,1.162
		c0.336,0.279,0.834,0.418,1.494,0.418c0.764,0,1.471-0.199,2.119-0.598l0.41,0.615c-0.273,0.193-0.93,0.764-1.965,1.709
		c-0.594,0.273-1.197,0.41-1.813,0.41c-2.564,0-3.846-1.242-3.846-3.727c0-0.91,0.021-1.688,0.068-2.324
		c0.012-0.193,0.018-0.395,0.018-0.6v-7.092h-0.701c-0.512,0-1.1,0.023-1.76,0.068L704.145,11.895z"/>
</g>
<g>
	<g>
		<line fill="none" stroke="#010202" stroke-miterlimit="10" x1="521.254" y1="199.928" x2="521.254" y2="292.391"/>
		<g>
			<polygon fill="#010202" points="515.697,288.178 521.254,290.537 526.809,288.178 521.254,301.346 			"/>
		</g>
	</g>
</g>
<g>
	<g>
		<rect x="248.6" y="363.265" fill="none" width="78.979" height="36.508"/>
		<path fill="#010202" d="M266.441,382.575c-0.934-0.717-1.4-1.572-1.4-2.564c0-0.672,0.164-1.307,0.496-1.904
			c0.33-0.6,1.07-1.541,2.223-2.828c0.912-1.016,1.584-1.893,2.018-2.633c0.432-0.74,0.648-1.477,0.648-2.203
			c0-1.129-0.416-2.066-1.248-2.813c-0.832-0.748-1.848-1.121-3.041-1.121c-0.674,0-1.402,0.154-2.189,0.463
			c-0.318,0.309-0.604,0.734-0.854,1.281l-0.648,1.299l-0.205,0.139l-0.752-0.086l-0.104-0.24l1.314-3.965
			c1.334-0.865,2.785-1.299,4.357-1.299c1.207,0,2.316,0.221,3.324,0.658s1.801,1.09,2.375,1.955
			c0.576,0.867,0.863,1.842,0.863,2.924c0,0.719-0.117,1.391-0.35,2.018c-0.234,0.627-0.576,1.238-1.025,1.836
			c-0.451,0.6-1.314,1.469-2.59,2.605c-0.809,0.719-1.426,1.307-1.854,1.762c-0.43,0.457-0.75,0.896-0.967,1.324
			s-0.324,0.816-0.324,1.172c0,0.592,0.229,1.139,0.684,1.641l-0.033,0.238l-0.445,0.342H266.441L266.441,382.575z M266.77,384.798
			c0.568,0,1.053,0.199,1.451,0.598c0.396,0.398,0.6,0.883,0.6,1.453c0,0.559-0.201,1.037-0.6,1.436
			c-0.4,0.4-0.883,0.598-1.451,0.598c-0.561,0-1.041-0.197-1.445-0.598c-0.404-0.398-0.605-0.877-0.605-1.436
			c0-0.582,0.205-1.068,0.615-1.463C265.742,384.993,266.223,384.798,266.77,384.798z"/>
		<path fill="#010202" d="M285.225,387.702l0.137,0.137v0.719l-0.137,0.152c-0.355,0-1.021-0.021-2-0.066
			c-0.889-0.047-1.805-0.068-2.75-0.068c-1.23,0-2.605,0.045-4.119,0.137l-0.137-0.152v-0.721l0.137-0.137
			c1.104-0.068,1.732-0.119,1.879-0.152c0.148-0.033,0.273-0.104,0.377-0.215c0.102-0.105,0.174-0.271,0.213-0.494
			c0.041-0.223,0.086-0.957,0.137-2.205c0.053-1.248,0.078-2.189,0.078-2.828v-6.598l-2.205,0.119l-0.154-0.137v-0.426l0.119-0.172
			l2.24-1.145v-1.025c0-1.141,0.051-2.002,0.152-2.59c0.104-0.586,0.295-1.129,0.574-1.623c0.275-0.496,0.766-1.123,1.461-1.881
			c0.693-0.758,1.305-1.377,1.828-1.863c0.521-0.482,0.979-0.809,1.367-0.973c0.387-0.166,0.844-0.248,1.365-0.248
			c0.436,0,0.9,0.086,1.4,0.256l-0.016,2.803l-0.395,0.154c-0.637-0.57-1.377-0.854-2.221-0.854c-0.592,0-1.105,0.121-1.539,0.365
			c-0.432,0.246-0.73,0.645-0.889,1.197s-0.238,1.467-0.238,2.742v3.539h1.828c0.943,0,1.84-0.035,2.684-0.105l0.154,0.189
			l-0.311,1.504l-0.152,0.17c-0.342-0.012-0.564-0.018-0.666-0.018l-2.223-0.018h-1.314v6.889c0,0.363,0.025,1.199,0.076,2.504
			c0.053,1.305,0.1,2.07,0.145,2.299c0.045,0.227,0.121,0.393,0.23,0.494c0.107,0.104,0.285,0.178,0.529,0.223
			C283.117,387.628,283.9,387.669,285.225,387.702z"/>
		<path fill="#010202" d="M288.197,380.747c0-1.355,0.279-2.664,0.838-3.922c0.559-1.26,1.529-2.348,2.912-3.266
			c1.385-0.916,3.027-1.375,4.934-1.375c2.393,0,4.34,0.756,5.844,2.264c1.504,1.512,2.256,3.451,2.256,5.82
			c0,2.607-0.863,4.756-2.588,6.441c-1.729,1.688-3.811,2.529-6.246,2.529c-1.596,0-3.021-0.432-4.273-1.291
			c-1.254-0.859-2.18-1.91-2.777-3.152S288.197,382.206,288.197,380.747z M291.43,379.567c0,1.596,0.205,3.021,0.615,4.279
			c0.408,1.262,1.059,2.271,1.945,3.033c0.891,0.766,1.902,1.146,3.043,1.146c1.346,0,2.453-0.531,3.332-1.598
			c0.877-1.064,1.316-2.67,1.316-4.813c0-2.426-0.477-4.414-1.428-5.963c-0.951-1.551-2.322-2.324-4.109-2.324
			c-1.482,0-2.639,0.535-3.471,1.605C291.844,376.007,291.43,377.552,291.43,379.567z"/>
		<path fill="#010202" d="M312.518,372.288l0.324,0.221c-0.125,1.494-0.189,3.391-0.189,5.691v3.863c0,0.25,0.023,1.057,0.068,2.418
			c0.045,1.359,0.094,2.154,0.145,2.383c0.053,0.229,0.129,0.395,0.23,0.496c0.104,0.104,0.229,0.168,0.377,0.195
			c0.148,0.029,0.764,0.076,1.846,0.146l0.154,0.137v0.719l-0.137,0.152c-1.426-0.09-2.797-0.137-4.119-0.137
			c-1.311,0-2.678,0.047-4.102,0.137l-0.154-0.152v-0.719l0.154-0.137c1.105-0.068,1.729-0.119,1.871-0.154
			c0.141-0.033,0.268-0.104,0.377-0.213c0.107-0.107,0.182-0.273,0.221-0.496c0.041-0.223,0.086-0.957,0.137-2.205
			c0.053-1.246,0.078-2.189,0.078-2.828v-3.365c0-0.455-0.023-1.076-0.068-1.863c-0.047-0.785-0.084-1.27-0.111-1.453
			c-0.027-0.182-0.117-0.314-0.266-0.4s-0.443-0.129-0.889-0.129l-1.436-0.018l-0.154-0.137v-0.734l0.137-0.137
			C309.191,373.308,311.023,372.88,312.518,372.288z M311.064,364.647c0.535,0,0.992,0.188,1.367,0.563
			c0.377,0.377,0.563,0.832,0.563,1.367c0,0.525-0.188,0.975-0.563,1.352c-0.375,0.375-0.832,0.563-1.367,0.563
			c-0.523,0-0.977-0.186-1.357-0.555c-0.383-0.369-0.574-0.822-0.574-1.359c0-0.535,0.191-0.99,0.574-1.367
			C310.088,364.837,310.539,364.647,311.064,364.647z"/>
	</g>
	<g>
		<rect x="714.93" y="327.686" fill="none" width="78.979" height="36.509"/>
		<path fill="#010202" d="M736.85,346.997c-0.936-0.717-1.4-1.572-1.4-2.563c0-0.674,0.164-1.309,0.496-1.906
			c0.33-0.6,1.07-1.541,2.221-2.828c0.912-1.014,1.584-1.891,2.018-2.633c0.432-0.74,0.648-1.477,0.648-2.203
			c0-1.13-0.416-2.067-1.248-2.813c-0.832-0.748-1.846-1.121-3.041-1.121c-0.674,0-1.402,0.154-2.188,0.463
			c-0.32,0.309-0.605,0.734-0.855,1.281l-0.648,1.299l-0.205,0.139l-0.752-0.086l-0.104-0.24l1.316-3.965
			c1.334-0.865,2.785-1.299,4.357-1.299c1.207,0,2.314,0.221,3.322,0.658s1.803,1.092,2.375,1.955
			c0.576,0.867,0.863,1.842,0.863,2.924c0,0.72-0.117,1.392-0.35,2.019c-0.234,0.627-0.576,1.238-1.025,1.836
			c-0.451,0.6-1.313,1.469-2.59,2.607c-0.809,0.717-1.426,1.305-1.854,1.76c-0.428,0.457-0.75,0.896-0.965,1.324
			c-0.217,0.428-0.326,0.816-0.326,1.172c0,0.592,0.229,1.139,0.684,1.641l-0.033,0.238l-0.445,0.342H736.85L736.85,346.997z
			 M737.176,349.22c0.566,0,1.053,0.199,1.451,0.598c0.396,0.398,0.6,0.883,0.6,1.453c0,0.559-0.201,1.037-0.6,1.436
			c-0.4,0.4-0.885,0.598-1.451,0.598c-0.561,0-1.041-0.197-1.445-0.598c-0.404-0.398-0.605-0.877-0.605-1.436
			c0-0.582,0.205-1.068,0.615-1.461C736.148,349.415,736.629,349.22,737.176,349.22z"/>
		<path fill="#010202" d="M757.287,329.82v-0.717l0.139-0.154c2.176-0.25,4.01-0.672,5.502-1.264l0.326,0.205
			c-0.127,1.311-0.189,3.936-0.189,7.878v11.193c0,1.15,0.021,2.156,0.061,3.018c0.039,0.859,0.111,1.371,0.213,1.527
			c0.104,0.16,0.271,0.291,0.506,0.395c0.232,0.104,0.896,0.201,1.99,0.291l0.154,0.137v0.65l-0.154,0.152
			c-1.23-0.08-2.188-0.121-2.871-0.121c-0.615,0-1.492,0.041-2.633,0.121l-0.188-0.188c0.035-1.115,0.051-1.896,0.051-2.342
			c0-0.057,0.006-0.273,0.018-0.648c-0.627,0.455-1.254,0.963-1.879,1.521c-0.924,0.818-1.527,1.332-1.813,1.535
			c-0.523,0.264-1.271,0.395-2.238,0.395c-1.572,0-2.908-0.387-4.008-1.162c-1.102-0.773-1.883-1.762-2.35-2.965
			c-0.469-1.201-0.701-2.436-0.701-3.699c0-1.287,0.24-2.527,0.727-3.717c0.484-1.191,1.174-2.061,2.068-2.607
			c0.893-0.545,1.867-1.111,2.922-1.699s2.1-0.881,3.137-0.881c1.445,0,2.824,0.359,4.135,1.076l-0.068-3.812
			c-0.023-1.32-0.057-2.24-0.102-2.762c-0.047-0.518-0.104-0.824-0.172-0.922s-0.186-0.168-0.35-0.215
			c-0.166-0.045-0.857-0.066-2.076-0.066L757.287,329.82z M760.211,340.675c-0.707-0.799-1.49-1.406-2.352-1.83
			c-0.857-0.42-1.723-0.631-2.59-0.631c-0.957,0-1.848,0.258-2.674,0.777c-0.826,0.518-1.422,1.287-1.785,2.307
			c-0.365,1.02-0.547,2.127-0.547,3.324c0,1.994,0.504,3.594,1.512,4.803c1.008,1.207,2.275,1.811,3.803,1.811
			c0.832,0,1.568-0.189,2.215-0.572c0.645-0.381,1.174-0.896,1.59-1.547c0.416-0.648,0.656-1.299,0.727-1.947
			c0.068-0.65,0.102-1.84,0.102-3.572V340.675L760.211,340.675z"/>
		<path fill="#010202" d="M767.951,339.581v-0.445l0.119-0.17c1.07-0.398,1.939-0.77,2.6-1.111c0-2.975-0.035-4.706-0.105-5.196
			c1.174-0.41,2.137-0.848,2.889-1.316l0.41,0.344c-0.111,0.719-0.25,2.804-0.41,6.257c0.57,0.012,1.188,0.016,1.848,0.016
			c1.344,0,2.307-0.033,2.889-0.102l0.119,0.117l-0.324,1.438l-0.137,0.154c-0.582-0.014-1.225-0.02-1.932-0.02
			c-0.641,0-1.459,0.006-2.463,0.02l-0.102,6.955c0,1.605,0.037,2.656,0.111,3.152c0.072,0.496,0.277,0.883,0.615,1.162
			c0.336,0.279,0.834,0.418,1.494,0.418c0.764,0,1.471-0.199,2.119-0.598l0.41,0.615c-0.273,0.193-0.928,0.764-1.965,1.709
			c-0.592,0.273-1.197,0.41-1.814,0.41c-2.563,0-3.844-1.242-3.844-3.727c0-0.91,0.021-1.688,0.068-2.324
			c0.01-0.193,0.016-0.393,0.016-0.598v-7.092h-0.699c-0.514,0-1.1,0.021-1.762,0.066L767.951,339.581z"/>
	</g>
	<circle fill="#EEEDED" stroke="#010202" stroke-width="0.2492" stroke-miterlimit="10" cx="288.088" cy="343.475" r="13.79"/>
	<g>
		<g>
			<path fill="#010202" d="M328.152,334.053c-1.24,1.241-2.762,1.862-4.561,1.862c-2.061,0-3.762-0.84-5.102-2.522v8.132h-1.229
				v-18.212h1.229v2.342c1.281-1.682,2.98-2.521,5.102-2.521c1.799,0,3.311,0.609,4.529,1.828c1.24,1.242,1.859,2.762,1.859,4.563
				C329.982,331.324,329.371,332.834,328.152,334.053z M327.254,325.863c-1.021-1.021-2.24-1.529-3.66-1.529
				c-1.441,0-2.66,0.5-3.66,1.5c-1.021,1.02-1.531,2.25-1.531,3.689c0,1.42,0.51,2.641,1.531,3.66c1.02,1.02,2.238,1.528,3.66,1.528
				c1.438,0,2.658-0.499,3.66-1.501c1.02-1.02,1.527-2.25,1.527-3.688C328.781,328.104,328.273,326.883,327.254,325.863z"/>
			<path fill="#010202" d="M338.563,325.143c-0.32-0.238-0.66-0.43-1.021-0.568c-0.357-0.141-0.738-0.211-1.141-0.211
				c-0.34,0-0.66,0.104-0.959,0.314c-0.301,0.209-0.561,0.471-0.779,0.779c-0.221,0.313-0.396,0.654-0.525,1.035
				c-0.129,0.379-0.193,0.73-0.193,1.049v8.161h-1.23v-12.39h1.23v1.68c0.26-0.461,0.6-0.881,1.02-1.26
				c0.42-0.381,0.881-0.57,1.381-0.57c0.619,0,1.129,0.07,1.529,0.209c0.4,0.141,0.85,0.391,1.35,0.75L338.563,325.143z"/>
			<path fill="#010202" d="M350.143,334.053c-1.24,1.241-2.76,1.862-4.561,1.862s-3.311-0.611-4.529-1.831
				c-1.24-1.24-1.859-2.76-1.859-4.561c0-1.779,0.619-3.289,1.859-4.529c1.221-1.262,2.729-1.891,4.529-1.891
				c1.779,0,3.289,0.619,4.529,1.857c1.24,1.242,1.859,2.762,1.859,4.563C351.973,331.324,351.361,332.834,350.143,334.053z
				 M349.273,325.834c-1-1.021-2.23-1.531-3.691-1.531c-1.398,0-2.609,0.521-3.629,1.561c-1.041,1.041-1.561,2.262-1.561,3.66
				c0,1.42,0.51,2.641,1.529,3.66s2.238,1.53,3.66,1.53c1.439,0,2.658-0.501,3.66-1.501c1.021-1.02,1.529-2.25,1.529-3.689
				C350.773,328.064,350.273,326.834,349.273,325.834z"/>
			<path fill="#010202" d="M365.893,334.053c-1.24,1.241-2.76,1.862-4.563,1.862c-2.059,0-3.76-0.84-5.1-2.522v8.132h-1.229v-18.212
				h1.229v2.342c1.279-1.682,2.98-2.521,5.1-2.521c1.803,0,3.313,0.609,4.531,1.828c1.24,1.242,1.859,2.762,1.859,4.563
				C367.723,331.324,367.111,332.834,365.893,334.053z M364.99,325.863c-1.02-1.021-2.24-1.529-3.66-1.529
				c-1.438,0-2.658,0.5-3.658,1.5c-1.021,1.02-1.529,2.25-1.529,3.689c0,1.42,0.51,2.641,1.529,3.66s2.238,1.528,3.658,1.528
				c1.441,0,2.66-0.499,3.66-1.501c1.021-1.02,1.531-2.25,1.531-3.688C366.521,328.104,366.012,326.883,364.99,325.863z"/>
			<path fill="#010202" d="M376.541,334.925c-0.801,0.68-1.76,1.02-2.881,1.02c-1.92,0-3.357-0.869-4.318-2.61l1.051-0.631
				c0.34,0.621,0.75,1.102,1.229,1.441c0.5,0.38,1.182,0.569,2.039,0.569c1.881,0,2.82-0.8,2.82-2.399c0-0.701-0.33-1.311-0.99-1.83
				c-0.199-0.121-0.484-0.256-0.854-0.406c-0.369-0.148-0.824-0.324-1.365-0.523c-1-0.359-1.721-0.721-2.16-1.08
				c-0.641-0.521-0.959-1.271-0.959-2.25c0-0.84,0.318-1.561,0.959-2.16c0.621-0.619,1.432-0.93,2.432-0.93
				c1.379,0,2.549,0.479,3.51,1.439l-0.9,0.779c-0.68-0.68-1.551-1.02-2.609-1.02c-1.439,0-2.158,0.629-2.158,1.889
				c0,0.561,0.219,1.021,0.658,1.381c0.359,0.279,0.932,0.551,1.711,0.811c0.68,0.24,1.238,0.465,1.68,0.674
				c0.439,0.211,0.77,0.396,0.99,0.557c0.857,0.66,1.291,1.551,1.291,2.67C377.713,333.393,377.32,334.264,376.541,334.925z"/>
			<path fill="#010202" d="M380.922,327.033c-0.223,0-0.451-0.09-0.689-0.271c-0.182-0.18-0.281-0.42-0.301-0.721
				c0-0.539,0.33-0.869,0.99-0.988c0.5,0,0.828,0.33,0.988,0.988C381.91,326.703,381.58,327.033,380.922,327.033z M380.922,335.884
				c-0.223,0-0.451-0.09-0.689-0.27c-0.182-0.18-0.281-0.42-0.301-0.721c0-0.539,0.33-0.87,0.99-0.989
				c0.5,0,0.828,0.328,0.988,0.989C381.91,335.554,381.58,335.884,380.922,335.884z"/>
			<path fill="#010202" d="M396.012,335.704v-2.222c-1.32,1.622-3,2.433-5.039,2.433c-1.801,0-3.313-0.611-4.531-1.831
				c-1.24-1.24-1.859-2.76-1.859-4.561s0.609-3.311,1.83-4.529c1.24-1.24,2.76-1.861,4.561-1.861c1.979,0,3.66,0.811,5.039,2.432
				v-12.061h1.23v22.2H396.012L396.012,335.704z M394.631,325.863c-1.021-1.021-2.24-1.529-3.658-1.529c-1.441,0-2.66,0.5-3.66,1.5
				c-1.021,1.02-1.531,2.25-1.531,3.689c0,1.42,0.51,2.641,1.531,3.66c1.02,1.02,2.238,1.528,3.66,1.528
				c1.438,0,2.658-0.499,3.658-1.501c1.021-1.02,1.529-2.25,1.529-3.688C396.16,328.104,395.65,326.883,394.631,325.863z"/>
			<path fill="#010202" d="M401.141,329.254c0,1.68,0.451,3.01,1.352,3.99c0.939,1,2.229,1.501,3.869,1.501
				c0.84,0,1.602-0.141,2.279-0.42c0.859-0.362,1.631-1.091,2.311-2.192l1.109,0.512c-0.779,1.479-1.979,2.479-3.6,3.001
				c-0.619,0.199-1.32,0.299-2.1,0.299c-1.859,0-3.391-0.609-4.592-1.831c-1.219-1.219-1.83-2.75-1.83-4.59
				c0-1.859,0.602-3.391,1.801-4.59c1.221-1.221,2.762-1.83,4.621-1.83c1.84,0,3.359,0.57,4.561,1.711
				c1.219,1.139,1.83,2.619,1.83,4.439H401.141L401.141,329.254z M409.602,325.324c-0.941-0.68-2.021-1.021-3.24-1.021
				c-2.561,0-4.24,1.26-5.039,3.779h10.049C411.172,326.943,410.58,326.023,409.602,325.324z"/>
			<path fill="#010202" d="M421.691,334.925c-0.801,0.68-1.762,1.02-2.881,1.02c-1.92,0-3.359-0.869-4.32-2.61l1.051-0.631
				c0.34,0.621,0.75,1.102,1.23,1.441c0.498,0.38,1.18,0.569,2.039,0.569c1.879,0,2.818-0.8,2.818-2.399
				c0-0.701-0.328-1.311-0.988-1.83c-0.199-0.121-0.484-0.256-0.855-0.406c-0.369-0.148-0.824-0.324-1.365-0.523
				c-1-0.359-1.719-0.721-2.158-1.08c-0.641-0.521-0.961-1.271-0.961-2.25c0-0.84,0.32-1.561,0.961-2.16
				c0.619-0.619,1.43-0.93,2.43-0.93c1.381,0,2.551,0.479,3.51,1.439l-0.898,0.779c-0.682-0.68-1.551-1.02-2.609-1.02
				c-1.441,0-2.16,0.629-2.16,1.889c0,0.561,0.219,1.021,0.66,1.381c0.359,0.279,0.93,0.551,1.709,0.811
				c0.68,0.24,1.24,0.465,1.68,0.674c0.439,0.211,0.771,0.396,0.99,0.557c0.859,0.66,1.291,1.551,1.291,2.67
				C422.859,333.393,422.471,334.264,421.691,334.925z"/>
			<path fill="#010202" d="M426.371,321.094c-0.221,0-0.449-0.09-0.689-0.27c-0.182-0.182-0.281-0.42-0.301-0.721
				c0-0.541,0.33-0.871,0.99-0.99c0.498,0,0.828,0.33,0.988,0.99C427.359,320.764,427.031,321.094,426.371,321.094z M425.74,335.704
				v-12.392h1.23v12.392H425.74z"/>
			<path fill="#010202" d="M441.012,339.845c-1.121,1.119-2.592,1.68-4.41,1.68c-3.381,0-5.4-1.33-6.063-3.99h1.23
				c0.221,0.98,0.85,1.711,1.891,2.189c0.82,0.381,1.801,0.57,2.939,0.57c1.541,0,2.729-0.43,3.57-1.289
				c0.859-0.859,1.289-2.061,1.289-3.6v-1.831c-1.301,1.56-2.949,2.341-4.949,2.341c-1.801,0-3.311-0.609-4.529-1.831
				c-1.24-1.24-1.861-2.76-1.861-4.561s0.611-3.311,1.83-4.529c1.24-1.24,2.762-1.861,4.563-1.861c1.979,0,3.629,0.781,4.947,2.342
				v-2.16h1.23v12.12C442.691,337.255,442.131,338.724,441.012,339.845z M440.17,325.863c-1.02-1.021-2.24-1.529-3.658-1.529
				c-1.441,0-2.66,0.5-3.66,1.5c-1.021,1.02-1.531,2.25-1.531,3.689c0,1.42,0.51,2.641,1.531,3.66c1.02,1.02,2.238,1.528,3.66,1.528
				c1.438,0,2.658-0.499,3.658-1.501c1.021-1.02,1.529-2.25,1.529-3.688C441.699,328.104,441.191,326.883,440.17,325.863z"/>
			<path fill="#010202" d="M454.691,335.704v-7.411c0-2.619-1.182-3.93-3.541-3.93c-1.16,0-2.039,0.34-2.641,1.02
				c-0.619,0.682-0.93,1.611-0.93,2.791v7.53h-1.229v-12.392h1.229v1.5c0.561-1.1,1.75-1.648,3.57-1.648
				c1.539,0,2.719,0.439,3.539,1.318c0.82,0.881,1.23,2.109,1.23,3.689v7.53h-1.229V335.704z"/>
			<path fill="#010202" d="M461.08,315.514v20.19h-1.23v-20.19h-4.74v-1.23h10.711v1.23H461.08z"/>
			<path fill="#010202" d="M466.029,329.254c0,1.68,0.451,3.01,1.352,3.99c0.939,1,2.229,1.501,3.869,1.501
				c0.842,0,1.602-0.141,2.279-0.42c0.861-0.362,1.631-1.091,2.313-2.192l1.107,0.512c-0.777,1.479-1.979,2.479-3.6,3.001
				c-0.619,0.199-1.32,0.299-2.1,0.299c-1.859,0-3.391-0.609-4.592-1.831c-1.219-1.219-1.83-2.75-1.83-4.59
				c0-1.859,0.602-3.391,1.803-4.59c1.219-1.221,2.76-1.83,4.619-1.83c1.84,0,3.359,0.57,4.561,1.711
				c1.219,1.139,1.83,2.619,1.83,4.439H466.029L466.029,329.254z M474.49,325.324c-0.939-0.68-2.02-1.021-3.24-1.021
				c-2.561,0-4.24,1.26-5.039,3.779h10.051C476.061,326.943,475.471,326.023,474.49,325.324z"/>
			<path fill="#010202" d="M494.59,335.704v-8.55c0-0.762-0.25-1.42-0.75-1.98s-1.221-0.84-2.16-0.84c-1.939,0-2.91,0.939-2.91,2.82
				v8.55h-1.229v-8.55c0-0.842-0.279-1.512-0.84-2.012c-0.582-0.539-1.271-0.811-2.07-0.811c-0.82,0-1.512,0.26-2.07,0.779
				c-0.561,0.5-0.84,1.182-0.84,2.041v8.55h-1.229v-12.39h1.229v1.229c0.6-0.939,1.57-1.41,2.91-1.41c1.6,0,2.779,0.65,3.539,1.951
				c0.721-1.301,1.891-1.951,3.512-1.951c1.238,0,2.238,0.352,3,1.051c0.76,0.721,1.139,1.711,1.139,2.971v8.55h-1.23V335.704z"/>
			<path fill="#010202" d="M510.609,334.053c-1.24,1.241-2.76,1.862-4.561,1.862c-2.061,0-3.762-0.84-5.1-2.522v8.132h-1.23v-18.212
				h1.23v2.342c1.279-1.682,2.979-2.521,5.1-2.521c1.801,0,3.311,0.609,4.529,1.828c1.24,1.242,1.859,2.762,1.859,4.563
				C512.439,331.324,511.828,332.834,510.609,334.053z M509.709,325.863c-1.02-1.021-2.238-1.529-3.658-1.529
				c-1.441,0-2.66,0.5-3.66,1.5c-1.021,1.02-1.531,2.25-1.531,3.689c0,1.42,0.512,2.641,1.531,3.66s2.24,1.528,3.66,1.528
				c1.439,0,2.658-0.499,3.658-1.501c1.021-1.02,1.531-2.25,1.531-3.688C511.24,328.104,510.73,326.883,509.709,325.863z"/>
			<path fill="#010202" d="M515.408,329.254c0,1.68,0.451,3.01,1.352,3.99c0.939,1,2.229,1.501,3.871,1.501
				c0.84,0,1.6-0.141,2.277-0.42c0.861-0.362,1.631-1.091,2.313-2.192l1.107,0.512c-0.777,1.479-1.979,2.479-3.6,3.001
				c-0.619,0.199-1.32,0.299-2.1,0.299c-1.859,0-3.391-0.609-4.592-1.831c-1.219-1.219-1.83-2.75-1.83-4.59
				c0-1.859,0.602-3.391,1.803-4.59c1.219-1.221,2.76-1.83,4.619-1.83c1.84,0,3.359,0.57,4.561,1.711
				c1.219,1.139,1.83,2.619,1.83,4.439H515.408L515.408,329.254z M523.869,325.324c-0.939-0.68-2.02-1.021-3.238-1.021
				c-2.563,0-4.242,1.26-5.041,3.779h10.051C525.439,326.943,524.85,326.023,523.869,325.324z"/>
			<path fill="#010202" d="M535.719,325.143c-0.32-0.238-0.66-0.43-1.021-0.568c-0.357-0.141-0.738-0.211-1.139-0.211
				c-0.34,0-0.66,0.104-0.961,0.314c-0.299,0.209-0.561,0.471-0.779,0.779c-0.219,0.311-0.395,0.654-0.525,1.035
				c-0.131,0.379-0.193,0.73-0.193,1.049v8.161h-1.23v-12.39h1.23v1.68c0.26-0.461,0.6-0.881,1.02-1.26
				c0.42-0.381,0.879-0.57,1.381-0.57c0.619,0,1.129,0.07,1.529,0.209c0.4,0.141,0.852,0.391,1.352,0.75L535.719,325.143z"/>
			<path fill="#010202" d="M548.979,335.704v-2.13c-1.299,1.56-2.949,2.341-4.949,2.341c-1.801,0-3.311-0.611-4.529-1.831
				c-1.24-1.24-1.859-2.76-1.859-4.561s0.609-3.311,1.83-4.529c1.24-1.24,2.76-1.861,4.561-1.861c1.979,0,3.629,0.781,4.949,2.342
				v-2.16h1.229v12.39H548.979L548.979,335.704z M547.689,325.863c-1.021-1.021-2.24-1.529-3.66-1.529c-1.439,0-2.66,0.5-3.66,1.5
				c-1.02,1.02-1.529,2.25-1.529,3.689c0,1.42,0.51,2.641,1.529,3.66c1.021,1.02,2.24,1.528,3.66,1.528
				c1.439,0,2.66-0.499,3.66-1.501c1.02-1.02,1.529-2.25,1.529-3.688C549.219,328.104,548.709,326.883,547.689,325.863z"/>
			<path fill="#010202" d="M555.729,324.543v11.161H554.5v-11.161h-1.682v-1.229h1.682v-5.432h1.229v5.432h2.881v1.229H555.729z"/>
			<path fill="#010202" d="M569.26,334.624c-0.82,0.881-1.973,1.32-3.451,1.32c-1.459,0-2.59-0.432-3.391-1.289
				c-0.801-0.862-1.199-2.063-1.199-3.603v-7.74h1.229v7.74c0,1.182,0.26,2.09,0.781,2.729c0.539,0.642,1.398,0.962,2.58,0.962
				c2.299,0,3.449-1.231,3.449-3.69v-7.74h1.199v7.74C570.459,332.574,570.059,333.764,569.26,334.624z"/>
			<path fill="#010202" d="M580.09,325.143c-0.32-0.238-0.66-0.43-1.021-0.568c-0.359-0.141-0.74-0.211-1.141-0.211
				c-0.34,0-0.66,0.104-0.959,0.314c-0.301,0.209-0.563,0.471-0.781,0.779c-0.219,0.311-0.395,0.654-0.523,1.035
				c-0.131,0.379-0.195,0.73-0.195,1.049v8.161h-1.229v-12.39h1.229v1.68c0.26-0.461,0.6-0.881,1.021-1.26
				c0.42-0.381,0.879-0.57,1.379-0.57c0.619,0,1.129,0.07,1.529,0.209c0.4,0.141,0.852,0.391,1.352,0.75L580.09,325.143z"/>
			<path fill="#010202" d="M582.01,329.254c0,1.68,0.449,3.01,1.35,3.99c0.939,1,2.23,1.501,3.871,1.501
				c0.84,0,1.6-0.141,2.279-0.42c0.859-0.362,1.629-1.091,2.311-2.192l1.109,0.512c-0.779,1.479-1.98,2.479-3.6,3.001
				c-0.621,0.199-1.32,0.299-2.102,0.299c-1.859,0-3.391-0.609-4.59-1.831c-1.221-1.219-1.83-2.75-1.83-4.59
				c0-1.859,0.6-3.391,1.801-4.59c1.221-1.221,2.76-1.83,4.619-1.83c1.84,0,3.359,0.57,4.561,1.711
				c1.221,1.139,1.83,2.619,1.83,4.439H582.01L582.01,329.254z M590.469,325.324c-0.939-0.68-2.02-1.021-3.238-1.021
				c-2.563,0-4.242,1.26-5.041,3.779h10.051C592.039,326.943,591.449,326.023,590.469,325.324z"/>
			<path fill="#010202" d="M610.957,332.463c-1.799,2.161-4.148,3.241-7.049,3.241h-7.141v-21.421h7.141
				c2.879,0,5.219,1.08,7.021,3.24c1.697,2.02,2.549,4.5,2.549,7.438C613.479,327.924,612.639,330.424,610.957,332.463z
				 M610.059,318.363c-1.561-1.92-3.609-2.881-6.15-2.881h-5.938v18.991h5.938c2.201,0,4.111-0.819,5.73-2.462
				c1.74-1.76,2.609-4.107,2.609-7.051C612.248,322.344,611.518,320.145,610.059,318.363z"/>
			<path fill="#010202" d="M616.479,321.094c-0.221,0-0.449-0.09-0.689-0.27c-0.18-0.182-0.279-0.42-0.301-0.721
				c0-0.541,0.33-0.871,0.99-0.99c0.5,0,0.83,0.33,0.99,0.99C617.469,320.764,617.139,321.094,616.479,321.094z M615.85,335.704
				v-12.392h1.229v12.392H615.85z"/>
			<path fill="#010202" d="M625.867,314.732l-0.811-0.09c-1.119,0-1.68,0.66-1.68,1.979v6.691h2.939v1.229h-2.939v11.161h-1.23
				v-11.161h-1.68v-1.229h1.68v-7.051c0-1.9,0.961-2.85,2.881-2.85c0.439,0,0.721,0.02,0.84,0.059c0.24,0,0.51,0.07,0.811,0.211
				v1.23L625.867,314.732z"/>
			<path fill="#010202" d="M633.01,314.732l-0.813-0.09c-1.119,0-1.68,0.66-1.68,1.979v6.691h2.939v1.229h-2.939v11.161h-1.23
				v-11.161h-1.68v-1.229h1.68v-7.051c0-1.9,0.961-2.85,2.881-2.85c0.439,0,0.721,0.02,0.842,0.059c0.238,0,0.51,0.07,0.809,0.211
				v1.23L633.01,314.732z"/>
			<path fill="#010202" d="M635.139,329.254c0,1.68,0.449,3.01,1.35,3.99c0.939,1,2.23,1.501,3.871,1.501
				c0.84,0,1.6-0.141,2.279-0.42c0.859-0.362,1.629-1.091,2.311-2.192l1.109,0.512c-0.779,1.479-1.98,2.479-3.6,3.001
				c-0.621,0.199-1.32,0.299-2.102,0.299c-1.859,0-3.391-0.609-4.59-1.831c-1.221-1.219-1.83-2.75-1.83-4.59
				c0-1.859,0.602-3.391,1.801-4.59c1.221-1.221,2.76-1.83,4.619-1.83c1.84,0,3.359,0.57,4.561,1.711
				c1.221,1.139,1.83,2.619,1.83,4.439H635.139L635.139,329.254z M643.598,325.324c-0.939-0.68-2.02-1.021-3.238-1.021
				c-2.561,0-4.242,1.26-5.041,3.779h10.051C645.168,326.943,644.578,326.023,643.598,325.324z"/>
			<path fill="#010202" d="M655.447,325.143c-0.318-0.238-0.66-0.43-1.02-0.568c-0.359-0.141-0.74-0.211-1.141-0.211
				c-0.34,0-0.66,0.104-0.961,0.314c-0.299,0.209-0.561,0.471-0.779,0.779c-0.219,0.311-0.395,0.654-0.523,1.035
				c-0.131,0.379-0.195,0.73-0.195,1.049v8.161H649.6v-12.39h1.229v1.68c0.26-0.461,0.6-0.881,1.021-1.26
				c0.42-0.381,0.879-0.57,1.379-0.57c0.619,0,1.129,0.07,1.529,0.209c0.4,0.141,0.852,0.391,1.352,0.75L655.447,325.143z"/>
			<path fill="#010202" d="M657.367,329.254c0,1.68,0.451,3.01,1.352,3.99c0.939,1,2.229,1.501,3.871,1.501
				c0.84,0,1.6-0.141,2.277-0.42c0.861-0.362,1.631-1.091,2.313-2.192l1.107,0.512c-0.777,1.479-1.979,2.479-3.6,3.001
				c-0.619,0.199-1.32,0.299-2.1,0.299c-1.859,0-3.391-0.609-4.59-1.831c-1.221-1.219-1.83-2.75-1.83-4.59
				c0-1.859,0.6-3.391,1.801-4.59c1.219-1.221,2.76-1.83,4.619-1.83c1.84,0,3.359,0.57,4.561,1.711
				c1.221,1.139,1.83,2.619,1.83,4.439H657.367L657.367,329.254z M665.828,325.324c-0.939-0.68-2.02-1.021-3.238-1.021
				c-2.563,0-4.242,1.26-5.041,3.779H667.6C667.398,326.943,666.809,326.023,665.828,325.324z"/>
			<path fill="#010202" d="M680.168,335.704v-7.411c0-2.619-1.182-3.93-3.539-3.93c-1.16,0-2.041,0.34-2.643,1.02
				c-0.619,0.682-0.93,1.611-0.93,2.791v7.53h-1.229v-12.392h1.229v1.5c0.561-1.1,1.75-1.648,3.57-1.648
				c1.539,0,2.721,0.439,3.539,1.318c0.82,0.881,1.23,2.109,1.23,3.689v7.53h-1.229V335.704z"/>
			<path fill="#010202" d="M691.207,335.944c-1.842,0-3.369-0.609-4.59-1.831c-1.221-1.219-1.83-2.75-1.83-4.59
				c0-1.842,0.609-3.369,1.83-4.592c1.221-1.219,2.748-1.828,4.59-1.828c1.58,0,2.84,0.357,3.779,1.078v1.473l-0.779-0.512
				l-0.84-0.449c-0.762-0.262-1.48-0.391-2.16-0.391c-1.541,0-2.791,0.479-3.75,1.439c-0.98,0.979-1.471,2.24-1.471,3.779
				c0,1.521,0.49,2.771,1.471,3.75c0.979,0.98,2.229,1.472,3.75,1.472c1.439,0,2.699-0.481,3.779-1.44v1.53
				C693.865,335.575,692.607,335.944,691.207,335.944z"/>
			<path fill="#010202" d="M696.967,329.254c0,1.68,0.449,3.01,1.352,3.99c0.939,1,2.229,1.501,3.869,1.501
				c0.84,0,1.6-0.141,2.279-0.42c0.859-0.362,1.631-1.091,2.311-2.192l1.109,0.512c-0.779,1.479-1.979,2.479-3.6,3.001
				c-0.619,0.199-1.32,0.299-2.1,0.299c-1.861,0-3.391-0.609-4.592-1.831c-1.219-1.219-1.83-2.75-1.83-4.59
				c0-1.859,0.602-3.391,1.801-4.59c1.221-1.221,2.762-1.83,4.621-1.83c1.84,0,3.359,0.57,4.561,1.711
				c1.219,1.139,1.83,2.619,1.83,4.439H696.967L696.967,329.254z M705.428,325.324c-0.941-0.68-2.021-1.021-3.24-1.021
				c-2.561,0-4.24,1.26-5.039,3.779h10.049C706.996,326.943,706.406,326.023,705.428,325.324z"/>
		</g>
	</g>
	<g>
		<g>
			<line fill="none" stroke="#010202" stroke-miterlimit="10" x1="308.299" y1="343.476" x2="718.582" y2="343.476"/>
			<g>
				<polygon fill="#010202" points="714.369,349.03 716.73,343.476 714.369,337.921 727.537,343.476 				"/>
			</g>
		</g>
	</g>
	<rect x="253.688" y="306.436" fill="none" stroke="#010202" stroke-miterlimit="10" width="532.219" height="93.337"/>
</g>
<g>
	<g>
		<rect x="349.111" y="466.265" fill="none" width="78.98" height="36.508"/>
		<path fill="#010202" d="M366.957,485.575c-0.936-0.717-1.4-1.572-1.4-2.564c0-0.672,0.166-1.307,0.496-1.904
			c0.33-0.6,1.068-1.541,2.221-2.828c0.912-1.016,1.584-1.893,2.018-2.633s0.648-1.477,0.648-2.203c0-1.129-0.416-2.066-1.246-2.813
			c-0.832-0.746-1.846-1.121-3.043-1.121c-0.672,0-1.4,0.154-2.188,0.463c-0.318,0.309-0.605,0.734-0.855,1.281l-0.65,1.299
			l-0.203,0.139L362,472.604l-0.102-0.24l1.314-3.965c1.334-0.865,2.787-1.299,4.359-1.299c1.207,0,2.314,0.221,3.324,0.658
			c1.008,0.438,1.799,1.09,2.375,1.955c0.574,0.867,0.863,1.842,0.863,2.924c0,0.719-0.117,1.391-0.354,2.018
			c-0.23,0.627-0.574,1.238-1.023,1.836c-0.449,0.6-1.314,1.469-2.59,2.605c-0.811,0.719-1.428,1.307-1.854,1.762
			c-0.426,0.457-0.748,0.896-0.965,1.324s-0.324,0.816-0.324,1.172c0,0.592,0.227,1.139,0.684,1.641l-0.035,0.238l-0.443,0.342
			H366.957L366.957,485.575z M367.281,487.798c0.57,0,1.053,0.199,1.453,0.598c0.398,0.398,0.598,0.883,0.598,1.453
			c0,0.559-0.197,1.037-0.598,1.436s-0.883,0.598-1.453,0.598c-0.559,0-1.039-0.197-1.441-0.598
			c-0.406-0.398-0.607-0.877-0.607-1.436c0-0.582,0.205-1.068,0.615-1.463C366.258,487.993,366.734,487.798,367.281,487.798z"/>
		<path fill="#010202" d="M385.738,490.702l0.139,0.137v0.719l-0.139,0.152c-0.354,0-1.02-0.021-2-0.066
			c-0.889-0.047-1.807-0.068-2.752-0.068c-1.229,0-2.604,0.045-4.117,0.137l-0.137-0.152v-0.721l0.137-0.137
			c1.105-0.068,1.73-0.119,1.879-0.152c0.15-0.033,0.273-0.104,0.379-0.215c0.102-0.105,0.172-0.271,0.213-0.494
			c0.039-0.223,0.086-0.957,0.137-2.205s0.076-2.189,0.076-2.828v-6.598l-2.203,0.119l-0.154-0.137v-0.426l0.119-0.172l2.238-1.145
			v-1.025c0-1.141,0.053-2.002,0.152-2.59c0.105-0.586,0.295-1.129,0.572-1.623c0.279-0.496,0.768-1.123,1.461-1.881
			c0.695-0.758,1.307-1.377,1.83-1.863c0.523-0.482,0.98-0.809,1.367-0.973c0.387-0.166,0.842-0.248,1.367-0.248
			c0.432,0,0.898,0.086,1.4,0.256l-0.018,2.803l-0.393,0.154c-0.641-0.57-1.381-0.854-2.223-0.854c-0.594,0-1.104,0.121-1.539,0.365
			c-0.434,0.246-0.729,0.645-0.889,1.197c-0.16,0.551-0.238,1.467-0.238,2.742v3.539h1.828c0.945,0,1.84-0.035,2.686-0.105
			l0.15,0.189l-0.307,1.504l-0.154,0.17c-0.342-0.012-0.563-0.018-0.666-0.018l-2.223-0.018h-1.314v6.889
			c0,0.363,0.025,1.199,0.076,2.504s0.1,2.07,0.146,2.299c0.045,0.227,0.123,0.393,0.229,0.494c0.109,0.104,0.285,0.178,0.531,0.223
			C383.635,490.628,384.416,490.669,385.738,490.702z"/>
		<path fill="#010202" d="M388.713,483.747c0-1.355,0.277-2.664,0.838-3.922c0.559-1.26,1.527-2.348,2.914-3.266
			c1.385-0.916,3.025-1.375,4.93-1.375c2.393,0,4.342,0.756,5.846,2.264c1.504,1.512,2.256,3.451,2.256,5.82
			c0,2.607-0.863,4.756-2.59,6.441c-1.727,1.688-3.809,2.529-6.246,2.529c-1.596,0-3.02-0.432-4.273-1.291
			c-1.252-0.859-2.178-1.91-2.775-3.152C389.012,486.556,388.713,485.206,388.713,483.747z M391.941,482.567
			c0,1.596,0.205,3.021,0.615,4.279c0.41,1.262,1.059,2.271,1.947,3.033c0.889,0.766,1.904,1.146,3.043,1.146
			c1.344,0,2.455-0.531,3.332-1.598s1.316-2.67,1.316-4.813c0-2.426-0.477-4.414-1.428-5.963c-0.951-1.551-2.32-2.324-4.109-2.324
			c-1.48,0-2.639,0.535-3.469,1.605C392.357,479.007,391.941,480.552,391.941,482.567z"/>
		<path fill="#010202" d="M413.031,475.288l0.324,0.221c-0.127,1.494-0.188,3.391-0.188,5.691v3.863c0,0.25,0.021,1.057,0.068,2.418
			c0.045,1.359,0.094,2.154,0.145,2.383s0.129,0.395,0.23,0.496c0.104,0.104,0.229,0.168,0.377,0.195
			c0.146,0.029,0.762,0.076,1.846,0.146l0.152,0.137v0.719l-0.137,0.152c-1.424-0.09-2.797-0.137-4.117-0.137
			c-1.311,0-2.678,0.047-4.102,0.137l-0.154-0.152v-0.719l0.154-0.137c1.104-0.068,1.729-0.119,1.869-0.154
			c0.143-0.033,0.27-0.104,0.375-0.213c0.107-0.107,0.184-0.273,0.225-0.496c0.039-0.223,0.086-0.957,0.137-2.205
			c0.051-1.246,0.076-2.189,0.076-2.828v-3.365c0-0.455-0.023-1.076-0.068-1.863c-0.045-0.785-0.082-1.27-0.111-1.453
			c-0.027-0.182-0.117-0.314-0.264-0.4c-0.148-0.086-0.445-0.129-0.889-0.129l-1.436-0.018l-0.154-0.137v-0.734l0.137-0.137
			C409.703,476.308,411.537,475.88,413.031,475.288z M411.578,467.647c0.535,0,0.99,0.188,1.367,0.563
			c0.375,0.377,0.564,0.832,0.564,1.367c0,0.525-0.189,0.975-0.564,1.352c-0.377,0.375-0.832,0.563-1.367,0.563
			c-0.523,0-0.979-0.186-1.357-0.555c-0.381-0.369-0.572-0.822-0.572-1.359c0-0.535,0.191-0.99,0.572-1.367
			C410.602,467.837,411.055,467.647,411.578,467.647z"/>
	</g>
	<g>
		<rect x="614.414" y="430.687" fill="none" width="78.98" height="36.508"/>
		<path fill="#010202" d="M633.432,449.997c-0.938-0.717-1.402-1.572-1.402-2.563c0-0.674,0.166-1.309,0.496-1.906
			c0.33-0.6,1.07-1.541,2.221-2.828c0.912-1.014,1.584-1.891,2.018-2.633c0.434-0.74,0.648-1.477,0.648-2.203
			c0-1.129-0.416-2.066-1.246-2.813c-0.832-0.746-1.846-1.121-3.043-1.121c-0.672,0-1.4,0.154-2.188,0.463
			c-0.318,0.309-0.605,0.734-0.855,1.281l-0.648,1.299l-0.205,0.139l-0.752-0.086l-0.104-0.24l1.314-3.965
			c1.334-0.865,2.787-1.299,4.359-1.299c1.207,0,2.314,0.221,3.324,0.658c1.008,0.438,1.799,1.092,2.375,1.955
			c0.574,0.867,0.863,1.842,0.863,2.924c0,0.719-0.117,1.391-0.354,2.018c-0.23,0.627-0.572,1.238-1.023,1.836
			c-0.449,0.6-1.314,1.469-2.588,2.607c-0.813,0.717-1.43,1.305-1.855,1.76c-0.426,0.457-0.748,0.896-0.965,1.324
			s-0.324,0.816-0.324,1.172c0,0.592,0.227,1.139,0.684,1.641l-0.035,0.238l-0.443,0.342H633.432L633.432,449.997z M633.756,452.22
			c0.568,0,1.053,0.199,1.451,0.598s0.6,0.883,0.6,1.453c0,0.559-0.199,1.037-0.6,1.436c-0.398,0.398-0.883,0.598-1.451,0.598
			c-0.561,0-1.039-0.197-1.443-0.598c-0.406-0.396-0.607-0.877-0.607-1.436c0-0.582,0.205-1.068,0.615-1.461
			C632.73,452.415,633.207,452.22,633.756,452.22z"/>
		<path fill="#010202" d="M648.281,439.71l0.324,0.221c-0.125,1.494-0.188,3.391-0.188,5.691v3.982c0,1.459,0.111,2.473,0.332,3.041
			c0.223,0.568,0.607,1.006,1.154,1.309c0.547,0.301,1.195,0.453,1.947,0.453c0.832,0,1.59-0.164,2.273-0.488
			s1.256-0.783,1.719-1.375c0.461-0.592,0.725-0.992,0.793-1.197c0.066-0.203,0.115-0.779,0.137-1.725l0.053-1.914v-1.846
			c0-0.457-0.023-1.078-0.068-1.863c-0.047-0.787-0.084-1.27-0.111-1.453c-0.029-0.182-0.117-0.314-0.266-0.4
			s-0.443-0.129-0.889-0.129l-1.436-0.018l-0.154-0.137v-0.734l0.137-0.137c2.178-0.262,4.012-0.689,5.504-1.281l0.324,0.221
			c-0.125,1.494-0.188,3.391-0.188,5.691v3.008c0,0.172,0.025,1.566,0.086,4.188c0.02,0.969,0.082,1.559,0.18,1.77
			c0.096,0.211,0.23,0.359,0.4,0.443c0.172,0.086,0.678,0.129,1.52,0.129h0.48l0.154,0.137v0.686l-0.139,0.152
			c-1.605-0.092-2.684-0.137-3.229-0.137c-0.695,0-1.498,0.039-2.41,0.119l-0.154-0.137c0.068-1.162,0.121-2.148,0.154-2.957
			c-0.717,0.559-1.537,1.305-2.461,2.238c-0.355,0.354-0.859,0.65-1.521,0.889c-0.66,0.24-1.412,0.359-2.256,0.359
			c-1.275,0-2.27-0.203-2.98-0.605c-0.713-0.404-1.217-0.963-1.514-1.676s-0.443-1.939-0.443-3.684l0.016-1.35v-3.332
			c0-0.457-0.02-1.078-0.068-1.863c-0.045-0.787-0.082-1.27-0.107-1.453c-0.029-0.182-0.117-0.314-0.268-0.4
			c-0.146-0.086-0.443-0.129-0.889-0.129l-1.436-0.018l-0.154-0.137v-0.734l0.137-0.137
			C644.953,440.729,646.787,440.302,648.281,439.71z"/>
		<path fill="#010202" d="M667.098,444.409l-0.666-0.172l-0.137-0.17v-2.119c2.025-1.504,3.998-2.256,5.91-2.256
			c1.313,0,2.398,0.244,3.268,0.732c0.865,0.49,1.492,1.104,1.879,1.838s0.582,1.594,0.582,2.572l-0.086,3.436v5.094
			c0,0.695,0.049,1.117,0.145,1.264c0.098,0.148,0.209,0.248,0.334,0.299c0.125,0.053,0.359,0.096,0.701,0.129l0.973,0.086
			l0.137,0.154v0.684L680,456.116c-0.83-0.068-1.605-0.104-2.324-0.104c-0.684,0-1.504,0.035-2.461,0.104l-0.256-0.24l0.068-2.75
			l-3.725,2.904c-0.627,0.262-1.313,0.393-2.051,0.393c-0.912,0-1.695-0.164-2.352-0.494s-1.158-0.791-1.504-1.385
			c-0.348-0.592-0.52-1.311-0.52-2.152c0-1.676,0.521-2.982,1.57-3.922c1.047-0.939,3.906-1.74,8.578-2.4
			c0-1.688-0.375-2.875-1.127-3.564c-0.752-0.688-1.762-1.033-3.023-1.033c-0.66,0-1.264,0.098-1.805,0.291s-0.852,0.35-0.932,0.471
			c-0.08,0.119-0.387,0.816-0.924,2.092L667.098,444.409z M675.025,447.108c-3.188,0.537-5.178,1.109-5.965,1.727
			c-0.785,0.615-1.178,1.566-1.178,2.854c0,1.777,0.883,2.666,2.648,2.666c1.516,0,3.014-0.877,4.494-2.633V447.108L675.025,447.108
			z"/>
	</g>
	<circle fill="#EEEDED" stroke="#010202" stroke-width="0.2492" stroke-miterlimit="10" cx="388.604" cy="446.476" r="13.789"/>
	<g>
		<g>
			<path fill="#010202" d="M429.943,437.054c-1.24,1.24-2.76,1.861-4.559,1.861c-2.061,0-3.762-0.84-5.1-2.521v8.131h-1.23v-18.211
				h1.23v2.342c1.279-1.682,2.979-2.521,5.1-2.521c1.799,0,3.309,0.609,4.529,1.828c1.24,1.242,1.859,2.762,1.859,4.563
				S431.164,435.835,429.943,437.054z M429.047,428.864c-1.021-1.021-2.24-1.529-3.66-1.529c-1.441,0-2.66,0.5-3.66,1.5
				c-1.021,1.02-1.531,2.25-1.531,3.689c0,1.42,0.512,2.641,1.531,3.66c1.018,1.018,2.24,1.527,3.66,1.527
				c1.438,0,2.66-0.498,3.66-1.5c1.02-1.02,1.527-2.25,1.527-3.688C430.574,431.104,430.066,429.884,429.047,428.864z"/>
			<path fill="#010202" d="M440.355,428.144c-0.32-0.238-0.66-0.43-1.021-0.568c-0.357-0.141-0.738-0.211-1.141-0.211
				c-0.34,0-0.66,0.104-0.959,0.314c-0.301,0.209-0.561,0.471-0.781,0.779c-0.219,0.313-0.395,0.654-0.521,1.035
				c-0.131,0.379-0.195,0.73-0.195,1.049v8.16h-1.23v-12.389h1.23v1.68c0.26-0.461,0.6-0.881,1.02-1.26
				c0.42-0.381,0.879-0.57,1.381-0.57c0.619,0,1.129,0.07,1.529,0.209c0.4,0.141,0.85,0.391,1.35,0.75L440.355,428.144z"/>
			<path fill="#010202" d="M451.936,437.054c-1.24,1.24-2.76,1.861-4.561,1.861s-3.311-0.611-4.529-1.83
				c-1.24-1.24-1.859-2.76-1.859-4.561c0-1.779,0.619-3.289,1.859-4.529c1.221-1.262,2.729-1.891,4.529-1.891
				c1.779,0,3.289,0.619,4.529,1.857c1.24,1.242,1.859,2.762,1.859,4.563C453.766,434.325,453.154,435.835,451.936,437.054z
				 M451.066,428.835c-1-1.021-2.23-1.531-3.689-1.531c-1.4,0-2.611,0.521-3.631,1.561c-1.041,1.041-1.561,2.262-1.561,3.66
				c0,1.42,0.51,2.641,1.531,3.66c1.02,1.02,2.236,1.529,3.658,1.529c1.439,0,2.658-0.5,3.658-1.5
				c1.021-1.02,1.531-2.25,1.531-3.689C452.566,431.065,452.066,429.835,451.066,428.835z"/>
			<path fill="#010202" d="M467.686,437.054c-1.24,1.24-2.76,1.861-4.563,1.861c-2.061,0-3.76-0.84-5.1-2.521v8.131h-1.229v-18.211
				h1.229v2.342c1.279-1.682,2.98-2.521,5.1-2.521c1.803,0,3.313,0.609,4.531,1.828c1.238,1.242,1.859,2.762,1.859,4.563
				C469.516,434.325,468.902,435.835,467.686,437.054z M466.783,428.864c-1.02-1.021-2.238-1.529-3.66-1.529
				c-1.438,0-2.658,0.5-3.658,1.5c-1.021,1.02-1.529,2.25-1.529,3.689c0,1.42,0.51,2.641,1.529,3.66s2.238,1.527,3.658,1.527
				c1.441,0,2.66-0.498,3.66-1.5c1.021-1.02,1.531-2.25,1.531-3.688C468.316,431.104,467.805,429.884,466.783,428.864z"/>
			<path fill="#010202" d="M478.334,437.925c-0.801,0.68-1.762,1.02-2.881,1.02c-1.92,0-3.357-0.869-4.318-2.609l1.051-0.631
				c0.34,0.621,0.75,1.102,1.229,1.441c0.498,0.379,1.182,0.568,2.039,0.568c1.879,0,2.82-0.799,2.82-2.398
				c0-0.701-0.33-1.311-0.99-1.83c-0.197-0.121-0.482-0.256-0.854-0.406c-0.369-0.148-0.824-0.324-1.365-0.523
				c-1-0.359-1.719-0.721-2.16-1.08c-0.639-0.521-0.959-1.271-0.959-2.25c0-0.84,0.32-1.561,0.959-2.16
				c0.621-0.619,1.43-0.93,2.432-0.93c1.379,0,2.549,0.479,3.51,1.439l-0.9,0.779c-0.68-0.68-1.551-1.02-2.607-1.02
				c-1.441,0-2.16,0.629-2.16,1.889c0,0.561,0.219,1.021,0.66,1.381c0.357,0.279,0.93,0.551,1.709,0.811
				c0.68,0.24,1.238,0.465,1.68,0.674c0.438,0.211,0.77,0.396,0.99,0.557c0.857,0.66,1.291,1.551,1.291,2.67
				C479.506,436.394,479.113,437.265,478.334,437.925z"/>
			<path fill="#010202" d="M482.715,430.034c-0.223,0-0.449-0.09-0.689-0.271c-0.18-0.18-0.281-0.42-0.301-0.721
				c0-0.539,0.33-0.869,0.99-0.988c0.5,0,0.828,0.33,0.988,0.988C483.703,429.704,483.373,430.034,482.715,430.034z
				 M482.715,438.884c-0.223,0-0.449-0.09-0.689-0.27c-0.18-0.18-0.281-0.42-0.301-0.721c0-0.539,0.33-0.869,0.99-0.988
				c0.5,0,0.828,0.328,0.988,0.988C483.703,438.554,483.373,438.884,482.715,438.884z"/>
			<path fill="#010202" d="M495.402,438.704v-7.41c0-2.619-1.18-3.93-3.539-3.93c-1.16,0-2.041,0.34-2.641,1.02
				c-0.621,0.682-0.93,1.611-0.93,2.791v7.529h-1.23v-12.391h1.23v1.5c0.559-1.1,1.75-1.648,3.57-1.648
				c1.539,0,2.719,0.439,3.539,1.318c0.82,0.881,1.23,2.109,1.23,3.689v7.529h-1.23V438.704z"/>
			<path fill="#010202" d="M510.613,437.054c-1.24,1.24-2.76,1.861-4.561,1.861s-3.311-0.611-4.529-1.83
				c-1.24-1.24-1.861-2.76-1.861-4.561c0-1.779,0.621-3.289,1.861-4.529c1.219-1.262,2.73-1.891,4.529-1.891
				c1.779,0,3.289,0.619,4.529,1.857c1.24,1.242,1.861,2.762,1.861,4.563S511.832,435.835,510.613,437.054z M509.742,428.835
				c-1-1.021-2.229-1.531-3.688-1.531c-1.4,0-2.609,0.521-3.631,1.561c-1.039,1.041-1.561,2.262-1.561,3.66
				c0,1.42,0.51,2.641,1.529,3.66s2.24,1.529,3.66,1.529c1.439,0,2.66-0.5,3.66-1.5c1.02-1.02,1.529-2.25,1.529-3.689
				C511.242,431.065,510.742,429.835,509.742,428.835z"/>
			<path fill="#010202" d="M529.635,438.704v-8.549c0-0.762-0.25-1.42-0.75-1.98s-1.223-0.84-2.16-0.84
				c-1.941,0-2.91,0.939-2.91,2.82v8.549h-1.23v-8.549c0-0.842-0.279-1.512-0.84-2.012c-0.58-0.539-1.27-0.811-2.07-0.811
				c-0.82,0-1.51,0.26-2.07,0.779c-0.559,0.5-0.84,1.182-0.84,2.041v8.549h-1.229v-12.389h1.229v1.229
				c0.6-0.939,1.57-1.41,2.91-1.41c1.6,0,2.779,0.65,3.541,1.951c0.719-1.301,1.889-1.951,3.51-1.951c1.24,0,2.24,0.352,3,1.051
				c0.76,0.721,1.139,1.711,1.139,2.971v8.549h-1.229V438.704z"/>
			<path fill="#010202" d="M534.104,424.095c-0.221,0-0.449-0.09-0.689-0.27c-0.18-0.182-0.281-0.42-0.301-0.721
				c0-0.541,0.33-0.871,0.99-0.99c0.5,0,0.83,0.33,0.99,0.99C535.094,423.765,534.764,424.095,534.104,424.095z M533.475,438.704
				v-12.391h1.229v12.391H533.475z"/>
			<path fill="#010202" d="M545.684,438.704v-7.41c0-2.619-1.18-3.93-3.539-3.93c-1.16,0-2.041,0.34-2.641,1.02
				c-0.621,0.682-0.932,1.611-0.932,2.791v7.529h-1.229v-12.391h1.229v1.5c0.561-1.1,1.75-1.648,3.57-1.648
				c1.539,0,2.719,0.439,3.539,1.318c0.82,0.881,1.23,2.109,1.23,3.689v7.529h-1.229V438.704z"/>
			<path fill="#010202" d="M561.281,438.704v-2.129c-1.299,1.559-2.949,2.34-4.949,2.34c-1.801,0-3.311-0.611-4.527-1.83
				c-1.24-1.24-1.861-2.76-1.861-4.561s0.611-3.311,1.83-4.529c1.24-1.24,2.76-1.861,4.561-1.861c1.98,0,3.631,0.781,4.949,2.342
				v-2.16h1.23v12.389H561.281L561.281,438.704z M559.992,428.864c-1.02-1.021-2.238-1.529-3.66-1.529c-1.438,0-2.658,0.5-3.658,1.5
				c-1.021,1.02-1.529,2.25-1.529,3.689c0,1.42,0.51,2.641,1.529,3.66c1.018,1.018,2.238,1.527,3.658,1.527
				c1.439,0,2.66-0.498,3.66-1.5c1.021-1.02,1.529-2.25,1.529-3.688C561.523,431.104,561.014,429.884,559.992,428.864z"/>
			<path fill="#010202" d="M566.504,438.704v-22.199h1.197v22.199H566.504z"/>
			<path fill="#010202" d="M582.162,437.534c-1.1,0.92-2.551,1.381-4.35,1.381c-1.74,0-3.191-0.471-4.35-1.41
				c-1.221-1.021-1.83-2.4-1.83-4.141v-16.08h1.199v16.08c0,1.381,0.5,2.461,1.5,3.24c0.92,0.721,2.08,1.08,3.48,1.08
				c1.379,0,2.539-0.369,3.479-1.109c1.021-0.801,1.529-1.871,1.529-3.211v-16.08h1.23v16.08
				C584.055,435.104,583.424,436.495,582.162,437.534z"/>
			<path fill="#010202" d="M601.902,438.704l-2.461-6.42h-9.75l-2.49,6.42h-1.197l8.551-22.109l8.578,22.109H601.902z
				 M594.555,419.714l-4.381,11.34h8.76L594.555,419.714z"/>
		</g>
	</g>
	<g>
		<g>
			<line fill="none" stroke="#010202" stroke-miterlimit="10" x1="408.814" y1="446.476" x2="618.068" y2="446.476"/>
			<g>
				<polygon fill="#010202" points="613.857,452.03 616.217,446.476 613.857,440.921 627.023,446.476 				"/>
			</g>
		</g>
	</g>
	<rect x="354.201" y="409.437" fill="none" stroke="#010202" stroke-miterlimit="10" width="334.518" height="93.336"/>
</g>
</svg>
