<?xml version="1.0" encoding="utf-8"?>
<!-- Generator: Adobe Illustrator 16.0.0, SVG Export Plug-In . SVG Version: 6.00 Build 0)  -->
<!DOCTYPE svg PUBLIC "-//W3C//DTD SVG 1.1//EN" "http://www.w3.org/Graphics/SVG/1.1/DTD/svg11.dtd">
<svg version="1.1" id="Layer_1" xmlns="http://www.w3.org/2000/svg" xmlns:xlink="http://www.w3.org/1999/xlink" x="0px" y="0px"
	 width="886.918px" height="400.271px" viewBox="0 0 886.918 400.271" enable-background="new 0 0 886.918 400.271"
	 xml:space="preserve">
<rect x="369.163" y="141.027" fill="#EEEDED" stroke="#010202" stroke-width="0.2492" stroke-miterlimit="10" width="314.634" height="58.9"/>
<g>
	<g>
		<path fill="#010202" d="M385.193,160.664c-0.321,0-0.655-0.131-1.005-0.393c-0.262-0.264-0.408-0.613-0.438-1.051
			c0-0.785,0.481-1.266,1.442-1.441c0.729,0,1.208,0.48,1.442,1.441C386.637,160.183,386.155,160.664,385.193,160.664z
			 M384.276,181.941v-18.045h1.791v18.045H384.276z"/>
		<path fill="#010202" d="M402.061,181.941V171.15c0-3.816-1.72-5.725-5.156-5.725c-1.688,0-2.971,0.496-3.845,1.486
			c-0.903,0.99-1.354,2.344-1.354,4.063v10.967h-1.791v-18.045h1.791v2.186c0.814-1.602,2.55-2.404,5.199-2.404
			c2.242,0,3.961,0.643,5.156,1.924c1.193,1.281,1.791,3.072,1.791,5.373v10.969h-1.791V181.941z"/>
		<path fill="#010202" d="M418.487,180.806c-1.166,0.99-2.563,1.484-4.195,1.484c-2.795,0-4.893-1.266-6.291-3.801l1.529-0.918
			c0.494,0.902,1.092,1.604,1.791,2.098c0.729,0.555,1.719,0.83,2.971,0.83c2.738,0,4.107-1.164,4.107-3.496
			c0-1.018-0.479-1.906-1.441-2.664c-0.291-0.176-0.706-0.371-1.245-0.59s-1.201-0.473-1.986-0.766
			c-1.457-0.523-2.506-1.049-3.146-1.572c-0.934-0.758-1.397-1.85-1.397-3.277c0-1.223,0.465-2.27,1.397-3.145
			c0.902-0.904,2.082-1.355,3.539-1.355c2.011,0,3.713,0.699,5.111,2.1l-1.311,1.135c-0.99-0.99-2.259-1.484-3.802-1.484
			c-2.098,0-3.146,0.916-3.146,2.752c0,0.816,0.32,1.486,0.961,2.01c0.525,0.408,1.354,0.803,2.49,1.18
			c0.989,0.35,1.807,0.678,2.446,0.982c0.641,0.307,1.121,0.576,1.441,0.809c1.254,0.963,1.879,2.258,1.879,3.889
			C420.191,178.578,419.624,179.845,418.487,180.806z"/>
		<path fill="#010202" d="M426.788,165.687v16.254h-1.791v-16.254h-2.446v-1.791h2.446v-7.908h1.791v7.908h4.195v1.791H426.788
			L426.788,165.687z"/>
		<path fill="#010202" d="M435.788,169.314c-0.319,0-0.653-0.131-1.004-0.393c-0.262-0.264-0.408-0.613-0.438-1.049
			c0-0.787,0.479-1.268,1.44-1.441c0.729,0,1.209,0.48,1.443,1.441C437.232,168.833,436.751,169.314,435.788,169.314z
			 M435.788,182.205c-0.319,0-0.653-0.133-1.004-0.395c-0.262-0.262-0.408-0.611-0.438-1.049c0-0.787,0.479-1.268,1.44-1.441
			c0.729,0,1.209,0.48,1.443,1.441C437.232,181.724,436.751,182.205,435.788,182.205z"/>
		<path fill="#010202" d="M466.331,180.107c-1.633,1.193-3.846,1.922-6.643,2.184c-0.32,0.029-0.67,0.051-1.049,0.066
			c-0.379,0.014-0.771,0.021-1.181,0.021c-4.719,0-8.563-1.486-11.534-4.457c-3-3-4.5-6.859-4.5-11.578s1.485-8.564,4.457-11.535
			c3-3,6.858-4.5,11.577-4.5c2.681,0,5.099,0.393,7.255,1.18c1.28,0.496,2.52,1.209,3.713,2.141v2.23
			c-1.224-1.021-2.563-1.836-4.021-2.447c-2.213-0.902-4.529-1.355-6.947-1.355c-4.137,0-7.543,1.342-10.223,4.021
			c-2.682,2.68-4.021,6.102-4.021,10.268s1.325,7.574,3.977,10.225c2.68,2.68,6.102,4.02,10.268,4.02
			c2.595,0,4.851-0.467,6.773-1.396c1.104-0.555,2.504-1.441,4.193-2.666v2.055L466.331,180.107z"/>
		<path fill="#010202" d="M486.473,181.941v-3.102c-1.894,2.271-4.297,3.408-7.209,3.408c-2.621,0-4.82-0.889-6.599-2.666
			c-1.807-1.805-2.709-4.02-2.709-6.641s0.89-4.82,2.666-6.6c1.806-1.807,4.021-2.709,6.642-2.709c2.885,0,5.287,1.137,7.209,3.408
			v-3.145h1.793v18.045H486.473z M484.594,167.611c-1.484-1.486-3.263-2.229-5.33-2.229c-2.099,0-3.873,0.729-5.33,2.184
			c-1.486,1.486-2.229,3.277-2.229,5.375c0,2.068,0.742,3.846,2.229,5.33c1.486,1.486,3.262,2.229,5.33,2.229
			c2.098,0,3.873-0.727,5.33-2.184c1.485-1.486,2.229-3.277,2.229-5.375C486.821,170.873,486.079,169.095,484.594,167.611z"/>
		<path fill="#010202" d="M494.075,181.941v-32.332h1.748v32.332H494.075L494.075,181.941z"/>
		<path fill="#010202" d="M510.504,182.291c-2.681,0-4.908-0.887-6.687-2.664c-1.777-1.777-2.664-4.006-2.664-6.686
			s0.887-4.908,2.664-6.686c1.777-1.775,4.006-2.666,6.687-2.666c2.301,0,4.137,0.525,5.506,1.574v2.141l-1.138-0.742l-1.223-0.656
			c-1.107-0.377-2.156-0.566-3.146-0.566c-2.243,0-4.063,0.697-5.461,2.098c-1.428,1.428-2.141,3.264-2.141,5.506
			c0,2.213,0.713,4.033,2.141,5.461c1.427,1.428,3.246,2.141,5.461,2.141c2.099,0,3.933-0.699,5.507-2.098v2.229
			C514.376,181.753,512.542,182.291,510.504,182.291z"/>
		<path fill="#010202" d="M530.12,180.369c-1.192,1.281-2.869,1.922-5.022,1.922c-2.127,0-3.773-0.625-4.938-1.879
			c-1.166-1.252-1.748-2.998-1.748-5.242v-11.273h1.791v11.273c0,1.719,0.379,3.043,1.138,3.977
			c0.784,0.932,2.037,1.396,3.758,1.396c3.348,0,5.022-1.791,5.022-5.373v-11.273h1.748v11.273
			C531.868,177.382,531.286,179.117,530.12,180.369z"/>
		<path fill="#010202" d="M535.67,181.941v-32.332h1.747v32.332H535.67L535.67,181.941z"/>
		<path fill="#010202" d="M558.739,181.941v-3.102c-1.895,2.271-4.297,3.408-7.209,3.408c-2.623,0-4.822-0.889-6.598-2.666
			c-1.808-1.805-2.709-4.02-2.709-6.641s0.887-4.82,2.664-6.6c1.807-1.807,4.02-2.709,6.643-2.709c2.883,0,5.287,1.137,7.209,3.408
			v-3.145h1.791v18.045H558.739z M556.86,167.611c-1.486-1.486-3.264-2.229-5.33-2.229c-2.098,0-3.875,0.729-5.332,2.184
			c-1.483,1.486-2.227,3.277-2.227,5.375c0,2.068,0.742,3.846,2.227,5.33c1.486,1.486,3.265,2.229,5.332,2.229
			c2.096,0,3.873-0.727,5.33-2.184c1.486-1.486,2.229-3.277,2.229-5.375C559.09,170.873,558.348,169.095,556.86,167.611z"/>
		<path fill="#010202" d="M568.569,165.687v16.254h-1.791v-16.254h-2.447v-1.791h2.447v-7.908h1.791v7.908h4.193v1.791H568.569
			L568.569,165.687z"/>
		<path fill="#010202" d="M578.008,160.664c-0.32,0-0.654-0.131-1.004-0.393c-0.265-0.264-0.408-0.613-0.438-1.051
			c0-0.785,0.479-1.266,1.441-1.441c0.729,0,1.209,0.48,1.44,1.441C579.448,160.183,578.969,160.664,578.008,160.664z
			 M577.09,181.941v-18.045h1.793v18.045H577.09z"/>
		<path fill="#010202" d="M599.417,179.539c-1.807,1.807-4.021,2.709-6.643,2.709s-4.82-0.889-6.598-2.666
			c-1.808-1.805-2.709-4.02-2.709-6.641c0-2.592,0.901-4.791,2.709-6.598c1.776-1.836,3.977-2.754,6.598-2.754
			c2.592,0,4.791,0.904,6.598,2.709c1.808,1.809,2.709,4.021,2.709,6.643S601.192,177.761,599.417,179.539z M598.149,167.566
			c-1.457-1.484-3.248-2.229-5.375-2.229c-2.039,0-3.801,0.758-5.287,2.273c-1.514,1.514-2.271,3.291-2.271,5.33
			c0,2.066,0.741,3.844,2.229,5.33c1.486,1.484,3.262,2.229,5.33,2.229c2.098,0,3.873-0.729,5.33-2.186
			c1.486-1.484,2.229-3.275,2.229-5.373C600.333,170.816,599.605,169.023,598.149,167.566z"/>
		<path fill="#010202" d="M618.729,181.941V171.15c0-3.816-1.719-5.725-5.156-5.725c-1.688,0-2.971,0.496-3.846,1.486
			c-0.902,0.99-1.354,2.344-1.354,4.063v10.967h-1.791v-18.045h1.791v2.186c0.814-1.602,2.55-2.404,5.199-2.404
			c2.242,0,3.961,0.643,5.156,1.924c1.192,1.281,1.791,3.072,1.791,5.373v10.969h-1.79V181.941z"/>
		<path fill="#010202" d="M644.551,176.873c-2.099,3.672-5.068,5.506-8.914,5.506c-3.816,0-6.771-1.85-8.869-5.549
			c-1.719-3.029-2.578-6.611-2.578-10.748c0-4.166,0.859-7.762,2.578-10.793c2.098-3.699,5.053-5.549,8.869-5.549
			c3.815,0,6.772,1.85,8.869,5.549c1.719,3.088,2.578,6.686,2.578,10.793C647.083,170.275,646.237,173.873,644.551,176.873z
			 M643.151,156.599c-1.719-3.379-4.225-5.066-7.516-5.066c-2.941,0-5.316,1.516-7.121,4.545c-1.604,2.738-2.404,6.072-2.404,10.006
			c0,3.582,0.684,6.713,2.055,9.393c1.746,3.381,4.238,5.068,7.472,5.068c3,0,5.389-1.5,7.166-4.5
			c1.602-2.65,2.401-5.971,2.401-9.961C645.204,162.441,644.521,159.281,643.151,156.599z"/>
		<path fill="#010202" d="M664.997,176v5.941h-1.834V176h-16.034l17.868-25.689v23.941h3.627V176H664.997z M663.163,155.857
			l-12.846,18.395h12.846V155.857z"/>
	</g>
</g>
<g>
	<g>
		<path fill="#010202" d="M546.76,98.888c-1.447,1.447-3.221,2.172-5.319,2.172c-2.101,0-3.862-0.713-5.285-2.137
			c-1.447-1.445-2.17-3.219-2.17-5.318c0-2.076,0.724-3.84,2.17-5.285c1.423-1.471,3.186-2.205,5.285-2.205
			c2.076,0,3.837,0.725,5.284,2.17c1.447,1.447,2.17,3.221,2.17,5.32S548.184,97.466,546.76,98.888z M545.745,89.298
			c-1.168-1.188-2.604-1.785-4.306-1.785c-1.634,0-3.046,0.607-4.235,1.82c-1.213,1.213-1.819,2.637-1.819,4.271
			c0,1.656,0.596,3.078,1.784,4.27c1.19,1.191,2.613,1.785,4.271,1.785c1.68,0,3.103-0.582,4.271-1.75
			c1.189-1.189,1.785-2.625,1.785-4.305C547.495,91.9,546.911,90.466,545.745,89.298z"/>
		<path fill="#010202" d="M565.135,98.888c-1.447,1.447-3.222,2.172-5.32,2.172c-2.402,0-4.387-0.98-5.949-2.939v9.484h-1.436
			V86.361h1.436v2.729c1.492-1.961,3.478-2.939,5.949-2.939c2.1,0,3.861,0.713,5.285,2.135c1.447,1.447,2.17,3.221,2.17,5.32
			S566.559,97.466,565.135,98.888z M564.083,89.333c-1.188-1.188-2.612-1.785-4.27-1.785c-1.68,0-3.104,0.584-4.271,1.75
			c-1.188,1.189-1.784,2.625-1.784,4.307c0,1.656,0.596,3.078,1.784,4.27c1.189,1.191,2.613,1.785,4.271,1.785
			c1.68,0,3.104-0.582,4.27-1.75c1.191-1.189,1.785-2.625,1.785-4.305C565.868,91.947,565.274,90.523,564.083,89.333z"/>
		<path fill="#010202" d="M586.903,100.814v-9.977c0-0.885-0.293-1.656-0.875-2.309c-0.584-0.654-1.424-0.98-2.52-0.98
			c-2.265,0-3.396,1.098-3.396,3.289v9.977h-1.434v-9.977c0-0.979-0.328-1.76-0.98-2.344c-0.678-0.631-1.481-0.945-2.416-0.945
			c-0.957,0-1.762,0.303-2.414,0.91c-0.653,0.584-0.979,1.377-0.979,2.379v9.977h-1.437V86.359h1.437v1.436
			c0.701-1.098,1.832-1.646,3.395-1.646c1.867,0,3.244,0.76,4.131,2.275c0.841-1.516,2.205-2.275,4.097-2.275
			c1.444,0,2.61,0.408,3.5,1.227c0.887,0.84,1.33,1.994,1.33,3.465v9.977h-1.438V100.814z"/>
		<path fill="#010202" d="M593.59,90.699c-0.259,0-0.525-0.105-0.808-0.314c-0.209-0.211-0.326-0.488-0.35-0.84
			c0-0.631,0.385-1.016,1.156-1.156c0.582,0,0.967,0.387,1.153,1.156C594.743,90.314,594.358,90.699,593.59,90.699z M593.59,101.023
			c-0.259,0-0.525-0.104-0.808-0.314c-0.209-0.209-0.326-0.49-0.35-0.84c0-0.631,0.385-1.016,1.156-1.154
			c0.582,0,0.967,0.385,1.153,1.154C594.743,100.638,594.358,101.023,593.59,101.023z"/>
		<path fill="#010202" d="M605.487,101.093c-2.146,0-3.932-0.711-5.354-2.135c-1.425-1.422-2.138-3.207-2.138-5.354
			s0.713-3.934,2.138-5.355c1.422-1.422,3.207-2.135,5.354-2.135c1.844,0,3.314,0.42,4.41,1.26v1.715l-0.91-0.594l-0.979-0.525
			c-0.89-0.303-1.729-0.455-2.521-0.455c-1.797,0-3.254,0.561-4.375,1.68c-1.143,1.145-1.715,2.613-1.715,4.41
			c0,1.773,0.572,3.232,1.715,4.375c1.146,1.145,2.603,1.715,4.375,1.715c1.683,0,3.15-0.561,4.41-1.68V99.8
			C608.592,100.662,607.12,101.093,605.487,101.093z"/>
		<path fill="#010202" d="M623.969,100.814V98.33c-1.519,1.818-3.443,2.729-5.775,2.729c-2.1,0-3.861-0.711-5.285-2.135
			c-1.447-1.445-2.17-3.221-2.17-5.32s0.711-3.861,2.135-5.285c1.447-1.445,3.221-2.17,5.32-2.17c2.311,0,4.234,0.91,5.775,2.73
			v-2.52h1.434v14.455H623.969L623.969,100.814z M622.463,89.333c-1.189-1.188-2.613-1.785-4.271-1.785
			c-1.68,0-3.104,0.584-4.271,1.75c-1.19,1.189-1.784,2.625-1.784,4.307c0,1.656,0.594,3.078,1.784,4.27
			c1.189,1.191,2.613,1.785,4.271,1.785c1.68,0,3.104-0.582,4.271-1.75c1.188-1.189,1.784-2.625,1.784-4.305
			C624.247,91.947,623.651,90.523,622.463,89.333z"/>
		<path fill="#010202" d="M630.059,100.814v-25.9h1.397v25.9H630.059z"/>
		<path fill="#010202" d="M643.217,101.093c-2.146,0-3.933-0.711-5.354-2.135c-1.424-1.422-2.137-3.207-2.137-5.354
			s0.713-3.934,2.137-5.355c1.422-1.422,3.207-2.135,5.354-2.135c1.844,0,3.313,0.42,4.41,1.26v1.715l-0.91-0.594l-0.979-0.525
			c-0.889-0.303-1.729-0.455-2.521-0.455c-1.797,0-3.254,0.561-4.375,1.68c-1.144,1.145-1.715,2.613-1.715,4.41
			c0,1.773,0.571,3.232,1.715,4.375c1.145,1.145,2.602,1.715,4.375,1.715c1.682,0,3.149-0.561,4.41-1.68V99.8
			C646.319,100.662,644.85,101.093,643.217,101.093z"/>
		<path fill="#010202" d="M658.932,99.554c-0.957,1.027-2.297,1.539-4.023,1.539c-1.705,0-3.022-0.502-3.955-1.504
			c-0.934-1.004-1.399-2.402-1.399-4.201v-9.027h1.436v9.027c0,1.377,0.304,2.439,0.91,3.188c0.629,0.746,1.633,1.119,3.01,1.119
			c2.683,0,4.023-1.436,4.023-4.307v-9.027h1.399v9.027C660.331,97.162,659.864,98.55,658.932,99.554z"/>
		<path fill="#010202" d="M663.377,100.814v-25.9h1.399v25.9H663.377z"/>
		<path fill="#010202" d="M681.857,100.814V98.33c-1.518,1.818-3.443,2.729-5.775,2.729c-2.1,0-3.86-0.711-5.285-2.135
			c-1.446-1.445-2.17-3.221-2.17-5.32s0.711-3.861,2.136-5.285c1.446-1.445,3.221-2.17,5.319-2.17c2.312,0,4.234,0.91,5.775,2.73
			v-2.52h1.434v14.455H681.857L681.857,100.814z M680.352,89.333c-1.189-1.188-2.613-1.785-4.271-1.785
			c-1.68,0-3.104,0.584-4.27,1.75c-1.191,1.189-1.785,2.625-1.785,4.307c0,1.656,0.594,3.078,1.785,4.27
			c1.188,1.191,2.613,1.785,4.27,1.785c1.681,0,3.104-0.582,4.271-1.75c1.188-1.189,1.785-2.625,1.785-4.305
			C682.137,91.947,681.54,90.523,680.352,89.333z"/>
		<path fill="#010202" d="M689.732,87.794v13.021h-1.436V87.794h-1.962v-1.436h1.962v-6.336h1.436v6.336h3.359v1.436H689.732z"/>
		<path fill="#010202" d="M697.29,83.769c-0.256,0-0.524-0.105-0.805-0.314c-0.209-0.211-0.326-0.49-0.35-0.842
			c0-0.629,0.385-1.014,1.153-1.154c0.584,0,0.97,0.385,1.156,1.154C698.446,83.384,698.061,83.769,697.29,83.769z M696.557,100.814
			V86.359h1.436v14.455H696.557z"/>
		<path fill="#010202" d="M714.441,98.888c-1.447,1.447-3.219,2.172-5.32,2.172c-2.1,0-3.86-0.713-5.285-2.137
			c-1.444-1.445-2.17-3.219-2.17-5.318c0-2.076,0.726-3.84,2.17-5.285c1.425-1.471,3.187-2.205,5.285-2.205
			c2.078,0,3.838,0.725,5.285,2.17c1.447,1.447,2.17,3.221,2.17,5.32C716.575,95.705,715.864,97.466,714.441,98.888z
			 M713.428,89.298c-1.168-1.188-2.604-1.785-4.308-1.785c-1.633,0-3.045,0.607-4.233,1.82c-1.213,1.213-1.82,2.637-1.82,4.271
			c0,1.656,0.596,3.078,1.785,4.27s2.613,1.785,4.27,1.785c1.683,0,3.104-0.582,4.271-1.75c1.188-1.189,1.785-2.625,1.785-4.305
			C715.178,91.9,714.594,90.466,713.428,89.298z"/>
		<path fill="#010202" d="M729.909,100.814v-8.646c0-3.057-1.377-4.584-4.129-4.584c-1.354,0-2.381,0.396-3.08,1.189
			c-0.725,0.793-1.086,1.879-1.086,3.256v8.785h-1.436V86.359h1.436v1.75c0.654-1.283,2.041-1.928,4.166-1.928
			c1.795,0,3.172,0.516,4.129,1.541c0.957,1.027,1.437,2.463,1.437,4.307v8.785H729.909L729.909,100.814z"/>
		<path fill="#010202" d="M737.364,77.259v23.557h-1.434V77.259h-5.531v-1.436h12.496v1.436H737.364z"/>
		<path fill="#010202" d="M745.346,107.603h-1.609l3.746-8.119l-6.09-13.125h1.539l5.391,11.41l5.32-11.41h1.574L745.346,107.603z"
			/>
		<path fill="#010202" d="M770.932,98.888c-1.447,1.447-3.221,2.172-5.32,2.172c-2.404,0-4.387-0.98-5.951-2.939v9.484h-1.434
			V86.361h1.434v2.729c1.494-1.961,3.478-2.939,5.951-2.939c2.1,0,3.861,0.713,5.285,2.135c1.445,1.447,2.17,3.221,2.17,5.32
			S772.354,97.466,770.932,98.888z M769.881,89.333c-1.189-1.188-2.613-1.785-4.271-1.785c-1.68,0-3.104,0.584-4.271,1.75
			c-1.19,1.189-1.784,2.625-1.784,4.307c0,1.656,0.594,3.078,1.784,4.27c1.189,1.191,2.611,1.785,4.271,1.785
			c1.68,0,3.103-0.582,4.271-1.75c1.188-1.189,1.784-2.625,1.784-4.305C771.665,91.947,771.069,90.523,769.881,89.333z"/>
		<path fill="#010202" d="M776.53,93.289c0,1.961,0.525,3.512,1.574,4.654c1.098,1.168,2.602,1.75,4.516,1.75
			c0.98,0,1.867-0.162,2.66-0.488c1.002-0.42,1.9-1.271,2.695-2.557l1.295,0.596c-0.91,1.727-2.312,2.895-4.201,3.5
			c-0.723,0.232-1.539,0.35-2.449,0.35c-2.17,0-3.955-0.711-5.354-2.135c-1.424-1.422-2.135-3.207-2.135-5.354
			c0-2.172,0.698-3.955,2.1-5.355c1.424-1.422,3.221-2.135,5.391-2.135c2.146,0,3.92,0.666,5.32,1.996
			c1.422,1.33,2.135,3.057,2.135,5.18H776.53V93.289z M786.399,88.705c-1.096-0.793-2.357-1.191-3.779-1.191
			c-2.985,0-4.946,1.473-5.881,4.41h11.728C788.232,90.593,787.542,89.521,786.399,88.705z"/>
	</g>
</g>
<g>
	<g>
		<path fill="#010202" d="M12.774,180.015c-1.447,1.447-3.22,2.172-5.319,2.172c-2.101,0-3.861-0.713-5.285-2.137
			C0.724,178.605,0,176.832,0,174.732c0-2.076,0.724-3.84,2.17-5.285c1.424-1.469,3.186-2.205,5.285-2.205
			c2.076,0,3.838,0.725,5.284,2.17c1.447,1.447,2.17,3.221,2.17,5.32S14.198,178.593,12.774,180.015z M11.761,170.425
			c-1.167-1.188-2.604-1.785-4.306-1.785c-1.634,0-3.046,0.607-4.234,1.82c-1.213,1.213-1.82,2.637-1.82,4.271
			c0,1.656,0.596,3.08,1.785,4.27c1.189,1.191,2.613,1.785,4.271,1.785c1.681,0,3.104-0.582,4.271-1.75
			c1.188-1.189,1.784-2.625,1.784-4.305C13.511,173.027,12.928,171.593,11.761,170.425z"/>
		<path fill="#010202" d="M31.149,180.015c-1.447,1.447-3.221,2.172-5.32,2.172c-2.401,0-4.387-0.98-5.948-2.939v9.484h-1.437
			v-21.246h1.437v2.729c1.491-1.959,3.477-2.939,5.948-2.939c2.101,0,3.861,0.713,5.285,2.137c1.447,1.445,2.17,3.219,2.17,5.318
			C33.284,176.832,32.573,178.593,31.149,180.015z M30.1,170.46c-1.189-1.188-2.613-1.785-4.271-1.785
			c-1.68,0-3.104,0.584-4.27,1.75c-1.189,1.189-1.785,2.625-1.785,4.307c0,1.656,0.596,3.08,1.785,4.27
			c1.188,1.191,2.613,1.785,4.27,1.785c1.681,0,3.104-0.582,4.271-1.75c1.19-1.189,1.785-2.625,1.785-4.305
			C31.885,173.074,31.29,171.65,30.1,170.46z"/>
		<path fill="#010202" d="M52.919,181.941v-9.977c0-0.885-0.293-1.656-0.875-2.309c-0.584-0.654-1.424-0.98-2.52-0.98
			c-2.264,0-3.396,1.098-3.396,3.289v9.977h-1.435v-9.977c0-0.979-0.328-1.76-0.979-2.344c-0.679-0.631-1.482-0.945-2.416-0.945
			c-0.957,0-1.763,0.305-2.414,0.91c-0.654,0.584-0.98,1.377-0.98,2.379v9.977h-1.436v-14.455h1.436v1.436
			c0.701-1.098,1.832-1.646,3.396-1.646c1.866,0,3.243,0.76,4.131,2.275c0.84-1.516,2.205-2.275,4.096-2.275
			c1.445,0,2.611,0.408,3.5,1.227c0.887,0.84,1.33,1.994,1.33,3.465v9.977h-1.438V181.941z"/>
		<path fill="#010202" d="M59.605,171.826c-0.258,0-0.525-0.105-0.807-0.314c-0.209-0.211-0.326-0.488-0.351-0.84
			c0-0.631,0.385-1.016,1.156-1.156c0.582,0,0.967,0.387,1.154,1.156C60.76,171.441,60.374,171.826,59.605,171.826z M59.605,182.15
			c-0.258,0-0.525-0.104-0.807-0.314c-0.209-0.209-0.326-0.49-0.351-0.84c0-0.631,0.385-1.016,1.156-1.154
			c0.582,0,0.967,0.385,1.154,1.154C60.76,181.765,60.374,182.15,59.605,182.15z"/>
		<path fill="#010202" d="M65.659,164.896c-0.258,0-0.524-0.105-0.805-0.314c-0.211-0.211-0.328-0.49-0.353-0.842
			c0-0.629,0.386-1.014,1.156-1.154c0.582,0,0.967,0.385,1.154,1.154C66.814,164.511,66.43,164.896,65.659,164.896z M64.924,181.941
			v-14.455h1.436v14.455H64.924z"/>
		<path fill="#010202" d="M79.17,181.941v-8.645c0-3.057-1.378-4.586-4.132-4.586c-1.354,0-2.379,0.396-3.08,1.189
			c-0.723,0.795-1.084,1.879-1.084,3.256v8.785h-1.436v-14.455h1.436v1.75c0.652-1.283,2.041-1.926,4.164-1.926
			c1.798,0,3.175,0.514,4.132,1.541c0.954,1.025,1.434,2.461,1.434,4.305v8.785H79.17L79.17,181.941z"/>
		<path fill="#010202" d="M88.792,157.476l-0.942-0.105c-1.31,0-1.961,0.77-1.961,2.311v7.807h3.43v1.434h-3.43v13.021h-1.437
			v-13.021h-1.959v-1.434h1.959v-8.227c0-2.217,1.121-3.326,3.361-3.326c0.512,0,0.84,0.023,0.979,0.07
			c0.28,0,0.596,0.082,0.944,0.246v1.434L88.792,157.476z"/>
		<path fill="#010202" d="M91.278,174.416c0,1.961,0.525,3.512,1.574,4.654c1.098,1.168,2.602,1.75,4.516,1.75
			c0.98,0,1.867-0.162,2.66-0.488c1.002-0.42,1.9-1.271,2.695-2.557l1.295,0.596c-0.91,1.727-2.312,2.895-4.201,3.5
			c-0.723,0.232-1.539,0.35-2.449,0.35c-2.17,0-3.955-0.711-5.354-2.135c-1.424-1.422-2.135-3.207-2.135-5.354
			c0-2.172,0.698-3.955,2.1-5.355c1.424-1.422,3.221-2.135,5.391-2.135c2.146,0,3.92,0.666,5.32,1.996
			c1.422,1.33,2.135,3.057,2.135,5.18H91.278V174.416z M101.148,169.832c-1.096-0.793-2.357-1.191-3.779-1.191
			c-2.985,0-4.946,1.473-5.881,4.41h11.728C102.98,171.72,102.29,170.648,101.148,169.832z"/>
		<path fill="#010202" d="M114.975,169.621c-0.373-0.279-0.771-0.502-1.189-0.664c-0.419-0.164-0.865-0.246-1.33-0.246
			c-0.397,0-0.771,0.123-1.121,0.367c-0.35,0.246-0.651,0.549-0.909,0.91c-0.257,0.361-0.461,0.766-0.611,1.207
			c-0.152,0.443-0.229,0.854-0.229,1.227v9.521h-1.436v-14.457h1.436v1.959c0.304-0.535,0.701-1.025,1.189-1.469
			c0.49-0.443,1.027-0.666,1.611-0.666c0.723,0,1.317,0.082,1.785,0.246c0.467,0.162,0.989,0.453,1.573,0.875L114.975,169.621z"/>
		<path fill="#010202" d="M125.823,169.621c-0.373-0.279-0.77-0.502-1.188-0.664c-0.419-0.164-0.865-0.246-1.33-0.246
			c-0.398,0-0.771,0.123-1.121,0.367c-0.351,0.246-0.652,0.549-0.91,0.91c-0.256,0.361-0.461,0.766-0.611,1.207
			c-0.151,0.443-0.229,0.854-0.229,1.227v9.521h-1.437v-14.457h1.437v1.959c0.303-0.535,0.701-1.025,1.188-1.469
			c0.49-0.443,1.027-0.666,1.611-0.666c0.723,0,1.318,0.082,1.785,0.246c0.467,0.162,0.99,0.453,1.574,0.875L125.823,169.621z"/>
		<path fill="#010202" d="M128.064,174.416c0,1.961,0.525,3.512,1.574,4.654c1.098,1.168,2.602,1.75,4.516,1.75
			c0.98,0,1.867-0.162,2.66-0.488c1.002-0.42,1.9-1.271,2.695-2.557l1.295,0.596c-0.91,1.727-2.312,2.895-4.201,3.5
			c-0.724,0.232-1.539,0.35-2.449,0.35c-2.17,0-3.955-0.711-5.354-2.135c-1.425-1.422-2.136-3.207-2.136-5.354
			c0-2.172,0.699-3.955,2.101-5.355c1.424-1.422,3.221-2.135,5.391-2.135c2.146,0,3.92,0.666,5.32,1.996
			c1.422,1.33,2.135,3.057,2.135,5.18h-13.546V174.416z M137.934,169.832c-1.096-0.793-2.357-1.191-3.779-1.191
			c-2.986,0-4.947,1.473-5.881,4.41H140C139.766,171.72,139.075,170.648,137.934,169.832z"/>
		<path fill="#010202" d="M157.463,181.941v-2.59c-1.539,1.889-3.5,2.834-5.88,2.834c-2.1,0-3.862-0.711-5.284-2.135
			c-1.447-1.445-2.17-3.221-2.17-5.32s0.711-3.861,2.135-5.285c1.447-1.445,3.221-2.17,5.319-2.17c2.31,0,4.271,0.945,5.88,2.836
			v-14.07h1.436v25.9H157.463z M155.854,170.46c-1.189-1.188-2.613-1.785-4.271-1.785c-1.68,0-3.104,0.584-4.27,1.75
			c-1.191,1.189-1.785,2.625-1.785,4.307c0,1.656,0.594,3.08,1.785,4.27c1.188,1.191,2.611,1.785,4.27,1.785
			c1.681,0,3.103-0.582,4.271-1.75c1.188-1.189,1.785-2.625,1.785-4.305C157.639,173.074,157.042,171.65,155.854,170.46z"/>
		<path fill="#010202" d="M174.439,167.695c-1.307,1.168-2.918,1.75-4.83,1.75h-4.691v12.496h-1.397v-24.99h6.09
			c1.912,0,3.523,0.561,4.83,1.68c1.307,1.121,1.959,2.625,1.959,4.518C176.398,165.058,175.745,166.576,174.439,167.695z
			 M173.354,159.576c-0.957-0.793-2.217-1.189-3.779-1.189h-4.656v9.625h4.656c1.539,0,2.822-0.42,3.851-1.26
			c1.026-0.887,1.541-2.088,1.541-3.604C174.965,161.628,174.428,160.439,173.354,159.576z"/>
		<path fill="#010202" d="M184.729,169.621c-0.373-0.279-0.771-0.502-1.189-0.664c-0.419-0.164-0.862-0.246-1.33-0.246
			c-0.396,0-0.77,0.123-1.119,0.367c-0.352,0.246-0.653,0.549-0.909,0.91c-0.259,0.361-0.461,0.766-0.613,1.207
			c-0.152,0.443-0.227,0.854-0.227,1.227v9.521h-1.437v-14.457h1.437v1.959c0.303-0.535,0.698-1.025,1.188-1.469
			s1.027-0.666,1.609-0.666c0.723,0,1.317,0.082,1.785,0.246c0.467,0.162,0.991,0.453,1.575,0.875L184.729,169.621z"/>
		<path fill="#010202" d="M198.237,180.015c-1.447,1.447-3.219,2.172-5.32,2.172c-2.1,0-3.86-0.713-5.284-2.137
			c-1.445-1.445-2.17-3.219-2.17-5.318c0-2.076,0.725-3.84,2.17-5.285c1.424-1.469,3.186-2.205,5.284-2.205
			c2.078,0,3.839,0.725,5.285,2.17c1.447,1.447,2.17,3.221,2.17,5.32S199.661,178.593,198.237,180.015z M197.225,170.425
			c-1.168-1.188-2.604-1.785-4.308-1.785c-1.633,0-3.045,0.607-4.233,1.82c-1.213,1.213-1.82,2.637-1.82,4.271
			c0,1.656,0.596,3.08,1.785,4.27c1.188,1.191,2.613,1.785,4.27,1.785c1.683,0,3.104-0.582,4.271-1.75
			c1.189-1.189,1.785-2.625,1.785-4.305C198.975,173.027,198.391,171.593,197.225,170.425z"/>
		<path fill="#010202" d="M216.612,180.015c-1.447,1.447-3.221,2.172-5.32,2.172c-2.401,0-4.387-0.98-5.948-2.939v9.484h-1.437
			v-21.246h1.437v2.729c1.492-1.959,3.477-2.939,5.948-2.939c2.101,0,3.861,0.713,5.285,2.137c1.447,1.445,2.17,3.219,2.17,5.318
			C218.747,176.832,218.036,178.593,216.612,180.015z M215.563,170.46c-1.189-1.188-2.613-1.785-4.271-1.785
			c-1.68,0-3.104,0.584-4.27,1.75c-1.189,1.189-1.785,2.625-1.785,4.307c0,1.656,0.596,3.08,1.785,4.27
			c1.188,1.191,2.613,1.785,4.27,1.785c1.681,0,3.104-0.582,4.271-1.75c1.191-1.189,1.785-2.625,1.785-4.305
			C217.348,173.074,216.754,171.65,215.563,170.46z"/>
		<path fill="#010202" d="M222.213,174.416c0,1.961,0.524,3.512,1.575,4.654c1.097,1.168,2.603,1.75,4.515,1.75
			c0.979,0,1.866-0.162,2.659-0.488c1.005-0.42,1.902-1.271,2.695-2.557l1.295,0.596c-0.91,1.727-2.311,2.895-4.199,3.5
			c-0.725,0.232-1.541,0.35-2.45,0.35c-2.17,0-3.955-0.711-5.354-2.135c-1.424-1.422-2.135-3.207-2.135-5.354
			c0-2.172,0.699-3.955,2.1-5.355c1.422-1.422,3.22-2.135,5.39-2.135c2.146,0,3.92,0.666,5.319,1.996
			c1.424,1.33,2.136,3.057,2.136,5.18h-13.545V174.416z M232.083,169.832c-1.098-0.793-2.356-1.191-3.78-1.191
			c-2.986,0-4.945,1.473-5.879,4.41h11.725C233.913,171.72,233.227,170.648,232.083,169.832z"/>
		<path fill="#010202" d="M245.907,169.621c-0.373-0.279-0.77-0.502-1.188-0.664c-0.419-0.164-0.865-0.246-1.33-0.246
			c-0.398,0-0.771,0.123-1.121,0.367c-0.351,0.246-0.652,0.549-0.91,0.91c-0.256,0.361-0.461,0.766-0.611,1.207
			c-0.151,0.443-0.229,0.854-0.229,1.227v9.521h-1.437v-14.457h1.437v1.959c0.303-0.535,0.701-1.025,1.188-1.469
			c0.49-0.443,1.027-0.666,1.611-0.666c0.723,0,1.318,0.082,1.785,0.246c0.467,0.162,0.99,0.453,1.574,0.875L245.907,169.621z"/>
		<path fill="#010202" d="M252.104,168.921v13.021h-1.437v-13.021h-1.961v-1.436h1.961v-6.336h1.437v6.336h3.359v1.436H252.104z"/>
		<path fill="#010202" d="M261.307,188.73h-1.609l3.746-8.119l-6.09-13.125h1.539l5.391,11.41l5.32-11.41h1.574L261.307,188.73z"/>
	</g>
</g>
<g>
	<g>
		<path fill="#010202" d="M118.4,36.106c-1.806,1.807-4.02,2.708-6.642,2.708c-3,0-5.478-1.224-7.429-3.669v11.839h-1.791V20.463
			h1.791v3.408c1.864-2.447,4.34-3.67,7.429-3.67c2.622,0,4.819,0.889,6.598,2.664c1.807,1.807,2.709,4.021,2.709,6.643
			C121.066,32.129,120.178,34.329,118.4,36.106z M117.091,24.178c-1.485-1.484-3.264-2.229-5.331-2.229
			c-2.098,0-3.874,0.729-5.33,2.184c-1.486,1.486-2.229,3.277-2.229,5.375c0,2.068,0.742,3.846,2.229,5.33
			c1.484,1.486,3.262,2.23,5.33,2.23c2.098,0,3.874-0.73,5.331-2.188c1.484-1.482,2.228-3.275,2.228-5.373
			C119.317,27.44,118.575,25.663,117.091,24.178z"/>
		<path fill="#010202" d="M133.563,23.129c-0.467-0.35-0.961-0.627-1.486-0.83c-0.522-0.205-1.078-0.307-1.66-0.307
			c-0.493,0-0.961,0.152-1.397,0.459c-0.437,0.305-0.814,0.684-1.136,1.137c-0.322,0.451-0.575,0.953-0.766,1.506
			c-0.188,0.557-0.283,1.064-0.283,1.529v11.884h-1.792V20.463h1.792v2.447c0.377-0.67,0.873-1.281,1.486-1.836
			c0.611-0.553,1.281-0.83,2.01-0.83c0.902,0,1.646,0.104,2.228,0.307c0.584,0.203,1.237,0.568,1.967,1.094L133.563,23.129z"/>
		<path fill="#010202" d="M150.428,36.106c-1.808,1.807-4.021,2.708-6.642,2.708c-2.623,0-4.821-0.888-6.598-2.665
			c-1.807-1.807-2.709-4.02-2.709-6.641c0-2.594,0.902-4.793,2.709-6.598c1.775-1.836,3.975-2.754,6.598-2.754
			c2.593,0,4.791,0.904,6.599,2.709c1.805,1.807,2.709,4.02,2.709,6.643C153.094,32.129,152.204,34.329,150.428,36.106z
			 M149.159,24.133c-1.457-1.484-3.248-2.229-5.373-2.229c-2.039,0-3.803,0.758-5.287,2.271c-1.516,1.516-2.271,3.293-2.271,5.332
			c0,2.068,0.742,3.844,2.227,5.33c1.486,1.484,3.265,2.229,5.332,2.229c2.097,0,3.873-0.729,5.33-2.186
			c1.486-1.484,2.229-3.275,2.229-5.373C151.346,27.381,150.616,25.59,149.159,24.133z"/>
		<path fill="#010202" d="M173.366,36.106c-1.807,1.807-4.021,2.708-6.643,2.708c-3,0-5.478-1.224-7.429-3.669v11.839h-1.791V20.463
			h1.791v3.408c1.863-2.447,4.341-3.67,7.429-3.67c2.621,0,4.819,0.889,6.598,2.664c1.808,1.807,2.709,4.021,2.709,6.643
			S175.143,34.329,173.366,36.106z M172.055,24.178c-1.484-1.484-3.263-2.229-5.33-2.229c-2.099,0-3.873,0.729-5.33,2.184
			c-1.486,1.486-2.229,3.277-2.229,5.375c0,2.068,0.742,3.846,2.229,5.33c1.486,1.486,3.262,2.23,5.33,2.23
			c2.098,0,3.873-0.73,5.33-2.188c1.485-1.482,2.229-3.275,2.229-5.373C174.282,27.44,173.54,25.663,172.055,24.178z"/>
		<path fill="#010202" d="M188.874,37.372c-1.164,0.991-2.563,1.485-4.192,1.485c-2.797,0-4.896-1.267-6.291-3.8l1.526-0.918
			c0.496,0.902,1.095,1.602,1.793,2.098c0.728,0.553,1.718,0.83,2.972,0.83c2.737,0,4.106-1.164,4.106-3.496
			c0-1.02-0.479-1.906-1.442-2.664c-0.291-0.176-0.705-0.373-1.244-0.59c-0.539-0.219-1.201-0.475-1.988-0.766
			c-1.457-0.523-2.506-1.049-3.146-1.572c-0.933-0.758-1.396-1.85-1.396-3.277c0-1.225,0.465-2.271,1.396-3.146
			c0.901-0.9,2.082-1.354,3.539-1.354c2.01,0,3.715,0.699,5.112,2.098l-1.311,1.135c-0.992-0.988-2.258-1.484-3.803-1.484
			c-2.097,0-3.146,0.918-3.146,2.754c0,0.814,0.32,1.484,0.961,2.01c0.523,0.408,1.354,0.801,2.49,1.18
			c0.99,0.35,1.807,0.678,2.447,0.982c0.641,0.307,1.12,0.576,1.44,0.809c1.252,0.961,1.879,2.258,1.879,3.889
			C190.579,35.145,190.012,36.411,188.874,37.372z"/>
		<path fill="#010202" d="M195.256,25.881c-0.32,0-0.656-0.131-1.007-0.393c-0.262-0.264-0.407-0.613-0.436-1.049
			c0-0.787,0.479-1.268,1.441-1.441c0.729,0,1.209,0.48,1.44,1.441C196.696,25.401,196.217,25.881,195.256,25.881z M195.256,38.769
			c-0.32,0-0.656-0.131-1.007-0.393c-0.262-0.262-0.407-0.61-0.436-1.048c0-0.787,0.479-1.27,1.441-1.441
			c0.729,0,1.209,0.48,1.44,1.441C196.696,38.289,196.217,38.769,195.256,38.769z"/>
		<path fill="#010202" d="M204.299,22.254v16.253h-1.791V22.254h-2.447v-1.791h2.447v-7.908h1.791v7.908h4.194v1.791H204.299z"/>
		<path fill="#010202" d="M221.034,23.129c-0.467-0.35-0.963-0.627-1.485-0.83c-0.525-0.205-1.078-0.307-1.66-0.307
			c-0.496,0-0.961,0.152-1.398,0.459c-0.438,0.305-0.815,0.684-1.137,1.137c-0.321,0.451-0.574,0.953-0.764,1.506
			c-0.189,0.557-0.285,1.064-0.285,1.529v11.884h-1.791V20.463h1.791v2.447c0.379-0.67,0.875-1.281,1.485-1.836
			c0.611-0.553,1.281-0.83,2.011-0.83c0.901,0,1.645,0.104,2.229,0.307c0.582,0.203,1.238,0.568,1.967,1.094L221.034,23.129z"/>
		<path fill="#010202" d="M240.346,38.507v-3.101c-1.894,2.271-4.297,3.407-7.209,3.407c-2.621,0-4.82-0.888-6.599-2.665
			c-1.807-1.807-2.709-4.02-2.709-6.641c0-2.623,0.89-4.82,2.666-6.598c1.806-1.807,4.021-2.709,6.642-2.709
			c2.885,0,5.287,1.135,7.209,3.406v-3.146h1.793v18.044h-1.793V38.507z M238.467,24.178c-1.484-1.484-3.263-2.229-5.33-2.229
			c-2.099,0-3.873,0.729-5.33,2.184c-1.486,1.486-2.229,3.277-2.229,5.375c0,2.068,0.742,3.846,2.229,5.33
			c1.485,1.486,3.262,2.23,5.33,2.23c2.098,0,3.873-0.73,5.33-2.188c1.485-1.482,2.229-3.275,2.229-5.373
			C240.694,27.44,239.952,25.663,238.467,24.178z"/>
		<path fill="#010202" d="M259.614,38.507v-10.79c0-3.814-1.719-5.725-5.156-5.725c-1.688,0-2.971,0.496-3.846,1.486
			c-0.901,0.99-1.354,2.344-1.354,4.063v10.966h-1.791V20.463h1.791v2.186c0.813-1.604,2.549-2.404,5.198-2.404
			c2.242,0,3.961,0.641,5.156,1.922c1.193,1.283,1.791,3.074,1.791,5.375v10.966H259.614L259.614,38.507z"/>
		<path fill="#010202" d="M276.042,37.372c-1.166,0.991-2.563,1.485-4.194,1.485c-2.795,0-4.894-1.267-6.291-3.8l1.528-0.918
			c0.494,0.902,1.093,1.602,1.791,2.098c0.729,0.553,1.72,0.83,2.972,0.83c2.737,0,4.106-1.164,4.106-3.496
			c0-1.02-0.479-1.906-1.44-2.664c-0.291-0.176-0.707-0.373-1.246-0.59c-0.539-0.219-1.201-0.475-1.986-0.766
			c-1.457-0.523-2.506-1.049-3.146-1.572c-0.935-0.758-1.398-1.85-1.398-3.277c0-1.225,0.465-2.271,1.398-3.146
			c0.901-0.9,2.082-1.354,3.539-1.354c2.01,0,3.713,0.699,5.11,2.098l-1.311,1.135c-0.99-0.988-2.258-1.484-3.801-1.484
			c-2.099,0-3.146,0.918-3.146,2.754c0,0.814,0.32,1.484,0.961,2.01c0.525,0.408,1.355,0.801,2.49,1.18
			c0.99,0.35,1.807,0.678,2.447,0.982c0.641,0.307,1.121,0.576,1.44,0.809c1.254,0.961,1.879,2.258,1.879,3.889
			C277.745,35.145,277.18,36.411,276.042,37.372z"/>
		<path fill="#010202" d="M302.17,38.507V26.055c0-1.104-0.363-2.066-1.093-2.883c-0.729-0.814-1.776-1.223-3.146-1.223
			c-2.824,0-4.236,1.369-4.236,4.105v12.452h-1.793V26.055c0-1.223-0.408-2.197-1.223-2.928c-0.847-0.785-1.851-1.18-3.017-1.18
			c-1.192,0-2.198,0.379-3.014,1.137c-0.816,0.729-1.225,1.719-1.225,2.971v12.452h-1.791V20.463h1.791v1.791
			c0.875-1.369,2.286-2.053,4.237-2.053c2.33,0,4.049,0.945,5.156,2.84c1.049-1.895,2.752-2.84,5.111-2.84
			c1.807,0,3.264,0.51,4.371,1.529c1.104,1.047,1.659,2.488,1.659,4.322v12.452h-1.79V38.507z"/>
		<path fill="#010202" d="M308.682,17.231c-0.322,0-0.656-0.133-1.006-0.395c-0.263-0.262-0.408-0.611-0.438-1.049
			c0-0.787,0.48-1.268,1.443-1.441c0.727,0,1.207,0.48,1.44,1.441C310.122,16.75,309.643,17.231,308.682,17.231z M307.764,38.507
			V20.463h1.791v18.044H307.764z"/>
		<path fill="#010202" d="M324.364,37.372c-1.164,0.991-2.563,1.485-4.192,1.485c-2.798,0-4.896-1.267-6.291-3.8l1.526-0.918
			c0.496,0.902,1.094,1.602,1.793,2.098c0.728,0.553,1.717,0.83,2.972,0.83c2.737,0,4.106-1.164,4.106-3.496
			c0-1.02-0.479-1.906-1.442-2.664c-0.291-0.176-0.705-0.373-1.244-0.59c-0.539-0.219-1.201-0.475-1.988-0.766
			c-1.457-0.523-2.506-1.049-3.146-1.572c-0.932-0.758-1.396-1.85-1.396-3.277c0-1.225,0.465-2.271,1.396-3.146
			c0.902-0.9,2.082-1.354,3.539-1.354c2.011,0,3.716,0.699,5.113,2.098l-1.311,1.135c-0.992-0.988-2.259-1.484-3.804-1.484
			c-2.096,0-3.145,0.918-3.145,2.754c0,0.814,0.32,1.484,0.961,2.01c0.522,0.408,1.354,0.801,2.49,1.18
			c0.989,0.35,1.807,0.678,2.446,0.982c0.642,0.307,1.121,0.576,1.441,0.809c1.252,0.961,1.879,2.258,1.879,3.889
			C326.069,35.145,325.501,36.411,324.364,37.372z"/>
		<path fill="#010202" d="M338.827,37.372c-1.166,0.991-2.563,1.485-4.194,1.485c-2.795,0-4.894-1.267-6.291-3.8l1.528-0.918
			c0.494,0.902,1.092,1.602,1.791,2.098c0.729,0.553,1.72,0.83,2.972,0.83c2.737,0,4.106-1.164,4.106-3.496
			c0-1.02-0.479-1.906-1.44-2.664c-0.291-0.176-0.707-0.373-1.246-0.59c-0.539-0.219-1.201-0.475-1.986-0.766
			c-1.457-0.523-2.506-1.049-3.146-1.572c-0.934-0.758-1.397-1.85-1.397-3.277c0-1.225,0.465-2.271,1.397-3.146
			c0.902-0.9,2.082-1.354,3.539-1.354c2.011,0,3.714,0.699,5.111,2.098l-1.311,1.135c-0.99-0.988-2.258-1.484-3.802-1.484
			c-2.098,0-3.146,0.918-3.146,2.754c0,0.814,0.32,1.484,0.961,2.01c0.525,0.408,1.355,0.801,2.49,1.18
			c0.99,0.35,1.807,0.678,2.447,0.982c0.641,0.307,1.12,0.576,1.44,0.809c1.254,0.961,1.879,2.258,1.879,3.889
			C340.53,35.145,339.965,36.411,338.827,37.372z"/>
		<path fill="#010202" d="M345.645,17.231c-0.322,0-0.656-0.133-1.006-0.395c-0.263-0.262-0.408-0.611-0.438-1.049
			c0-0.787,0.48-1.268,1.443-1.441c0.727,0,1.207,0.48,1.44,1.441C347.085,16.75,346.605,17.231,345.645,17.231z M344.727,38.507
			V20.463h1.791v18.044H344.727z"/>
		<path fill="#010202" d="M367.053,36.106c-1.808,1.807-4.021,2.708-6.642,2.708c-2.623,0-4.821-0.888-6.598-2.665
			c-1.807-1.807-2.709-4.02-2.709-6.641c0-2.594,0.902-4.793,2.709-6.598c1.775-1.836,3.975-2.754,6.598-2.754
			c2.593,0,4.791,0.904,6.599,2.709c1.805,1.807,2.709,4.02,2.709,6.643C369.719,32.129,368.829,34.329,367.053,36.106z
			 M365.784,24.133c-1.457-1.484-3.248-2.229-5.373-2.229c-2.039,0-3.803,0.758-5.287,2.271c-1.516,1.516-2.271,3.293-2.271,5.332
			c0,2.068,0.742,3.844,2.227,5.33c1.486,1.484,3.265,2.229,5.332,2.229c2.097,0,3.873-0.729,5.33-2.186
			c1.486-1.484,2.229-3.275,2.229-5.373C367.971,27.381,367.241,25.59,365.784,24.133z"/>
		<path fill="#010202" d="M386.364,38.507v-10.79c0-3.814-1.719-5.725-5.156-5.725c-1.688,0-2.971,0.496-3.846,1.486
			c-0.901,0.99-1.354,2.344-1.354,4.063v10.966h-1.791V20.463h1.791v2.186c0.813-1.604,2.549-2.404,5.198-2.404
			c2.242,0,3.961,0.641,5.156,1.922c1.193,1.283,1.791,3.074,1.791,5.375v10.966H386.364L386.364,38.507z"/>
		<path fill="#010202" d="M128.713,90.939V74.685H111.54v16.254h-1.748V59.744h1.748v13.15h17.173v-13.15h1.791v31.195H128.713z"/>
		<path fill="#010202" d="M136.575,81.546c0,2.445,0.656,4.383,1.967,5.811c1.369,1.457,3.248,2.186,5.638,2.186
			c1.223,0,2.33-0.203,3.319-0.611c1.253-0.523,2.373-1.588,3.363-3.189l1.617,0.742c-1.137,2.156-2.883,3.611-5.242,4.371
			c-0.904,0.289-1.924,0.436-3.059,0.436c-2.709,0-4.938-0.889-6.687-2.664c-1.776-1.777-2.666-4.006-2.666-6.686
			c0-2.709,0.875-4.939,2.623-6.686c1.775-1.775,4.021-2.666,6.729-2.666c2.68,0,4.893,0.83,6.641,2.49
			c1.777,1.66,2.666,3.816,2.666,6.467H136.575L136.575,81.546z M148.898,75.822c-1.369-0.99-2.943-1.486-4.719-1.486
			c-3.73,0-6.176,1.836-7.342,5.506h14.639C151.184,78.181,150.323,76.841,148.898,75.822z"/>
		<path fill="#010202" d="M172.797,90.939v-3.104c-1.894,2.273-4.298,3.408-7.209,3.408c-2.621,0-4.82-0.887-6.599-2.664
			c-1.807-1.807-2.709-4.021-2.709-6.643s0.89-4.82,2.666-6.598c1.806-1.807,4.021-2.709,6.642-2.709
			c2.885,0,5.286,1.137,7.209,3.408v-3.146h1.793v18.045h-1.793V90.939z M170.917,76.609c-1.483-1.486-3.262-2.23-5.329-2.23
			c-2.099,0-3.873,0.73-5.33,2.186c-1.486,1.484-2.229,3.277-2.229,5.375c0,2.066,0.742,3.846,2.229,5.33
			c1.486,1.484,3.262,2.229,5.33,2.229c2.098,0,3.872-0.729,5.329-2.186c1.486-1.484,2.229-3.275,2.229-5.373
			C173.146,79.871,172.403,78.093,170.917,76.609z"/>
		<path fill="#010202" d="M182.629,74.685v16.254h-1.791V74.685h-2.447v-1.791h2.447v-7.908h1.791v7.908h4.192v1.791H182.629z"/>
		<path fill="#010202" d="M193.639,61.535v29.404h-1.791V61.535h-6.904v-1.791h15.6v1.791H193.639z"/>
		<path fill="#010202" d="M207.926,75.558c-0.468-0.35-0.961-0.625-1.486-0.828c-0.523-0.203-1.078-0.307-1.66-0.307
			c-0.494,0-0.961,0.152-1.397,0.459s-0.814,0.686-1.136,1.137c-0.319,0.451-0.576,0.953-0.766,1.506
			c-0.189,0.555-0.283,1.064-0.283,1.529v11.885h-1.791V72.894h1.791v2.445c0.379-0.668,0.873-1.281,1.486-1.834
			c0.611-0.553,1.281-0.83,2.01-0.83c0.902,0,1.646,0.104,2.227,0.307c0.584,0.203,1.238,0.566,1.968,1.092L207.926,75.558z"/>
		<path fill="#010202" d="M227.237,90.939v-3.104c-1.893,2.273-4.297,3.408-7.209,3.408c-2.621,0-4.82-0.887-6.598-2.664
			c-1.808-1.807-2.709-4.021-2.709-6.643s0.889-4.82,2.666-6.598c1.805-1.807,4.02-2.709,6.641-2.709
			c2.885,0,5.287,1.137,7.209,3.408v-3.146h1.793v18.045h-1.793V90.939z M225.358,76.609c-1.484-1.486-3.262-2.23-5.33-2.23
			c-2.098,0-3.873,0.73-5.33,2.186c-1.486,1.484-2.229,3.277-2.229,5.375c0,2.066,0.741,3.846,2.229,5.33s3.262,2.229,5.33,2.229
			c2.098,0,3.873-0.729,5.33-2.186c1.486-1.484,2.229-3.275,2.229-5.373C227.588,79.871,226.846,78.093,225.358,76.609z"/>
		<path fill="#010202" d="M246.508,90.939V80.148c0-3.816-1.72-5.725-5.156-5.725c-1.689,0-2.971,0.494-3.846,1.484
			c-0.902,0.99-1.354,2.346-1.354,4.063v10.969h-1.791V72.892h1.791v2.186c0.814-1.602,2.549-2.402,5.199-2.402
			c2.242,0,3.961,0.643,5.156,1.922c1.192,1.283,1.791,3.074,1.791,5.375v10.967H246.508L246.508,90.939z"/>
		<path fill="#010202" d="M262.934,89.804c-1.164,0.99-2.563,1.484-4.193,1.484c-2.797,0-4.895-1.268-6.291-3.801l1.527-0.918
			c0.496,0.902,1.094,1.604,1.793,2.098c0.727,0.553,1.717,0.83,2.971,0.83c2.738,0,4.107-1.164,4.107-3.496
			c0-1.02-0.48-1.906-1.443-2.664c-0.291-0.176-0.705-0.371-1.244-0.59s-1.201-0.473-1.987-0.766
			c-1.457-0.523-2.507-1.049-3.146-1.572c-0.932-0.758-1.396-1.85-1.396-3.277c0-1.223,0.465-2.271,1.396-3.145
			c0.902-0.902,2.082-1.355,3.539-1.355c2.01,0,3.715,0.699,5.113,2.1l-1.312,1.135c-0.992-0.988-2.258-1.484-3.803-1.484
			c-2.096,0-3.145,0.918-3.145,2.752c0,0.816,0.319,1.486,0.961,2.012c0.522,0.406,1.354,0.801,2.489,1.18
			c0.99,0.35,1.808,0.676,2.447,0.982c0.641,0.307,1.121,0.574,1.441,0.809c1.252,0.961,1.879,2.258,1.879,3.889
			C264.639,87.576,264.069,88.841,262.934,89.804z"/>
		<path fill="#010202" d="M275.387,60.398l-1.181-0.131c-1.631,0-2.444,0.961-2.444,2.883v9.744h4.28v1.791h-4.28v16.254h-1.793
			V74.685h-2.445v-1.791h2.445V62.626c0-2.768,1.397-4.152,4.194-4.152c0.642,0,1.05,0.029,1.224,0.09
			c0.35,0,0.744,0.102,1.18,0.305v1.791L275.387,60.398z"/>
		<path fill="#010202" d="M278.489,81.546c0,2.445,0.654,4.383,1.965,5.811c1.369,1.457,3.248,2.186,5.638,2.186
			c1.225,0,2.33-0.203,3.319-0.611c1.252-0.523,2.375-1.588,3.365-3.189l1.617,0.742c-1.137,2.156-2.885,3.611-5.244,4.371
			c-0.902,0.289-1.922,0.436-3.059,0.436c-2.709,0-4.938-0.889-6.687-2.664c-1.774-1.777-2.664-4.006-2.664-6.686
			c0-2.709,0.873-4.939,2.621-6.686c1.777-1.775,4.021-2.666,6.729-2.666c2.68,0,4.895,0.83,6.643,2.49
			c1.775,1.66,2.664,3.816,2.664,6.467H278.489L278.489,81.546z M290.811,75.822c-1.369-0.99-2.941-1.486-4.719-1.486
			c-3.729,0-6.177,1.836-7.341,5.506h14.638C293.098,78.181,292.237,76.841,290.811,75.822z"/>
		<path fill="#010202" d="M308.069,75.558c-0.467-0.35-0.963-0.625-1.486-0.828c-0.524-0.203-1.077-0.307-1.659-0.307
			c-0.496,0-0.961,0.152-1.398,0.459s-0.816,0.686-1.137,1.137s-0.574,0.953-0.765,1.506c-0.188,0.555-0.284,1.064-0.284,1.529
			v11.885h-1.791V72.894h1.791v2.445c0.379-0.668,0.875-1.281,1.485-1.834c0.611-0.553,1.281-0.83,2.011-0.83
			c0.901,0,1.645,0.104,2.229,0.307c0.582,0.203,1.238,0.566,1.967,1.092L308.069,75.558z"/>
		<path fill="#010202" d="M328.561,90.939l-9.918-15.6h-3.365v15.6h-1.748V59.744h7.211c1.164,0,2.271,0.168,3.32,0.502
			s1.951,0.83,2.709,1.484c0.756,0.656,1.361,1.465,1.813,2.426s0.679,2.068,0.679,3.32c0,1.369-0.211,2.549-0.636,3.539
			c-0.422,0.99-1.02,1.807-1.791,2.445c-0.771,0.643-1.682,1.115-2.729,1.422c-1.049,0.307-2.199,0.457-3.451,0.457l10.006,15.6
			H328.561L328.561,90.939z M326.899,64.833c-0.35-0.744-0.83-1.354-1.441-1.836c-0.612-0.479-1.325-0.844-2.143-1.092
			c-0.814-0.248-1.689-0.371-2.621-0.371h-5.418V73.55h5.898c1.864,0,3.37-0.523,4.522-1.572c1.15-1.051,1.726-2.564,1.726-4.545
			C327.424,66.443,327.249,65.576,326.899,64.833z"/>
		<path fill="#010202" d="M347.741,90.939v-3.104c-1.895,2.273-4.297,3.408-7.209,3.408c-2.623,0-4.822-0.887-6.598-2.664
			c-1.808-1.807-2.709-4.021-2.709-6.643s0.887-4.82,2.664-6.598c1.807-1.807,4.02-2.709,6.643-2.709
			c2.883,0,5.287,1.137,7.209,3.408v-3.146h1.791v18.045h-1.791V90.939z M345.862,76.609c-1.486-1.486-3.264-2.23-5.33-2.23
			c-2.098,0-3.875,0.73-5.332,2.186c-1.483,1.484-2.227,3.277-2.227,5.375c0,2.066,0.742,3.846,2.227,5.33
			c1.486,1.484,3.265,2.229,5.332,2.229c2.097,0,3.873-0.729,5.33-2.186c1.486-1.484,2.229-3.275,2.229-5.373
			C348.092,79.871,347.35,78.093,345.862,76.609z"/>
		<path fill="#010202" d="M357.571,74.685v16.254h-1.791V74.685h-2.447v-1.791h2.447v-7.908h1.791v7.908h4.195v1.791H357.571z"/>
		<path fill="#010202" d="M366.137,81.546c0,2.445,0.653,4.383,1.965,5.811c1.369,1.457,3.248,2.186,5.637,2.186
			c1.226,0,2.33-0.203,3.32-0.611c1.252-0.523,2.375-1.588,3.365-3.189l1.616,0.742c-1.137,2.156-2.885,3.611-5.243,4.371
			c-0.902,0.289-1.923,0.436-3.06,0.436c-2.709,0-4.938-0.889-6.686-2.664c-1.775-1.777-2.664-4.006-2.664-6.686
			c0-2.709,0.873-4.939,2.621-6.686c1.776-1.775,4.02-2.666,6.729-2.666c2.68,0,4.896,0.83,6.644,2.49
			c1.774,1.66,2.664,3.816,2.664,6.467H366.137L366.137,81.546z M378.456,75.822c-1.368-0.99-2.94-1.486-4.719-1.486
			c-3.729,0-6.176,1.836-7.34,5.506h14.637C380.743,78.181,379.885,76.841,378.456,75.822z"/>
	</g>
</g>
<g>
	<g>
		<path fill="#010202" d="M544.116,251.753c-1.447,1.447-3.219,2.17-5.318,2.17c-2.101,0-3.862-0.711-5.285-2.135
			c-1.447-1.447-2.17-3.221-2.17-5.32c0-2.076,0.723-3.838,2.17-5.283c1.423-1.473,3.185-2.205,5.285-2.205
			c2.076,0,3.837,0.723,5.283,2.17c1.447,1.445,2.17,3.219,2.17,5.318S545.54,250.33,544.116,251.753z M543.104,242.164
			c-1.168-1.191-2.604-1.785-4.307-1.785c-1.634,0-3.046,0.607-4.234,1.82c-1.213,1.213-1.82,2.637-1.82,4.27
			c0,1.656,0.596,3.08,1.785,4.271c1.19,1.188,2.613,1.785,4.271,1.785c1.681,0,3.103-0.584,4.271-1.75
			c1.189-1.191,1.785-2.625,1.785-4.307C544.854,244.765,544.27,243.33,543.104,242.164z"/>
		<path fill="#010202" d="M562.491,251.753c-1.447,1.447-3.221,2.17-5.319,2.17c-2.402,0-4.388-0.979-5.949-2.939v9.484h-1.437
			v-21.246h1.437v2.73c1.492-1.959,3.477-2.939,5.949-2.939c2.1,0,3.86,0.711,5.284,2.137c1.447,1.445,2.17,3.219,2.17,5.318
			S563.915,250.33,562.491,251.753z M561.441,242.199c-1.189-1.191-2.613-1.785-4.27-1.785c-1.681,0-3.104,0.582-4.271,1.75
			c-1.189,1.189-1.785,2.625-1.785,4.305c0,1.656,0.597,3.08,1.785,4.271c1.188,1.189,2.613,1.785,4.271,1.785
			c1.68,0,3.104-0.584,4.27-1.75c1.191-1.191,1.785-2.625,1.785-4.307C563.227,244.812,562.633,243.388,561.441,242.199z"/>
		<path fill="#010202" d="M584.262,253.677v-9.975c0-0.887-0.293-1.656-0.875-2.311c-0.584-0.652-1.424-0.979-2.521-0.979
			c-2.264,0-3.396,1.096-3.396,3.289v9.975h-1.435v-9.975c0-0.98-0.328-1.762-0.979-2.344c-0.678-0.631-1.482-0.945-2.416-0.945
			c-0.957,0-1.763,0.303-2.414,0.91c-0.654,0.582-0.98,1.377-0.98,2.379v9.975h-1.436v-14.455h1.436v1.438
			c0.701-1.098,1.832-1.646,3.396-1.646c1.867,0,3.244,0.76,4.131,2.275c0.84-1.518,2.205-2.275,4.096-2.275
			c1.445,0,2.611,0.408,3.5,1.227c0.888,0.84,1.33,1.994,1.33,3.465v9.975h-1.437V253.677z"/>
		<path fill="#010202" d="M590.946,243.562c-0.258,0-0.524-0.104-0.807-0.314c-0.209-0.209-0.326-0.49-0.351-0.84
			c0-0.629,0.386-1.016,1.156-1.154c0.582,0,0.967,0.385,1.154,1.154C592.102,243.177,591.717,243.562,590.946,243.562z
			 M590.946,253.888c-0.258,0-0.524-0.104-0.807-0.314c-0.209-0.209-0.326-0.49-0.351-0.84c0-0.629,0.386-1.016,1.156-1.154
			c0.582,0,0.967,0.385,1.154,1.154C592.102,253.503,591.717,253.888,590.946,253.888z"/>
		<path fill="#010202" d="M608.165,253.677v-2.482c-1.518,1.818-3.44,2.729-5.774,2.729c-2.101,0-3.861-0.711-5.285-2.135
			c-1.445-1.447-2.17-3.221-2.17-5.32s0.713-3.859,2.137-5.283c1.445-1.447,3.219-2.172,5.318-2.172c2.311,0,4.235,0.91,5.774,2.73
			v-2.521h1.437v14.455H608.165L608.165,253.677z M606.661,242.199c-1.19-1.191-2.612-1.785-4.271-1.785
			c-1.681,0-3.104,0.582-4.271,1.75c-1.188,1.189-1.785,2.625-1.785,4.305c0,1.656,0.597,3.08,1.785,4.271
			c1.189,1.189,2.613,1.785,4.271,1.785c1.682,0,3.104-0.584,4.271-1.75c1.189-1.191,1.785-2.625,1.785-4.307
			C608.446,244.812,607.852,243.388,606.661,242.199z"/>
		<path fill="#010202" d="M620.694,241.359c-0.373-0.281-0.77-0.502-1.188-0.666c-0.42-0.162-0.863-0.244-1.33-0.244
			c-0.396,0-0.771,0.121-1.119,0.367c-0.353,0.244-0.654,0.549-0.91,0.908c-0.258,0.363-0.461,0.766-0.613,1.209
			c-0.151,0.443-0.227,0.852-0.227,1.225v9.52h-1.437v-14.455h1.437v1.961c0.303-0.535,0.699-1.025,1.188-1.471
			c0.49-0.443,1.027-0.664,1.609-0.664c0.723,0,1.317,0.082,1.785,0.244c0.467,0.164,0.991,0.455,1.576,0.875L620.694,241.359z"/>
		<path fill="#010202" d="M635.641,258.507c-1.308,1.309-3.021,1.961-5.146,1.961c-3.942,0-6.299-1.553-7.069-4.654h1.436
			c0.256,1.145,0.992,1.994,2.205,2.557c0.957,0.441,2.1,0.664,3.43,0.664c1.797,0,3.187-0.502,4.166-1.506
			c1.002-1.002,1.504-2.402,1.504-4.199v-2.135c-1.518,1.818-3.44,2.729-5.774,2.729c-2.101,0-3.861-0.711-5.285-2.135
			c-1.445-1.447-2.17-3.221-2.17-5.32s0.713-3.859,2.137-5.283c1.445-1.447,3.219-2.17,5.318-2.17c2.311,0,4.235,0.908,5.774,2.729
			v-2.521h1.437v14.141C637.602,255.486,636.946,257.201,635.641,258.507z M634.661,242.199c-1.19-1.191-2.612-1.785-4.271-1.785
			c-1.681,0-3.104,0.582-4.271,1.75c-1.188,1.189-1.785,2.625-1.785,4.305c0,1.656,0.597,3.08,1.785,4.271
			c1.189,1.189,2.613,1.785,4.271,1.785c1.682,0,3.104-0.584,4.271-1.75c1.189-1.191,1.785-2.625,1.785-4.307
			C636.446,244.812,635.852,243.388,634.661,242.199z"/>
		<path fill="#010202" d="M651.075,252.417c-0.957,1.027-2.299,1.541-4.024,1.541c-1.703,0-3.021-0.502-3.955-1.506
			c-0.935-1.002-1.4-2.402-1.4-4.199v-9.031h1.437v9.031c0,1.377,0.303,2.439,0.909,3.186c0.632,0.748,1.634,1.119,3.011,1.119
			c2.684,0,4.024-1.436,4.024-4.305v-9.031h1.4v9.031C652.477,250.027,652.01,251.416,651.075,252.417z"/>
		<path fill="#010202" d="M673.336,253.677v-9.975c0-0.887-0.293-1.656-0.875-2.311c-0.584-0.652-1.425-0.979-2.521-0.979
			c-2.264,0-3.396,1.096-3.396,3.289v9.975h-1.435v-9.975c0-0.98-0.328-1.762-0.979-2.344c-0.679-0.631-1.482-0.945-2.416-0.945
			c-0.957,0-1.763,0.303-2.414,0.91c-0.654,0.582-0.98,1.377-0.98,2.379v9.975h-1.436v-14.455h1.436v1.438
			c0.701-1.098,1.832-1.646,3.396-1.646c1.866,0,3.244,0.76,4.131,2.275c0.84-1.518,2.205-2.275,4.096-2.275
			c1.445,0,2.611,0.408,3.5,1.227c0.887,0.84,1.33,1.994,1.33,3.465v9.975h-1.437V253.677z"/>
		<path fill="#010202" d="M679.67,246.154c0,1.959,0.524,3.512,1.575,4.654c1.097,1.166,2.603,1.75,4.515,1.75
			c0.979,0,1.867-0.164,2.66-0.49c1.004-0.42,1.901-1.271,2.694-2.555l1.295,0.596c-0.909,1.727-2.311,2.893-4.198,3.5
			c-0.726,0.232-1.541,0.35-2.451,0.35c-2.17,0-3.955-0.713-5.354-2.135c-1.424-1.424-2.135-3.209-2.135-5.355
			c0-2.17,0.699-3.955,2.1-5.354c1.423-1.424,3.22-2.135,5.39-2.135c2.146,0,3.92,0.662,5.319,1.992
			c1.425,1.33,2.136,3.059,2.136,5.182H679.67L679.67,246.154z M689.54,241.568c-1.098-0.793-2.356-1.189-3.78-1.189
			c-2.986,0-4.945,1.469-5.879,4.41h11.725C691.37,243.458,690.684,242.384,689.54,241.568z"/>
		<path fill="#010202" d="M706.27,253.677v-8.645c0-3.057-1.377-4.584-4.129-4.584c-1.354,0-2.381,0.396-3.08,1.189
			c-0.725,0.793-1.086,1.877-1.086,3.254v8.785h-1.437v-14.455h1.437v1.75c0.654-1.281,2.041-1.924,4.166-1.924
			c1.795,0,3.172,0.512,4.129,1.539s1.436,2.463,1.436,4.305v8.785H706.27L706.27,253.677z"/>
		<path fill="#010202" d="M714.493,240.658v13.02h-1.436v-13.02h-1.959v-1.436h1.959v-6.334h1.436v6.334h3.359v1.436H714.493z"/>
		<path fill="#010202" d="M732.344,239.433c-1.308,1.166-2.916,1.75-4.83,1.75h-4.689v12.494h-1.399v-24.988h6.09
			c1.914,0,3.522,0.561,4.83,1.68c1.307,1.121,1.961,2.625,1.961,4.516C734.305,236.796,733.649,238.312,732.344,239.433z
			 M731.26,231.312c-0.957-0.793-2.218-1.189-3.781-1.189h-4.654v9.625h4.654c1.541,0,2.824-0.42,3.852-1.26
			c1.025-0.887,1.539-2.088,1.539-3.605C732.868,233.367,732.331,232.177,731.26,231.312z"/>
		<path fill="#010202" d="M745.504,253.677v-2.482c-1.519,1.818-3.441,2.729-5.775,2.729c-2.1,0-3.861-0.711-5.285-2.135
			c-1.445-1.447-2.17-3.221-2.17-5.32s0.713-3.859,2.137-5.283c1.445-1.447,3.219-2.172,5.318-2.172c2.311,0,4.235,0.91,5.774,2.73
			v-2.521h1.437v14.455H745.504L745.504,253.677z M743.999,242.199c-1.19-1.191-2.612-1.785-4.271-1.785
			c-1.68,0-3.104,0.582-4.271,1.75c-1.188,1.189-1.784,2.625-1.784,4.305c0,1.656,0.596,3.08,1.784,4.271
			c1.189,1.189,2.613,1.785,4.271,1.785c1.682,0,3.104-0.584,4.271-1.75c1.189-1.191,1.785-2.625,1.785-4.307
			C745.784,244.812,745.189,243.388,743.999,242.199z"/>
		<path fill="#010202" d="M753.379,240.658v13.02h-1.437v-13.02h-1.959v-1.436h1.959v-6.334h1.437v6.334h3.358v1.436H753.379z"/>
		<path fill="#010202" d="M770.247,253.712v-8.715c0-3.057-1.422-4.584-4.27-4.584c-1.166,0-2.17,0.35-3.01,1.049
			c-0.863,0.701-1.296,1.635-1.296,2.801v9.414h-1.436v-25.898h1.436v13.371c0.863-1.426,2.3-2.137,4.306-2.137
			c3.803,0,5.705,1.949,5.705,5.846v8.854H770.247L770.247,253.712z"/>
		<path fill="#010202" d="M783.023,252.767c-0.934,0.795-2.053,1.189-3.359,1.189c-2.239,0-3.92-1.014-5.041-3.045l1.228-0.734
			c0.396,0.725,0.875,1.283,1.434,1.682c0.584,0.441,1.377,0.664,2.381,0.664c2.193,0,3.289-0.934,3.289-2.801
			c0-0.816-0.385-1.527-1.153-2.135c-0.234-0.141-0.566-0.297-0.998-0.473c-0.433-0.174-0.962-0.379-1.593-0.611
			c-1.168-0.422-2.008-0.842-2.52-1.262c-0.748-0.605-1.121-1.48-1.121-2.625c0-0.979,0.373-1.818,1.121-2.521
			c0.723-0.723,1.668-1.084,2.834-1.084c1.61,0,2.975,0.561,4.096,1.682l-1.051,0.908c-0.793-0.793-1.81-1.189-3.045-1.189
			c-1.681,0-2.521,0.736-2.521,2.205c0,0.654,0.256,1.189,0.771,1.609c0.42,0.326,1.086,0.643,1.995,0.945
			c0.793,0.279,1.445,0.543,1.959,0.787c0.515,0.244,0.898,0.461,1.156,0.648c1.002,0.77,1.504,1.807,1.504,3.113
			C784.389,250.984,783.934,251.998,783.023,252.767z"/>
	</g>
</g>
<g>
	<g>
		<path fill="none" stroke="#010202" stroke-miterlimit="10" d="M521.254,141.027c0-69.699-4.421-119.421,60.13-123.501"/>
		<g>
			<polygon fill="#010202" points="577.399,23.321 579.54,17.678 576.966,12.219 590.341,17.254 			"/>
		</g>
	</g>
</g>
<g>
	<g>
		<path fill="none" stroke="#010202" stroke-miterlimit="10" d="M369.163,170.414c-69.696,0-119.422,4.42-123.501-60.131"/>
		<g>
			<polygon fill="#010202" points="251.457,114.265 245.814,112.125 240.357,114.701 245.393,101.326 			"/>
		</g>
	</g>
</g>
<g>
	<rect x="598.684" y="0" fill="none" width="245.411" height="36.508"/>
	<path fill="#010202" d="M600.41,20.286h0.734l0.154,0.154c0.021,0.957,0.078,1.777,0.17,2.461c0.354,0.535,0.963,0.973,1.829,1.307
		c0.864,0.338,1.72,0.506,2.563,0.506c1.207,0,2.173-0.326,2.896-0.975c0.724-0.65,1.086-1.424,1.086-2.324
		c0-0.49-0.132-0.914-0.395-1.273c-0.263-0.357-0.657-0.654-1.188-0.889c-0.53-0.232-1.479-0.51-2.847-0.828
		c-1.174-0.273-1.993-0.486-2.461-0.643c-0.468-0.152-0.917-0.412-1.351-0.777c-0.433-0.363-0.763-0.811-0.99-1.342
		c-0.229-0.529-0.342-1.113-0.342-1.75c0-1.527,0.606-2.75,1.819-3.666c1.214-0.918,2.726-1.377,4.537-1.377
		c0.764,0,1.596,0.105,2.494,0.316c0.9,0.211,1.584,0.414,2.052,0.607l0.153,0.238c-0.092,0.457-0.147,1.65-0.171,3.59l-0.152,0.152
		h-0.685l-0.154-0.152c-0.046-0.695-0.107-1.182-0.188-1.461s-0.285-0.582-0.615-0.906c-0.331-0.324-0.798-0.598-1.401-0.82
		c-0.604-0.223-1.241-0.334-1.914-0.334c-0.694,0-1.278,0.104-1.751,0.309c-0.475,0.205-0.854,0.516-1.146,0.932
		c-0.29,0.416-0.436,0.92-0.436,1.512c0,0.436,0.088,0.82,0.265,1.162s0.447,0.619,0.813,0.828c0.364,0.213,0.745,0.363,1.146,0.453
		l1.862,0.48c1.596,0.389,2.737,0.725,3.427,1.008c0.689,0.285,1.223,0.717,1.6,1.291c0.375,0.576,0.563,1.271,0.563,2.094
		c0,1.572-0.649,2.922-1.948,4.051c-1.299,1.127-2.968,1.691-5.008,1.691c-0.717,0-1.609-0.08-2.674-0.24
		c-1.065-0.158-1.976-0.336-2.728-0.529l-0.085-0.223l0.171-1.145c0.058-0.354,0.092-0.711,0.104-1.068
		c0.011-0.357,0.021-1.113,0.034-2.264L600.41,20.286z"/>
	<path fill="#010202" d="M619.432,9.024l0.324,0.223c-0.125,1.492-0.188,3.389-0.188,5.691v3.98c0,1.459,0.111,2.473,0.333,3.043
		c0.223,0.568,0.607,1.006,1.154,1.307c0.547,0.303,1.194,0.453,1.946,0.453c0.832,0,1.591-0.162,2.273-0.486
		c0.684-0.326,1.256-0.783,1.718-1.377c0.461-0.592,0.727-0.99,0.794-1.195c0.068-0.205,0.114-0.781,0.137-1.727l0.053-1.914v-1.846
		c0-0.455-0.023-1.076-0.068-1.863c-0.046-0.785-0.083-1.27-0.111-1.451c-0.027-0.184-0.116-0.316-0.265-0.402
		c-0.147-0.086-0.444-0.129-0.889-0.129l-1.437-0.016l-0.154-0.139v-0.734l0.138-0.137c2.177-0.262,4.011-0.688,5.504-1.281
		l0.324,0.223c-0.126,1.492-0.188,3.389-0.188,5.691v3.008c0,0.17,0.027,1.566,0.085,4.186c0.022,0.969,0.082,1.561,0.181,1.771
		c0.097,0.211,0.229,0.357,0.4,0.441c0.171,0.086,0.678,0.129,1.521,0.129h0.479l0.153,0.139v0.684l-0.138,0.154
		c-1.605-0.092-2.683-0.137-3.229-0.137c-0.695,0-1.499,0.037-2.41,0.117l-0.154-0.137c0.068-1.162,0.12-2.146,0.154-2.957
		c-0.718,0.561-1.538,1.305-2.461,2.24c-0.354,0.354-0.86,0.648-1.521,0.889c-0.659,0.238-1.411,0.357-2.256,0.357
		c-1.274,0-2.27-0.201-2.98-0.605c-0.713-0.402-1.217-0.963-1.513-1.676c-0.298-0.711-0.444-1.938-0.444-3.682l0.017-1.352v-3.332
		c0-0.455-0.021-1.076-0.067-1.863c-0.045-0.785-0.082-1.27-0.11-1.451c-0.029-0.184-0.117-0.316-0.265-0.402
		c-0.148-0.086-0.445-0.129-0.89-0.129l-1.436-0.016l-0.154-0.139v-0.734l0.137-0.137C616.104,10.043,617.938,9.618,619.432,9.024z"
		/>
	<path fill="#010202" d="M640.913,9.024l0.324,0.223c-0.067,0.752-0.113,1.652-0.137,2.699l1.624-1.486
		c0.455-0.422,0.758-0.689,0.905-0.813c0.147-0.119,0.495-0.258,1.043-0.418c0.547-0.158,1.122-0.238,1.727-0.238
		c1.14,0,2.136,0.281,2.99,0.846c0.854,0.564,1.485,1.342,1.896,2.332c1.539-1.457,2.437-2.268,2.692-2.426
		c0.256-0.16,0.663-0.322,1.222-0.488c0.559-0.164,1.116-0.248,1.676-0.248c0.898,0,1.726,0.195,2.478,0.582
		s1.351,0.896,1.795,1.521c0.444,0.627,0.703,1.305,0.777,2.035c0.074,0.729,0.11,1.73,0.11,3.008v1.793
		c0,0.193,0.034,1.611,0.104,4.256c0.021,1.082,0.143,1.727,0.358,1.932c0.217,0.205,0.917,0.309,2.103,0.309l0.137,0.137v0.734
		L664.6,25.45c-1.447-0.092-2.427-0.137-2.938-0.137c-0.285,0-1.11,0.045-2.479,0.137l-0.223-0.188
		c0.146-1.48,0.223-3.412,0.223-5.795v-2.051c0-1.811-0.086-3.078-0.257-3.803c-0.171-0.723-0.57-1.314-1.196-1.777
		c-0.627-0.461-1.373-0.689-2.237-0.689c-0.615,0-1.191,0.121-1.728,0.365c-0.536,0.246-1.017,0.609-1.444,1.096
		c-0.427,0.482-0.664,0.934-0.709,1.35c-0.046,0.416-0.067,1.184-0.067,2.299v2.137c0,0.502,0.021,1.441,0.067,2.82
		c0.045,1.379,0.095,2.182,0.146,2.408c0.051,0.229,0.131,0.391,0.239,0.488c0.106,0.096,0.232,0.16,0.376,0.188
		c0.142,0.029,0.754,0.076,1.837,0.146l0.152,0.137v0.717l-0.137,0.154c-1.424-0.092-2.797-0.137-4.118-0.137
		c-1.22,0-2.587,0.045-4.102,0.137l-0.153-0.154v-0.717l0.153-0.137c1.104-0.068,1.729-0.121,1.871-0.154
		c0.143-0.035,0.268-0.105,0.376-0.215c0.107-0.107,0.183-0.273,0.223-0.494c0.039-0.223,0.085-0.957,0.137-2.205
		s0.076-2.189,0.076-2.828v-1.949c0-1.285-0.088-2.275-0.265-2.973c-0.178-0.695-0.557-1.281-1.137-1.76
		c-0.582-0.48-1.311-0.719-2.188-0.719c-0.684,0-1.308,0.135-1.872,0.402c-0.563,0.268-1.024,0.598-1.384,0.99
		s-0.581,0.76-0.667,1.102c-0.085,0.344-0.128,1.084-0.128,2.223v2.529c0,0.502,0.021,1.441,0.067,2.82s0.095,2.182,0.146,2.408
		c0.051,0.229,0.131,0.391,0.239,0.488c0.106,0.096,0.232,0.16,0.376,0.188c0.142,0.029,0.754,0.076,1.837,0.146l0.154,0.137v0.717
		l-0.138,0.154c-1.425-0.092-2.798-0.137-4.119-0.137c-1.311,0-2.678,0.045-4.102,0.137l-0.154-0.154v-0.717l0.154-0.137
		c1.104-0.068,1.729-0.121,1.871-0.154c0.143-0.035,0.268-0.105,0.376-0.215c0.107-0.107,0.183-0.273,0.223-0.494
		c0.039-0.223,0.085-0.957,0.137-2.205s0.077-2.189,0.077-2.828V15.18c0-0.455-0.022-1.074-0.067-1.861
		c-0.047-0.785-0.083-1.271-0.111-1.453c-0.029-0.184-0.117-0.314-0.266-0.4c-0.147-0.086-0.443-0.129-0.89-0.129l-1.436-0.018
		l-0.153-0.137v-0.734l0.137-0.137C637.586,10.043,639.42,9.618,640.913,9.024z"/>
</g>
<g>
	<g>
		<line fill="none" stroke="#010202" stroke-miterlimit="10" x1="521.254" y1="199.927" x2="521.254" y2="292.39"/>
		<g>
			<polygon fill="#010202" points="515.698,288.177 521.254,290.539 526.809,288.177 521.254,301.345 			"/>
		</g>
	</g>
</g>
<g>
	<g>
		<g>
			<path fill="#010202" d="M237.791,322.093c-0.221,0-0.449-0.09-0.689-0.27c-0.18-0.182-0.28-0.42-0.3-0.721
				c0-0.541,0.33-0.871,0.989-0.99c0.499,0,0.829,0.33,0.989,0.99C238.78,321.763,238.451,322.093,237.791,322.093z
				 M237.161,336.702v-12.391h1.229v12.391H237.161z"/>
			<path fill="#010202" d="M248.32,336.942c-1.841,0-3.37-0.609-4.59-1.83c-1.221-1.219-1.83-2.75-1.83-4.59
				c0-1.842,0.609-3.369,1.83-4.592c1.22-1.219,2.749-1.828,4.59-1.828c1.58,0,2.84,0.357,3.78,1.078v1.473l-0.78-0.512l-0.84-0.449
				c-0.761-0.262-1.48-0.391-2.16-0.391c-1.54,0-2.79,0.479-3.75,1.439c-0.979,0.979-1.47,2.24-1.47,3.779
				c0,1.521,0.489,2.771,1.47,3.75c0.979,0.98,2.229,1.471,3.75,1.471c1.439,0,2.7-0.48,3.78-1.439v1.529
				C250.98,336.573,249.721,336.942,248.32,336.942z"/>
			<path fill="#010202" d="M254.08,330.252c0,1.68,0.45,3.01,1.352,3.99c0.938,1,2.229,1.5,3.87,1.5c0.84,0,1.6-0.141,2.278-0.42
				c0.86-0.361,1.631-1.09,2.312-2.191l1.108,0.512c-0.778,1.479-1.979,2.479-3.6,3c-0.62,0.199-1.32,0.299-2.1,0.299
				c-1.86,0-3.392-0.609-4.592-1.83c-1.22-1.219-1.829-2.75-1.829-4.59c0-1.859,0.601-3.391,1.801-4.59
				c1.22-1.221,2.76-1.83,4.62-1.83c1.84,0,3.358,0.57,4.56,1.711c1.22,1.139,1.83,2.619,1.83,4.439H254.08L254.08,330.252z
				 M262.54,326.323c-0.939-0.68-2.02-1.021-3.238-1.021c-2.562,0-4.241,1.26-5.04,3.779h10.05
				C264.11,327.942,263.521,327.022,262.54,326.323z"/>
			<path fill="#010202" d="M269.079,328.032c-0.22,0-0.448-0.09-0.688-0.271c-0.181-0.18-0.28-0.42-0.3-0.721
				c0-0.539,0.329-0.869,0.988-0.988c0.5,0,0.83,0.33,0.99,0.988C270.069,327.702,269.739,328.032,269.079,328.032z
				 M269.079,336.881c-0.22,0-0.448-0.09-0.688-0.27c-0.181-0.18-0.28-0.42-0.3-0.721c0-0.539,0.329-0.869,0.988-0.988
				c0.5,0,0.83,0.328,0.99,0.988C270.069,336.551,269.739,336.881,269.079,336.881z"/>
			<path fill="#010202" d="M279.521,335.922c-0.801,0.68-1.761,1.02-2.88,1.02c-1.921,0-3.36-0.869-4.32-2.609l1.05-0.631
				c0.34,0.621,0.75,1.102,1.23,1.441c0.499,0.379,1.18,0.568,2.04,0.568c1.879,0,2.818-0.799,2.818-2.398
				c0-0.701-0.33-1.311-0.989-1.83c-0.199-0.121-0.484-0.256-0.854-0.406c-0.37-0.148-0.825-0.324-1.365-0.523
				c-1-0.359-1.72-0.721-2.159-1.08c-0.641-0.521-0.961-1.271-0.961-2.25c0-0.84,0.32-1.561,0.961-2.16
				c0.619-0.619,1.43-0.93,2.431-0.93c1.38,0,2.55,0.479,3.51,1.439l-0.899,0.779c-0.681-0.68-1.551-1.02-2.609-1.02
				c-1.44,0-2.16,0.629-2.16,1.889c0,0.561,0.22,1.021,0.66,1.381c0.359,0.279,0.93,0.551,1.71,0.811
				c0.68,0.24,1.239,0.465,1.68,0.674c0.439,0.211,0.771,0.396,0.99,0.557c0.859,0.66,1.29,1.551,1.29,2.67
				C280.691,334.391,280.301,335.262,279.521,335.922z"/>
			<path fill="#010202" d="M291.25,335.622c-0.819,0.881-1.971,1.32-3.449,1.32c-1.46,0-2.591-0.432-3.391-1.289
				c-0.801-0.861-1.2-2.063-1.2-3.602v-7.74h1.229v7.74c0,1.182,0.26,2.09,0.78,2.729c0.54,0.641,1.398,0.961,2.58,0.961
				c2.3,0,3.449-1.23,3.449-3.689v-7.74h1.2v7.74C292.45,333.573,292.051,334.762,291.25,335.622z"/>
			<path fill="#010202" d="M302.079,326.141c-0.319-0.238-0.659-0.43-1.021-0.568c-0.359-0.141-0.739-0.211-1.141-0.211
				c-0.34,0-0.659,0.104-0.96,0.314c-0.3,0.209-0.561,0.471-0.779,0.779c-0.22,0.311-0.396,0.654-0.524,1.035
				c-0.131,0.379-0.195,0.73-0.195,1.049v8.16h-1.229v-12.389h1.229v1.68c0.261-0.461,0.601-0.881,1.021-1.26
				c0.42-0.381,0.879-0.57,1.38-0.57c0.619,0,1.129,0.07,1.529,0.209c0.399,0.141,0.851,0.391,1.351,0.75L302.079,326.141z"/>
			<path fill="#010202" d="M310.239,315.734l-0.811-0.092c-1.12,0-1.681,0.66-1.681,1.98v6.688h2.939v1.229h-2.939v11.16h-1.229
				v-11.16h-1.68v-1.229h1.68v-7.05c0-1.898,0.96-2.85,2.88-2.85c0.44,0,0.721,0.02,0.841,0.061c0.239,0,0.511,0.07,0.811,0.209
				v1.23L310.239,315.734z"/>
			<path fill="#010202" d="M322.449,336.702v-2.129c-1.3,1.559-2.95,2.34-4.949,2.34c-1.801,0-3.311-0.611-4.529-1.83
				c-1.24-1.24-1.86-2.76-1.86-4.561s0.61-3.311,1.83-4.529c1.24-1.24,2.76-1.861,4.561-1.861c1.979,0,3.631,0.781,4.949,2.342
				v-2.16h1.23v12.389H322.449L322.449,336.702z M321.159,326.862c-1.02-1.021-2.239-1.529-3.659-1.529
				c-1.439,0-2.659,0.5-3.659,1.5c-1.021,1.02-1.53,2.25-1.53,3.689c0,1.42,0.51,2.641,1.53,3.66c1.02,1.02,2.238,1.527,3.659,1.527
				c1.439,0,2.659-0.498,3.659-1.5c1.021-1.02,1.53-2.25,1.53-3.688C322.69,329.102,322.181,327.881,321.159,326.862z"/>
			<path fill="#010202" d="M333.19,336.942c-1.841,0-3.37-0.609-4.59-1.83c-1.222-1.219-1.83-2.75-1.83-4.59
				c0-1.842,0.608-3.369,1.83-4.592c1.22-1.219,2.749-1.828,4.59-1.828c1.58,0,2.84,0.357,3.78,1.078v1.473l-0.78-0.512l-0.84-0.449
				c-0.761-0.262-1.48-0.391-2.16-0.391c-1.54,0-2.79,0.479-3.75,1.439c-0.979,0.979-1.47,2.24-1.47,3.779
				c0,1.521,0.488,2.771,1.47,3.75c0.979,0.98,2.229,1.471,3.75,1.471c1.439,0,2.7-0.48,3.78-1.439v1.529
				C335.85,336.573,334.59,336.942,333.19,336.942z"/>
			<path fill="#010202" d="M338.949,330.252c0,1.68,0.45,3.01,1.352,3.99c0.938,1,2.229,1.5,3.869,1.5
				c0.841,0,1.601-0.141,2.279-0.42c0.86-0.361,1.63-1.09,2.312-2.191l1.108,0.512c-0.778,1.479-1.979,2.479-3.6,3
				c-0.62,0.199-1.32,0.299-2.1,0.299c-1.86,0-3.392-0.609-4.592-1.83c-1.22-1.219-1.83-2.75-1.83-4.59
				c0-1.859,0.602-3.391,1.802-4.59c1.22-1.221,2.76-1.83,4.62-1.83c1.84,0,3.358,0.57,4.56,1.711c1.22,1.139,1.83,2.619,1.83,4.439
				H338.949L338.949,330.252z M347.409,326.323c-0.939-0.68-2.02-1.021-3.239-1.021c-2.561,0-4.24,1.26-5.039,3.779h10.05
				C348.98,327.942,348.391,327.022,347.409,326.323z"/>
			<path fill="#010202" d="M353.738,336.702v-21.419h1.2v21.419H353.738z"/>
			<path fill="#010202" d="M365.92,336.702v-7.41c0-2.619-1.182-3.93-3.54-3.93c-1.16,0-2.04,0.34-2.642,1.02
				c-0.62,0.682-0.93,1.611-0.93,2.791v7.529h-1.229v-12.391h1.229v1.5c0.56-1.1,1.75-1.648,3.57-1.648
				c1.539,0,2.72,0.439,3.539,1.318c0.819,0.881,1.229,2.109,1.229,3.689v7.529h-1.228V336.702z"/>
			<path fill="#010202" d="M372.969,325.542v11.16h-1.229v-11.16h-1.681v-1.229h1.681v-5.431h1.229v5.431h2.88v1.229H372.969z"/>
			<path fill="#010202" d="M378.849,330.252c0,1.68,0.45,3.01,1.351,3.99c0.939,1,2.229,1.5,3.87,1.5c0.84,0,1.6-0.141,2.279-0.42
				c0.859-0.361,1.63-1.09,2.311-2.191l1.109,0.512c-0.779,1.479-1.979,2.479-3.601,3c-0.619,0.199-1.319,0.299-2.1,0.299
				c-1.86,0-3.391-0.609-4.591-1.83c-1.22-1.219-1.83-2.75-1.83-4.59c0-1.859,0.601-3.391,1.801-4.59
				c1.22-1.221,2.76-1.83,4.62-1.83c1.84,0,3.359,0.57,4.561,1.711c1.22,1.139,1.829,2.619,1.829,4.439H378.849L378.849,330.252z
				 M387.309,326.323c-0.94-0.68-2.021-1.021-3.239-1.021c-2.561,0-4.241,1.26-5.04,3.779h10.05
				C388.879,327.942,388.288,327.022,387.309,326.323z"/>
			<path fill="#010202" d="M399.158,326.141c-0.319-0.238-0.66-0.43-1.021-0.568c-0.359-0.141-0.739-0.211-1.141-0.211
				c-0.34,0-0.659,0.104-0.96,0.314c-0.3,0.209-0.561,0.471-0.779,0.779c-0.22,0.311-0.396,0.654-0.524,1.035
				c-0.131,0.379-0.195,0.73-0.195,1.049v8.16h-1.229v-12.389h1.229v1.68c0.261-0.461,0.601-0.881,1.021-1.26
				c0.42-0.381,0.879-0.57,1.38-0.57c0.619,0,1.129,0.07,1.529,0.209c0.399,0.141,0.851,0.391,1.351,0.75L399.158,326.141z"/>
			<path fill="#010202" d="M403.448,322.093c-0.221,0-0.45-0.09-0.689-0.27c-0.181-0.182-0.28-0.42-0.301-0.721
				c0-0.541,0.33-0.871,0.99-0.99c0.499,0,0.829,0.33,0.989,0.99C404.438,321.763,404.108,322.093,403.448,322.093z
				 M402.818,336.702v-12.391h1.229v12.391H402.818z"/>
			<path fill="#010202" d="M418.148,335.051c-1.24,1.24-2.76,1.861-4.56,1.861c-1.802,0-3.312-0.611-4.53-1.83
				c-1.24-1.24-1.86-2.76-1.86-4.561c0-1.779,0.62-3.289,1.86-4.529c1.22-1.262,2.729-1.891,4.53-1.891
				c1.778,0,3.288,0.619,4.528,1.857c1.24,1.242,1.86,2.762,1.86,4.563C419.979,332.323,419.367,333.833,418.148,335.051z
				 M417.277,326.833c-1-1.021-2.229-1.531-3.689-1.531c-1.399,0-2.609,0.521-3.631,1.561c-1.04,1.041-1.56,2.262-1.56,3.66
				c0,1.42,0.51,2.641,1.53,3.66c1.02,1.02,2.238,1.529,3.66,1.529c1.438,0,2.658-0.5,3.658-1.5c1.021-1.02,1.53-2.25,1.53-3.689
				C418.777,329.063,418.277,327.833,417.277,326.833z"/>
			<path fill="#010202" d="M428.917,326.141c-0.319-0.238-0.659-0.43-1.021-0.568c-0.359-0.141-0.739-0.211-1.14-0.211
				c-0.341,0-0.66,0.104-0.96,0.314c-0.301,0.209-0.562,0.471-0.78,0.779c-0.22,0.311-0.396,0.654-0.524,1.035
				c-0.131,0.379-0.195,0.73-0.195,1.049v8.16h-1.229v-12.389h1.229v1.68c0.261-0.461,0.601-0.881,1.021-1.26
				c0.42-0.381,0.879-0.57,1.38-0.57c0.619,0,1.129,0.07,1.529,0.209c0.399,0.141,0.851,0.391,1.351,0.75L428.917,326.141z"/>
		</g>
	</g>
	<g>
		<rect x="149.42" y="363.263" fill="none" width="78.979" height="36.508"/>
		<path fill="#010202" d="M167.264,382.574c-0.935-0.717-1.4-1.572-1.4-2.564c0-0.672,0.164-1.307,0.496-1.904
			c0.33-0.6,1.07-1.541,2.221-2.828c0.912-1.016,1.584-1.893,2.019-2.633c0.432-0.74,0.647-1.477,0.647-2.203
			c0-1.129-0.416-2.066-1.248-2.813c-0.832-0.748-1.846-1.121-3.041-1.121c-0.674,0-1.401,0.154-2.188,0.463
			c-0.32,0.309-0.605,0.734-0.855,1.281l-0.647,1.299l-0.205,0.139l-0.752-0.086l-0.104-0.24l1.316-3.965
			c1.334-0.865,2.785-1.299,4.356-1.299c1.207,0,2.316,0.221,3.324,0.658s1.801,1.09,2.375,1.955
			c0.576,0.867,0.863,1.842,0.863,2.924c0,0.719-0.117,1.391-0.351,2.018s-0.575,1.238-1.024,1.836
			c-0.451,0.6-1.314,1.469-2.59,2.605c-0.81,0.719-1.427,1.307-1.854,1.762c-0.428,0.457-0.75,0.896-0.965,1.324
			c-0.217,0.428-0.326,0.816-0.326,1.172c0,0.592,0.229,1.139,0.685,1.641l-0.033,0.238l-0.445,0.342H167.264L167.264,382.574z
			 M167.59,384.796c0.567,0,1.053,0.199,1.45,0.598c0.398,0.398,0.601,0.883,0.601,1.453c0,0.559-0.201,1.037-0.601,1.436
			c-0.398,0.4-0.883,0.598-1.45,0.598c-0.56,0-1.041-0.197-1.445-0.598c-0.404-0.398-0.605-0.877-0.605-1.436
			c0-0.582,0.205-1.068,0.615-1.463C166.564,384.992,167.042,384.796,167.59,384.796z"/>
		<path fill="#010202" d="M186.045,387.701l0.137,0.137v0.719l-0.137,0.152c-0.354,0-1.021-0.021-2-0.066
			c-0.89-0.047-1.806-0.068-2.75-0.068c-1.23,0-2.604,0.045-4.119,0.137l-0.138-0.152v-0.721l0.138-0.137
			c1.104-0.068,1.731-0.119,1.879-0.152s0.272-0.104,0.377-0.215c0.102-0.105,0.174-0.271,0.213-0.494
			c0.041-0.223,0.086-0.957,0.137-2.205c0.053-1.248,0.078-2.189,0.078-2.828v-6.598l-2.205,0.119l-0.154-0.137v-0.426l0.119-0.172
			l2.24-1.145v-1.025c0-1.141,0.051-2.002,0.152-2.59c0.104-0.586,0.295-1.129,0.574-1.623c0.276-0.496,0.766-1.123,1.461-1.881
			c0.692-0.758,1.305-1.377,1.827-1.863c0.523-0.482,0.98-0.809,1.367-0.973c0.388-0.166,0.845-0.248,1.367-0.248
			c0.435,0,0.9,0.086,1.4,0.256l-0.017,2.803l-0.395,0.154c-0.637-0.57-1.377-0.854-2.221-0.854c-0.593,0-1.105,0.121-1.539,0.365
			c-0.433,0.246-0.729,0.645-0.89,1.197c-0.158,0.553-0.237,1.467-0.237,2.742v3.539h1.827c0.945,0,1.841-0.035,2.685-0.105
			l0.154,0.189l-0.31,1.504l-0.154,0.17c-0.342-0.012-0.563-0.018-0.666-0.018l-2.221-0.018h-1.315v6.889
			c0,0.363,0.024,1.199,0.075,2.504c0.054,1.305,0.101,2.07,0.146,2.299c0.045,0.227,0.121,0.393,0.229,0.494
			c0.107,0.104,0.285,0.178,0.529,0.223C183.939,387.626,184.723,387.667,186.045,387.701z"/>
		<path fill="#010202" d="M189.02,380.746c0-1.355,0.279-2.664,0.838-3.922c0.557-1.26,1.529-2.348,2.912-3.266
			c1.385-0.916,3.027-1.375,4.932-1.375c2.394,0,4.34,0.756,5.844,2.264c1.505,1.512,2.257,3.451,2.257,5.82
			c0,2.607-0.863,4.756-2.589,6.441c-1.727,1.688-3.809,2.529-6.245,2.529c-1.597,0-3.021-0.432-4.273-1.291
			c-1.254-0.859-2.18-1.91-2.777-3.152C189.32,383.552,189.02,382.205,189.02,380.746z M192.249,379.566
			c0,1.596,0.205,3.021,0.615,4.279c0.41,1.262,1.06,2.271,1.947,3.033c0.889,0.766,1.901,1.146,3.043,1.146
			c1.344,0,2.453-0.531,3.332-1.598c0.877-1.064,1.315-2.67,1.315-4.813c0-2.426-0.477-4.414-1.428-5.963
			c-0.951-1.551-2.322-2.324-4.108-2.324c-1.482,0-2.64,0.535-3.472,1.605C192.663,376.005,192.249,377.55,192.249,379.566z"/>
		<path fill="#010202" d="M213.338,372.287l0.323,0.221c-0.125,1.494-0.188,3.391-0.188,5.691v3.863c0,0.25,0.022,1.057,0.067,2.418
			c0.045,1.359,0.095,2.154,0.146,2.383c0.053,0.229,0.129,0.395,0.229,0.496c0.104,0.104,0.229,0.168,0.377,0.195
			c0.148,0.029,0.765,0.076,1.847,0.146l0.153,0.137v0.719l-0.137,0.152c-1.426-0.09-2.797-0.137-4.119-0.137
			c-1.311,0-2.678,0.047-4.102,0.137l-0.154-0.152v-0.719l0.154-0.137c1.104-0.068,1.729-0.119,1.871-0.154
			c0.142-0.033,0.268-0.104,0.377-0.213c0.106-0.107,0.182-0.273,0.221-0.496c0.041-0.223,0.086-0.957,0.137-2.205
			c0.054-1.246,0.078-2.189,0.078-2.828v-3.365c0-0.455-0.022-1.076-0.067-1.863c-0.048-0.785-0.084-1.27-0.111-1.453
			c-0.029-0.182-0.117-0.314-0.266-0.4s-0.443-0.129-0.89-0.129l-1.436-0.018l-0.154-0.137v-0.734l0.137-0.137
			C210.012,373.306,211.846,372.878,213.338,372.287z M211.885,364.646c0.534,0,0.991,0.188,1.366,0.563
			c0.378,0.377,0.564,0.832,0.564,1.367c0,0.525-0.188,0.975-0.564,1.352c-0.375,0.375-0.831,0.563-1.366,0.563
			c-0.523,0-0.978-0.186-1.357-0.555c-0.383-0.369-0.574-0.822-0.574-1.359c0-0.535,0.191-0.99,0.574-1.367
			C210.907,364.835,211.36,364.646,211.885,364.646z"/>
	</g>
	<circle fill="#EEEDED" stroke="#010202" stroke-width="0.2492" stroke-miterlimit="10" cx="190.476" cy="343.474" r="13.79"/>
	<g>
		<rect x="414.967" y="363.263" fill="none" width="78.979" height="36.508"/>
		<path fill="#010202" d="M432.299,382.574c-0.936-0.717-1.401-1.572-1.401-2.564c0-0.672,0.165-1.307,0.496-1.904
			c0.33-0.6,1.069-1.541,2.221-2.828c0.912-1.016,1.584-1.893,2.019-2.633c0.433-0.74,0.647-1.477,0.647-2.203
			c0-1.129-0.416-2.066-1.247-2.813c-0.832-0.746-1.846-1.121-3.042-1.121c-0.673,0-1.4,0.154-2.188,0.463
			c-0.319,0.309-0.604,0.734-0.854,1.281l-0.648,1.299l-0.205,0.139l-0.752-0.086l-0.104-0.24l1.315-3.965
			c1.334-0.865,2.786-1.299,4.357-1.299c1.207,0,2.315,0.221,3.324,0.658c1.008,0.438,1.8,1.09,2.375,1.955
			c0.575,0.867,0.863,1.842,0.863,2.924c0,0.719-0.117,1.391-0.352,2.018c-0.233,0.627-0.575,1.238-1.024,1.836
			c-0.45,0.6-1.313,1.469-2.59,2.605c-0.81,0.719-1.427,1.307-1.854,1.762c-0.427,0.457-0.749,0.896-0.965,1.324
			c-0.217,0.428-0.325,0.816-0.325,1.172c0,0.592,0.228,1.139,0.684,1.641l-0.033,0.238l-0.444,0.342H432.299L432.299,382.574z
			 M432.623,384.796c0.569,0,1.054,0.199,1.452,0.598s0.6,0.883,0.6,1.453c0,0.559-0.2,1.037-0.6,1.436
			c-0.398,0.398-0.883,0.598-1.452,0.598c-0.559,0-1.04-0.197-1.443-0.598c-0.405-0.398-0.606-0.877-0.606-1.436
			c0-0.582,0.205-1.068,0.615-1.463C431.599,384.992,432.076,384.796,432.623,384.796z"/>
		<path fill="#010202" d="M447.611,372.287l0.324,0.221c-0.126,1.494-0.188,3.391-0.188,5.691v3.863c0,0.25,0.022,1.057,0.068,2.418
			c0.045,1.359,0.094,2.154,0.145,2.383c0.053,0.229,0.13,0.395,0.23,0.496c0.104,0.104,0.229,0.168,0.377,0.195
			c0.147,0.029,0.763,0.076,1.846,0.146l0.153,0.137v0.719l-0.137,0.152c-1.426-0.09-2.797-0.137-4.118-0.137
			c-1.312,0-2.678,0.047-4.103,0.137l-0.153-0.152v-0.719l0.153-0.137c1.104-0.068,1.729-0.119,1.871-0.154
			c0.143-0.033,0.269-0.104,0.376-0.213c0.107-0.107,0.183-0.273,0.223-0.496s0.086-0.957,0.137-2.205
			c0.052-1.246,0.077-2.189,0.077-2.828v-3.365c0-0.455-0.023-1.076-0.068-1.863c-0.046-0.785-0.083-1.27-0.111-1.453
			c-0.027-0.182-0.116-0.314-0.265-0.4c-0.147-0.086-0.444-0.129-0.889-0.129l-1.437-0.018l-0.153-0.137v-0.734l0.137-0.137
			C444.284,373.306,446.118,372.878,447.611,372.287z M446.158,364.646c0.535,0,0.991,0.188,1.367,0.563
			c0.376,0.377,0.564,0.832,0.564,1.367c0,0.525-0.188,0.975-0.564,1.352c-0.376,0.375-0.832,0.563-1.367,0.563
			c-0.523,0-0.978-0.186-1.357-0.555c-0.383-0.369-0.573-0.822-0.573-1.359c0-0.535,0.19-0.99,0.573-1.367
			C445.182,364.835,445.635,364.646,446.158,364.646z"/>
		<path fill="#010202" d="M457.268,372.287l0.325,0.221c-0.068,0.766-0.114,1.768-0.138,3.01c0.911-0.754,1.777-1.516,2.599-2.291
			c0.237-0.217,0.464-0.375,0.675-0.479c0.21-0.104,0.561-0.211,1.051-0.324c0.489-0.113,0.991-0.172,1.504-0.172
			c0.865,0,1.706,0.178,2.521,0.529c0.813,0.354,1.43,0.771,1.846,1.256c0.416,0.486,0.703,1.059,0.863,1.719
			c0.159,0.66,0.238,1.477,0.238,2.443v3.008c0,0.193,0.028,1.613,0.086,4.256c0.022,1.082,0.143,1.727,0.358,1.932
			s0.923,0.307,2.119,0.307l0.137,0.137v0.736l-0.137,0.137c-1.447-0.092-2.427-0.137-2.938-0.137c-0.298,0-1.129,0.045-2.495,0.137
			l-0.205-0.188c0.146-1.48,0.222-3.412,0.222-5.793v-2.238c0-1.346-0.031-2.313-0.094-2.906c-0.063-0.592-0.254-1.131-0.572-1.613
			c-0.319-0.484-0.746-0.861-1.281-1.129c-0.536-0.268-1.174-0.402-1.914-0.402c-0.593,0-1.101,0.061-1.521,0.18
			c-0.422,0.121-0.896,0.365-1.418,0.736c-0.524,0.369-0.912,0.717-1.162,1.041c-0.251,0.326-0.402,0.627-0.453,0.906
			c-0.052,0.279-0.077,0.875-0.077,1.785v2.975c0,0.25,0.022,1.057,0.068,2.418c0.045,1.361,0.094,2.156,0.146,2.385
			c0.052,0.227,0.128,0.393,0.23,0.494c0.103,0.104,0.228,0.17,0.376,0.197c0.146,0.027,0.763,0.076,1.846,0.145l0.153,0.137v0.721
			l-0.138,0.152c-1.424-0.092-2.797-0.137-4.117-0.137c-1.312,0-2.679,0.045-4.103,0.137l-0.153-0.152v-0.721l0.153-0.137
			c1.104-0.068,1.729-0.119,1.871-0.152s0.269-0.104,0.376-0.215c0.108-0.105,0.183-0.271,0.223-0.494
			c0.039-0.223,0.086-0.957,0.138-2.205c0.051-1.246,0.076-2.189,0.076-2.828v-3.365c0-0.457-0.022-1.078-0.068-1.863
			c-0.045-0.787-0.082-1.27-0.11-1.453c-0.028-0.182-0.117-0.314-0.265-0.4c-0.148-0.086-0.445-0.129-0.889-0.129l-1.437-0.018
			l-0.154-0.137v-0.734l0.138-0.137C453.94,373.306,455.774,372.878,457.268,372.287z"/>
		<path fill="#010202" d="M472.579,375.158v-0.445l0.12-0.17c1.07-0.398,1.938-0.77,2.599-1.111c0-2.975-0.035-4.705-0.104-5.195
			c1.174-0.41,2.137-0.85,2.889-1.316l0.41,0.342c-0.114,0.721-0.251,2.805-0.41,6.258c0.569,0.012,1.186,0.016,1.847,0.016
			c1.344,0,2.307-0.033,2.889-0.104l0.119,0.119l-0.324,1.438l-0.137,0.152c-0.582-0.012-1.227-0.018-1.933-0.018
			c-0.639,0-1.459,0.006-2.461,0.018l-0.103,6.955c0,1.607,0.037,2.658,0.111,3.154c0.072,0.496,0.277,0.883,0.614,1.162
			c0.336,0.279,0.834,0.418,1.495,0.418c0.763,0,1.47-0.199,2.119-0.598l0.41,0.615c-0.273,0.193-0.929,0.764-1.965,1.709
			c-0.594,0.273-1.197,0.41-1.813,0.41c-2.563,0-3.845-1.242-3.845-3.727c0-0.91,0.021-1.688,0.068-2.324
			c0.011-0.193,0.017-0.393,0.017-0.598v-7.094h-0.7c-0.513,0-1.1,0.023-1.761,0.068L472.579,375.158z"/>
	</g>
	<g>
		<rect x="803.009" y="327.684" fill="none" width="78.979" height="36.509"/>
		<path fill="#010202" d="M818.52,346.995c-0.934-0.717-1.4-1.572-1.4-2.563c0-0.674,0.164-1.309,0.496-1.906
			c0.33-0.6,1.07-1.541,2.221-2.828c0.912-1.014,1.584-1.891,2.019-2.633c0.432-0.74,0.647-1.477,0.647-2.203
			c0-1.129-0.416-2.066-1.248-2.813c-0.832-0.748-1.846-1.121-3.041-1.121c-0.674,0-1.401,0.154-2.188,0.463
			c-0.32,0.309-0.605,0.734-0.855,1.281l-0.647,1.299l-0.205,0.139l-0.752-0.086l-0.104-0.24l1.316-3.965
			c1.334-0.865,2.785-1.299,4.357-1.299c1.207,0,2.315,0.221,3.323,0.658c1.009,0.438,1.802,1.092,2.375,1.955
			c0.576,0.867,0.863,1.842,0.863,2.924c0,0.719-0.117,1.391-0.35,2.018c-0.234,0.627-0.576,1.238-1.025,1.836
			c-0.451,0.6-1.313,1.469-2.59,2.607c-0.809,0.717-1.426,1.305-1.854,1.76c-0.428,0.457-0.75,0.896-0.965,1.324
			c-0.217,0.428-0.326,0.816-0.326,1.172c0,0.592,0.229,1.139,0.685,1.641l-0.033,0.238l-0.444,0.342H818.52L818.52,346.995z
			 M818.846,349.218c0.567,0,1.053,0.199,1.451,0.598c0.397,0.398,0.6,0.883,0.6,1.453c0,0.559-0.201,1.037-0.6,1.436
			c-0.399,0.4-0.884,0.598-1.451,0.598c-0.56,0-1.041-0.197-1.445-0.598c-0.404-0.398-0.604-0.877-0.604-1.436
			c0-0.582,0.204-1.068,0.614-1.461C817.819,349.414,818.299,349.218,818.846,349.218z"/>
		<path fill="#010202" d="M833.27,327.684l0.324,0.205c-0.125,1.311-0.188,3.936-0.188,7.877v4.223
			c0.957-0.787,1.846-1.566,2.666-2.342c0.238-0.217,0.467-0.377,0.685-0.48c0.215-0.102,0.565-0.211,1.051-0.324
			c0.483-0.113,0.981-0.172,1.496-0.172c0.864,0,1.705,0.18,2.52,0.531c0.814,0.354,1.43,0.771,1.846,1.256s0.703,1.059,0.863,1.717
			c0.16,0.662,0.24,1.477,0.24,2.443v3.008c0,0.195,0.027,1.613,0.084,4.257c0.035,1.082,0.156,1.729,0.367,1.934
			s0.916,0.307,2.11,0.307l0.138,0.137v0.734l-0.138,0.137c-1.446-0.09-2.426-0.137-2.938-0.137c-0.262,0-1.094,0.047-2.494,0.137
			l-0.205-0.188c0.146-1.48,0.221-3.412,0.221-5.794v-2.238c0-1.344-0.031-2.313-0.094-2.906c-0.063-0.592-0.254-1.129-0.572-1.613
			c-0.317-0.484-0.744-0.859-1.272-1.127c-0.529-0.27-1.17-0.402-1.922-0.402c-0.775,0-1.423,0.104-1.939,0.316
			c-0.52,0.211-1.047,0.566-1.582,1.066c-0.535,0.502-0.856,0.92-0.965,1.256c-0.109,0.336-0.162,0.982-0.162,1.939v3.043
			c0,0.25,0.021,1.057,0.068,2.419c0.045,1.361,0.094,2.156,0.145,2.385c0.052,0.229,0.129,0.395,0.23,0.494
			c0.104,0.105,0.229,0.17,0.377,0.197c0.146,0.027,0.762,0.076,1.846,0.145l0.154,0.139v0.719l-0.138,0.152
			c-1.426-0.092-2.799-0.137-4.118-0.137c-1.312,0-2.679,0.045-4.103,0.137l-0.154-0.152v-0.719l0.154-0.139
			c1.104-0.066,1.729-0.119,1.871-0.152s0.268-0.104,0.375-0.215c0.109-0.105,0.184-0.271,0.223-0.494s0.086-0.957,0.138-2.205
			c0.051-1.247,0.077-2.19,0.077-2.829v-8.854l-0.067-3.623c-0.035-1.264-0.072-2.141-0.111-2.631
			c-0.041-0.49-0.094-0.781-0.162-0.873c-0.067-0.09-0.188-0.158-0.358-0.205c-0.172-0.045-0.861-0.066-2.068-0.066l-0.154-0.154
			v-0.717l0.138-0.154C829.941,328.698,831.774,328.276,833.27,327.684z"/>
		<path fill="#010202" d="M848.614,339.579v-0.445l0.121-0.17c1.07-0.398,1.937-0.77,2.598-1.111c0-2.975-0.034-4.705-0.104-5.195
			c1.174-0.41,2.137-0.848,2.889-1.316l0.41,0.344c-0.115,0.719-0.252,2.803-0.41,6.256c0.568,0.012,1.185,0.016,1.847,0.016
			c1.344,0,2.307-0.033,2.889-0.102l0.119,0.117l-0.324,1.438l-0.137,0.154c-0.582-0.014-1.228-0.02-1.933-0.02
			c-0.639,0-1.459,0.006-2.461,0.02l-0.104,6.955c0,1.605,0.037,2.657,0.11,3.153c0.074,0.496,0.279,0.883,0.615,1.162
			s0.834,0.418,1.496,0.418c0.762,0,1.469-0.199,2.119-0.598l0.41,0.615c-0.273,0.193-0.931,0.764-1.965,1.709
			c-0.595,0.273-1.197,0.41-1.813,0.41c-2.563,0-3.846-1.242-3.846-3.727c0-0.91,0.022-1.688,0.067-2.325
			c0.013-0.193,0.019-0.393,0.019-0.598v-7.092h-0.701c-0.512,0-1.1,0.021-1.76,0.066L848.614,339.579z"/>
		<path fill="#010202" d="M865.809,336.708l0.324,0.221c-0.068,0.662-0.119,1.836-0.154,3.521l1.283-1.623
			c0.42-0.535,0.793-0.949,1.119-1.238c0.323-0.291,0.702-0.516,1.137-0.676c0.432-0.16,0.877-0.24,1.332-0.24
			c0.502,0,0.975,0.105,1.418,0.311l0.121,0.236c-0.185,1.518-0.285,2.852-0.31,4h-0.77c-0.455-1.049-1.189-1.57-2.203-1.57
			c-0.707,0-1.322,0.225-1.846,0.674c-0.525,0.451-0.875,1.016-1.054,1.691c-0.176,0.68-0.264,1.535-0.264,2.572v1.896
			c0,0.342,0.021,1.18,0.068,2.513c0.045,1.334,0.094,2.102,0.145,2.307s0.131,0.357,0.24,0.453c0.107,0.1,0.25,0.162,0.426,0.197
			c0.178,0.033,0.988,0.092,2.437,0.17l0.153,0.137v0.721l-0.153,0.152c-1.517-0.092-3.101-0.137-4.75-0.137
			c-1.312,0-2.679,0.045-4.103,0.137l-0.154-0.152v-0.721l0.154-0.137c1.104-0.068,1.729-0.119,1.871-0.152s0.268-0.104,0.375-0.215
			c0.109-0.105,0.184-0.271,0.223-0.494s0.086-0.957,0.138-2.205c0.051-1.247,0.077-2.19,0.077-2.829v-3.365
			c0-0.457-0.022-1.078-0.067-1.863c-0.047-0.787-0.084-1.27-0.111-1.453c-0.028-0.182-0.116-0.314-0.266-0.4
			c-0.148-0.086-0.443-0.129-0.89-0.129l-1.436-0.018l-0.154-0.137v-0.734l0.137-0.137
			C862.48,337.727,864.314,337.299,865.809,336.708z"/>
	</g>
	<circle fill="#EEEDED" stroke="#010202" stroke-width="0.2492" stroke-miterlimit="10" cx="454.455" cy="343.474" r="13.79"/>
	<g>
		<g>
			<line fill="none" stroke="#010202" stroke-miterlimit="10" x1="436.425" y1="343.471" x2="221.678" y2="343.471"/>
			<g>
				<polygon fill="#010202" points="225.891,337.917 223.53,343.471 225.891,349.027 212.723,343.471 				"/>
			</g>
		</g>
	</g>
	<g>
		<g>
			<path fill="#010202" d="M493.835,335.051c-1.239,1.24-2.761,1.861-4.561,1.861c-2.061,0-3.76-0.84-5.1-2.521v8.131h-1.23v-18.211
				h1.23v2.342c1.278-1.682,2.979-2.521,5.1-2.521c1.8,0,3.311,0.609,4.529,1.828c1.239,1.242,1.86,2.762,1.86,4.563
				C495.665,332.323,495.055,333.833,493.835,335.051z M492.936,326.862c-1.021-1.021-2.24-1.529-3.66-1.529
				c-1.439,0-2.66,0.5-3.66,1.5c-1.02,1.02-1.528,2.25-1.528,3.689c0,1.42,0.51,2.641,1.528,3.66c1.02,1.018,2.24,1.527,3.66,1.527
				c1.439,0,2.66-0.498,3.66-1.5c1.02-1.02,1.529-2.25,1.529-3.688C494.465,329.102,493.954,327.881,492.936,326.862z"/>
			<path fill="#010202" d="M504.244,326.141c-0.319-0.238-0.66-0.43-1.021-0.568c-0.359-0.141-0.74-0.211-1.141-0.211
				c-0.341,0-0.659,0.104-0.96,0.314c-0.3,0.209-0.561,0.471-0.778,0.779c-0.222,0.313-0.396,0.654-0.525,1.035
				c-0.131,0.379-0.195,0.73-0.195,1.049v8.16h-1.229v-12.389h1.229v1.68c0.261-0.461,0.601-0.881,1.021-1.26
				c0.42-0.381,0.881-0.57,1.381-0.57c0.619,0,1.129,0.07,1.529,0.209c0.399,0.141,0.85,0.391,1.351,0.75L504.244,326.141z"/>
			<path fill="#010202" d="M515.824,335.051c-1.24,1.24-2.76,1.861-4.56,1.861c-1.802,0-3.312-0.611-4.53-1.83
				c-1.24-1.24-1.86-2.76-1.86-4.561c0-1.779,0.62-3.289,1.86-4.529c1.22-1.262,2.729-1.891,4.53-1.891
				c1.778,0,3.289,0.619,4.528,1.857c1.24,1.242,1.86,2.762,1.86,4.563C517.654,332.323,517.045,333.833,515.824,335.051z
				 M514.954,326.833c-1-1.021-2.229-1.531-3.688-1.531c-1.4,0-2.61,0.521-3.631,1.561c-1.039,1.041-1.561,2.262-1.561,3.66
				c0,1.42,0.51,2.641,1.53,3.66c1.02,1.02,2.239,1.529,3.66,1.529c1.438,0,2.659-0.5,3.66-1.5c1.02-1.02,1.528-2.25,1.528-3.689
				C516.454,329.063,515.954,327.833,514.954,326.833z"/>
			<path fill="#010202" d="M531.573,335.051c-1.24,1.24-2.76,1.861-4.56,1.861c-2.062,0-3.762-0.84-5.101-2.521v8.131h-1.229
				v-18.211h1.229v2.342c1.279-1.682,2.979-2.521,5.101-2.521c1.8,0,3.31,0.609,4.529,1.828c1.239,1.242,1.859,2.762,1.859,4.563
				C533.403,332.323,532.793,333.833,531.573,335.051z M530.675,326.862c-1.021-1.021-2.24-1.529-3.66-1.529
				c-1.44,0-2.66,0.5-3.66,1.5c-1.021,1.02-1.53,2.25-1.53,3.689c0,1.42,0.512,2.641,1.53,3.66c1.021,1.02,2.24,1.527,3.66,1.527
				c1.439,0,2.66-0.498,3.66-1.5c1.02-1.02,1.529-2.25,1.529-3.688C532.204,329.102,531.693,327.881,530.675,326.862z"/>
			<path fill="#010202" d="M542.225,335.922c-0.801,0.68-1.761,1.02-2.88,1.02c-1.921,0-3.36-0.869-4.32-2.609l1.05-0.631
				c0.34,0.621,0.75,1.102,1.23,1.441c0.499,0.379,1.18,0.568,2.04,0.568c1.879,0,2.818-0.799,2.818-2.398
				c0-0.701-0.33-1.311-0.989-1.83c-0.199-0.121-0.484-0.256-0.854-0.406c-0.37-0.148-0.825-0.324-1.365-0.523
				c-1-0.359-1.72-0.721-2.16-1.08c-0.64-0.521-0.96-1.271-0.96-2.25c0-0.84,0.32-1.561,0.96-2.16c0.62-0.619,1.431-0.93,2.432-0.93
				c1.38,0,2.55,0.479,3.51,1.439l-0.9,0.779c-0.68-0.68-1.55-1.02-2.608-1.02c-1.44,0-2.16,0.629-2.16,1.889
				c0,0.561,0.22,1.021,0.66,1.381c0.358,0.279,0.93,0.551,1.71,0.811c0.68,0.24,1.239,0.465,1.68,0.674
				c0.439,0.211,0.771,0.396,0.99,0.557c0.859,0.66,1.29,1.551,1.29,2.67C543.395,334.391,543.004,335.262,542.225,335.922z"/>
			<path fill="#010202" d="M546.604,328.032c-0.22,0-0.449-0.09-0.689-0.271c-0.18-0.18-0.279-0.42-0.3-0.721
				c0-0.539,0.33-0.869,0.989-0.988c0.5,0,0.83,0.33,0.99,0.988C547.594,327.702,547.264,328.032,546.604,328.032z M546.604,336.881
				c-0.22,0-0.449-0.09-0.689-0.27c-0.18-0.18-0.279-0.42-0.3-0.721c0-0.539,0.33-0.869,0.989-0.988c0.5,0,0.83,0.328,0.99,0.988
				C547.594,336.551,547.264,336.881,546.604,336.881z"/>
			<path fill="#010202" d="M552.813,325.542v11.16h-1.229v-11.16h-1.681v-1.229h1.681v-5.431h1.229v5.431h2.88v1.229H552.813z"/>
			<path fill="#010202" d="M567.033,335.051c-1.24,1.24-2.76,1.861-4.56,1.861c-1.801,0-3.312-0.611-4.53-1.83
				c-1.24-1.24-1.86-2.76-1.86-4.561c0-1.779,0.62-3.289,1.86-4.529c1.22-1.262,2.729-1.891,4.53-1.891
				c1.778,0,3.289,0.619,4.528,1.857c1.24,1.242,1.86,2.762,1.86,4.563C568.863,332.323,568.254,333.833,567.033,335.051z
				 M566.163,326.833c-1-1.021-2.229-1.531-3.688-1.531c-1.4,0-2.61,0.521-3.631,1.561c-1.04,1.041-1.561,2.262-1.561,3.66
				c0,1.42,0.51,2.641,1.53,3.66c1.02,1.02,2.239,1.529,3.66,1.529c1.438,0,2.659-0.5,3.659-1.5c1.021-1.02,1.529-2.25,1.529-3.689
				C567.663,329.063,567.163,327.833,566.163,326.833z"/>
			<path fill="#010202" d="M573.813,325.542v11.16h-1.229v-11.16h-1.681v-1.229h1.681v-5.431h1.229v5.431h2.88v1.229H573.813z"/>
			<path fill="#010202" d="M588.453,336.702v-2.129c-1.3,1.559-2.949,2.34-4.949,2.34c-1.801,0-3.311-0.611-4.529-1.83
				c-1.24-1.24-1.86-2.76-1.86-4.561s0.61-3.311,1.83-4.529c1.24-1.24,2.76-1.861,4.562-1.861c1.979,0,3.63,0.781,4.948,2.342v-2.16
				h1.23v12.389H588.453L588.453,336.702z M587.163,326.862c-1.02-1.021-2.239-1.529-3.658-1.529c-1.44,0-2.66,0.5-3.66,1.5
				c-1.021,1.02-1.53,2.25-1.53,3.689c0,1.42,0.51,2.641,1.53,3.66c1.02,1.02,2.239,1.527,3.66,1.527c1.438,0,2.658-0.498,3.658-1.5
				c1.021-1.02,1.53-2.25,1.53-3.688C588.693,329.102,588.185,327.881,587.163,326.862z"/>
			<path fill="#010202" d="M593.674,336.702v-22.198h1.199v22.198H593.674z"/>
			<path fill="#010202" d="M610.502,336.702v-11.16h-11.788v11.16h-1.2v-21.419h1.2v9.028h11.788v-9.028h1.23v21.419H610.502z"/>
			<path fill="#010202" d="M615.902,330.252c0,1.68,0.45,3.01,1.352,3.99c0.938,1,2.229,1.5,3.869,1.5
				c0.84,0,1.601-0.141,2.279-0.42c0.86-0.361,1.63-1.09,2.312-2.191l1.108,0.512c-0.779,1.479-1.979,2.479-3.6,3
				c-0.62,0.199-1.32,0.299-2.1,0.299c-1.86,0-3.392-0.609-4.592-1.83c-1.22-1.219-1.83-2.75-1.83-4.59
				c0-1.859,0.602-3.391,1.802-4.59c1.22-1.221,2.76-1.83,4.62-1.83c1.84,0,3.358,0.57,4.56,1.711c1.22,1.139,1.83,2.619,1.83,4.439
				H615.902L615.902,330.252z M624.362,326.323c-0.939-0.68-2.02-1.021-3.239-1.021c-2.561,0-4.24,1.26-5.04,3.779h10.051
				C625.934,327.942,625.344,327.022,624.362,326.323z"/>
			<path fill="#010202" d="M640.772,336.702v-2.129c-1.3,1.559-2.95,2.34-4.949,2.34c-1.801,0-3.311-0.611-4.53-1.83
				c-1.239-1.24-1.859-2.76-1.859-4.561s0.609-3.311,1.83-4.529c1.24-1.24,2.76-1.861,4.561-1.861c1.979,0,3.63,0.781,4.949,2.342
				v-2.16h1.23v12.389H640.772L640.772,336.702z M639.482,326.862c-1.02-1.021-2.24-1.529-3.659-1.529c-1.439,0-2.66,0.5-3.66,1.5
				c-1.021,1.02-1.53,2.25-1.53,3.689c0,1.42,0.511,2.641,1.53,3.66c1.021,1.02,2.239,1.527,3.66,1.527
				c1.439,0,2.659-0.498,3.659-1.5c1.021-1.02,1.53-2.25,1.53-3.688C641.013,329.102,640.502,327.881,639.482,326.862z"/>
			<path fill="#010202" d="M647.522,325.542v11.16h-1.229v-11.16h-1.681v-1.229h1.681v-5.431h1.229v5.431h2.88v1.229H647.522z"/>
			<path fill="#010202" d="M655.082,316.513v20.188h-1.229v-20.188h-4.74v-1.229h10.71v1.229H655.082z"/>
			<path fill="#010202" d="M664.893,326.141c-0.32-0.238-0.66-0.43-1.021-0.568c-0.358-0.141-0.738-0.211-1.14-0.211
				c-0.34,0-0.66,0.104-0.96,0.314c-0.3,0.209-0.561,0.471-0.78,0.779c-0.219,0.311-0.395,0.654-0.523,1.035
				c-0.132,0.379-0.195,0.73-0.195,1.049v8.16h-1.229v-12.389h1.229v1.68c0.26-0.461,0.6-0.881,1.021-1.26
				c0.421-0.381,0.88-0.57,1.381-0.57c0.619,0,1.129,0.07,1.528,0.209c0.4,0.141,0.852,0.391,1.352,0.75L664.893,326.141z"/>
			<path fill="#010202" d="M678.152,336.702v-2.129c-1.3,1.559-2.95,2.34-4.949,2.34c-1.801,0-3.311-0.611-4.529-1.83
				c-1.24-1.24-1.86-2.76-1.86-4.561s0.61-3.311,1.83-4.529c1.24-1.24,2.76-1.861,4.561-1.861c1.979,0,3.63,0.781,4.949,2.342v-2.16
				h1.23v12.389H678.152L678.152,336.702z M676.862,326.862c-1.02-1.021-2.24-1.529-3.659-1.529c-1.439,0-2.66,0.5-3.66,1.5
				c-1.021,1.02-1.529,2.25-1.529,3.689c0,1.42,0.51,2.641,1.529,3.66c1.021,1.02,2.239,1.527,3.66,1.527
				c1.439,0,2.659-0.498,3.659-1.5c1.021-1.02,1.53-2.25,1.53-3.688C678.394,329.102,677.884,327.881,676.862,326.862z"/>
			<path fill="#010202" d="M691.384,336.702v-7.41c0-2.619-1.182-3.93-3.54-3.93c-1.16,0-2.04,0.34-2.642,1.02
				c-0.62,0.682-0.93,1.611-0.93,2.791v7.529h-1.229v-12.391h1.229v1.5c0.56-1.1,1.75-1.648,3.569-1.648
				c1.541,0,2.721,0.439,3.541,1.318c0.818,0.881,1.229,2.109,1.229,3.689v7.529h-1.228V336.702z"/>
			<path fill="#010202" d="M702.662,335.922c-0.801,0.68-1.761,1.02-2.88,1.02c-1.921,0-3.359-0.869-4.319-2.609l1.05-0.631
				c0.34,0.621,0.75,1.102,1.229,1.441c0.499,0.379,1.181,0.568,2.04,0.568c1.88,0,2.819-0.799,2.819-2.398
				c0-0.701-0.33-1.311-0.99-1.83c-0.199-0.121-0.483-0.256-0.854-0.406c-0.37-0.148-0.825-0.324-1.365-0.523
				c-1-0.359-1.72-0.721-2.16-1.08c-0.64-0.521-0.96-1.271-0.96-2.25c0-0.84,0.32-1.561,0.96-2.16c0.62-0.619,1.43-0.93,2.432-0.93
				c1.38,0,2.55,0.479,3.51,1.439l-0.9,0.779c-0.68-0.68-1.55-1.02-2.609-1.02c-1.439,0-2.159,0.629-2.159,1.889
				c0,0.561,0.22,1.021,0.659,1.381c0.359,0.279,0.931,0.551,1.711,0.811c0.68,0.24,1.238,0.465,1.68,0.674
				c0.438,0.211,0.77,0.396,0.99,0.557c0.858,0.66,1.29,1.551,1.29,2.67C703.832,334.391,703.441,335.262,702.662,335.922z"/>
			<path fill="#010202" d="M711.213,315.734l-0.812-0.092c-1.12,0-1.68,0.66-1.68,1.98v6.688h2.938v1.229h-2.938v11.16h-1.23v-11.16
				h-1.68v-1.229h1.68v-7.05c0-1.898,0.96-2.85,2.88-2.85c0.44,0,0.721,0.02,0.841,0.061c0.239,0,0.511,0.07,0.811,0.209v1.23
				L711.213,315.734z"/>
			<path fill="#010202" d="M713.343,330.252c0,1.68,0.449,3.01,1.351,3.99c0.939,1,2.229,1.5,3.87,1.5c0.84,0,1.6-0.141,2.279-0.42
				c0.859-0.361,1.63-1.09,2.311-2.191l1.109,0.512c-0.779,1.479-1.979,2.479-3.601,3c-0.619,0.199-1.319,0.299-2.1,0.299
				c-1.86,0-3.391-0.609-4.591-1.83c-1.22-1.219-1.83-2.75-1.83-4.59c0-1.859,0.601-3.391,1.801-4.59
				c1.22-1.221,2.761-1.83,4.62-1.83c1.84,0,3.359,0.57,4.561,1.711c1.22,1.139,1.83,2.619,1.83,4.439H713.343L713.343,330.252z
				 M721.803,326.323c-0.94-0.68-2.021-1.021-3.239-1.021c-2.562,0-4.241,1.26-5.04,3.779h10.05
				C723.372,327.942,722.782,327.022,721.803,326.323z"/>
			<path fill="#010202" d="M733.651,326.141c-0.32-0.238-0.66-0.43-1.021-0.568c-0.359-0.141-0.739-0.211-1.141-0.211
				c-0.34,0-0.66,0.104-0.96,0.314c-0.3,0.209-0.561,0.471-0.78,0.779c-0.219,0.311-0.395,0.654-0.523,1.035
				c-0.131,0.379-0.195,0.73-0.195,1.049v8.16h-1.229v-12.389h1.229v1.68c0.26-0.461,0.6-0.881,1.021-1.26
				c0.42-0.381,0.879-0.57,1.38-0.57c0.619,0,1.129,0.07,1.528,0.209c0.4,0.141,0.852,0.391,1.352,0.75L733.651,326.141z"/>
			<path fill="#010202" d="M747.722,336.702l-6.811-10.709h-2.31v10.709h-1.2v-21.419h4.95c0.799,0,1.56,0.115,2.279,0.346
				c0.721,0.23,1.34,0.57,1.859,1.021c0.521,0.449,0.936,1.006,1.245,1.664s0.465,1.42,0.465,2.279c0,0.939-0.146,1.749-0.436,2.429
				s-0.7,1.24-1.229,1.68c-0.53,0.441-1.155,0.766-1.875,0.977s-1.511,0.314-2.37,0.314l6.87,10.709H747.722L747.722,336.702z
				 M746.581,318.779c-0.239-0.51-0.569-0.932-0.989-1.26c-0.42-0.33-0.91-0.58-1.471-0.75s-1.16-0.256-1.8-0.256h-3.72v8.247h4.05
				c1.279,0,2.314-0.357,3.104-1.078c0.79-0.723,1.186-1.761,1.186-3.12C746.941,319.882,746.821,319.289,746.581,318.779z"/>
			<path fill="#010202" d="M760.892,336.702v-2.129c-1.3,1.559-2.95,2.34-4.949,2.34c-1.801,0-3.312-0.611-4.53-1.83
				c-1.24-1.24-1.859-2.76-1.859-4.561s0.609-3.311,1.83-4.529c1.239-1.24,2.76-1.861,4.561-1.861c1.979,0,3.63,0.781,4.949,2.342
				v-2.16h1.229v12.389H760.892L760.892,336.702z M759.602,326.862c-1.021-1.021-2.24-1.529-3.659-1.529c-1.44,0-2.66,0.5-3.66,1.5
				c-1.021,1.02-1.53,2.25-1.53,3.689c0,1.42,0.511,2.641,1.53,3.66c1.021,1.02,2.239,1.527,3.66,1.527
				c1.438,0,2.659-0.498,3.659-1.5c1.021-1.02,1.53-2.25,1.53-3.688C761.132,329.102,760.621,327.881,759.602,326.862z"/>
			<path fill="#010202" d="M767.642,325.542v11.16h-1.229v-11.16h-1.681v-1.229h1.681v-5.431h1.229v5.431h2.88v1.229H767.642z"/>
			<path fill="#010202" d="M773.521,330.252c0,1.68,0.45,3.01,1.351,3.99c0.939,1,2.229,1.5,3.87,1.5c0.84,0,1.6-0.141,2.279-0.42
				c0.859-0.361,1.63-1.09,2.311-2.191l1.109,0.512c-0.779,1.479-1.979,2.479-3.6,3c-0.62,0.199-1.32,0.299-2.101,0.299
				c-1.859,0-3.391-0.609-4.591-1.83c-1.22-1.219-1.83-2.75-1.83-4.59c0-1.859,0.602-3.391,1.801-4.59
				c1.221-1.221,2.761-1.83,4.62-1.83c1.841,0,3.359,0.57,4.561,1.711c1.22,1.139,1.83,2.619,1.83,4.439H773.521L773.521,330.252z
				 M781.981,326.323c-0.94-0.68-2.021-1.021-3.239-1.021c-2.561,0-4.24,1.26-5.04,3.779h10.05
				C783.552,327.942,782.961,327.022,781.981,326.323z"/>
		</g>
	</g>
	<g>
		<g>
			<line fill="none" stroke="#010202" stroke-miterlimit="10" x1="474.147" y1="343.473" x2="797.873" y2="343.473"/>
			<g>
				<polygon fill="#010202" points="793.66,349.029 796.021,343.473 793.66,337.918 806.827,343.473 				"/>
			</g>
		</g>
	</g>
	<rect x="149.42" y="306.435" fill="none" stroke="#010202" stroke-miterlimit="10" width="736.998" height="93.336"/>
</g>
</svg>
